<?xml version="1.0" encoding="UTF-8"?>
<svg id="Capa_2" data-name="Capa 2" xmlns="http://www.w3.org/2000/svg" viewBox="0 0 134.62 107">
  <defs>
    <style>
      .cls-1 {
        fill: #00c129;
      }

      .cls-2 {
        fill: #515151;
      }

      .cls-3 {
        fill: #c4c4c4;
      }
    </style>
  </defs>
  <g id="Capa_1-2" data-name="Capa 1">
    <g>
      <g>
        <rect class="cls-2" x="1.25" y="24.56" width="132.11" height="57.88" rx="12.08" ry="12.08" transform="translate(35.42 -26.35) rotate(29.75)"/>
        <rect class="cls-3" x="12.02" y="29.61" width="110.57" height="47.78" rx="12.08" ry="12.08" transform="translate(35.42 -26.35) rotate(29.75)"/>
        <circle cx="119.92" cy="83.57" r="2.63"/>
        <ellipse cx="14.48" cy="23.2" rx="3.86" ry="2.63" transform="translate(-12.85 24.26) rotate(-60.25)"/>
      </g>
      <g>
        <g>
          <path class="cls-1" d="m55.27,33.2l-5.61,9.82c-.61,1.07-1.97,1.44-3.04.83-.54-.31-.89-.8-1.05-1.35-.15-.55-.09-1.16.22-1.69l1.95-3.4-5.26-3.01-1.95,3.4c-.61,1.07-1.97,1.44-3.04.83s-1.44-1.97-.83-3.04l5.61-9.82c.61-1.07,1.97-1.44,3.04-.83.53.31.9.8,1.04,1.35.15.55.09,1.16-.21,1.69l-1.83,3.21,5.26,3.01,1.83-3.21c.61-1.07,1.97-1.44,3.04-.83s1.44,1.97.83,3.04Z"/>
          <path class="cls-1" d="m59.46,51.56c-1.08-.62-1.99-1.37-2.72-2.26-.73-.89-1.25-1.84-1.56-2.88-.31-1.03-.41-2.09-.3-3.18.11-1.09.46-2.15,1.05-3.18s1.31-1.85,2.19-2.49c.88-.64,1.84-1.09,2.89-1.35,1.05-.26,2.13-.3,3.26-.12,1.13.18,2.24.58,3.33,1.2s2.01,1.38,2.73,2.26c.72.88,1.24,1.84,1.56,2.86.31,1.03.42,2.08.31,3.16-.11,1.08-.46,2.14-1.04,3.17s-1.33,1.89-2.21,2.54c-.87.65-1.84,1.1-2.89,1.35-1.05.25-2.14.28-3.27.11-1.13-.18-2.24-.58-3.33-1.2Zm1.83-3.21c.52.3,1.06.48,1.61.56.55.07,1.1.03,1.63-.12.53-.16,1.03-.42,1.49-.79.46-.37.86-.85,1.21-1.45s.56-1.19.64-1.78c.08-.58.06-1.14-.08-1.68-.14-.54-.38-1.02-.72-1.46-.35-.44-.78-.81-1.3-1.11s-1.06-.48-1.61-.56c-.55-.07-1.1-.04-1.64.12-.54.15-1.03.41-1.49.79-.45.37-.85.86-1.2,1.46s-.56,1.19-.65,1.77c-.09.58-.06,1.14.08,1.68.14.54.39,1.03.73,1.47.35.44.78.81,1.3,1.11Z"/>
          <path class="cls-1" d="m88.76,52.9c-.05-1.04-.42-2.03-1.1-2.95-.68-.93-1.65-1.75-2.9-2.46l-4.3-2.46c-1.07-.61-2.43-.24-3.04.83l-5.61,9.82c-.31.53-.37,1.14-.21,1.69.15.55.51,1.04,1.04,1.35,1.07.61,2.43.24,3.04-.83l.94-1.64,2.37,1.35c1.25.72,2.45,1.13,3.6,1.24,1.15.11,2.18-.07,3.1-.54.92-.47,1.68-1.23,2.28-2.29s.86-2.07.8-3.11Zm-6.15,2.01c-.6.12-1.31-.06-2.12-.52l-2.13-1.22,2.28-3.99,2.13,1.22c.81.46,1.31.99,1.51,1.58.2.59.13,1.19-.22,1.8s-.85,1.02-1.45,1.13Z"/>
          <path class="cls-1" d="m98.01,71.33c-.42.88-1.49,1.24-2.34.75l-7.85-4.48c-.79-.45-1.07-1.47-.62-2.26l6.18-10.81c.46-.8,1.47-1.07,2.27-.62l7.84,4.48c.85.48,1.08,1.59.54,2.4-.45.79-1.46,1.07-2.26.62l-4.96-2.83c-.28-.16-.64-.06-.8.22l-.94,1.64,4.71,2.69c.88.5,1.28,1.56.84,2.36-.45.81-1.54,1.06-2.43.55l-4.76-2.72-1.22,2.13c-.16.28-.06.64.22.8l4.96,2.83c.79.45,1.07,1.47.62,2.26Z"/>
        </g>
        <g>
          <path class="cls-1" d="m29.43,48.2l5.27-9.22,3.92,2.24c.99.57,1.75,1.26,2.29,2.08.54.82.82,1.69.84,2.63.02.93-.22,1.86-.75,2.77s-1.19,1.6-2.01,2.05c-.82.45-1.71.66-2.69.61-.98-.05-1.96-.35-2.95-.92l-3.92-2.24Zm1.98-.39l2.51,1.43c.77.44,1.52.68,2.25.71.73.03,1.4-.13,2-.47.61-.35,1.11-.86,1.5-1.54s.59-1.39.57-2.08c-.01-.69-.22-1.35-.62-1.96-.4-.61-.98-1.14-1.75-1.58l-2.51-1.43-3.96,6.93Z"/>
          <polygon class="cls-1" points="50.03 58.45 49.37 59.6 42.63 55.74 47.9 46.53 54.45 50.28 53.8 51.42 48.57 48.43 46.95 51.26 51.61 53.92 50.97 55.04 46.31 52.38 44.61 55.36 50.03 58.45"/>
          <path class="cls-1" d="m56.46,63.65c-.71-.4-1.33-.9-1.85-1.48-.53-.58-.88-1.14-1.06-1.69l1.07-.72c.18.5.49,1.01.93,1.52.44.51.95.94,1.54,1.27.54.31,1.01.5,1.42.57.4.07.75.05,1.03-.07.28-.12.5-.31.65-.58.18-.31.21-.62.11-.92-.1-.31-.28-.61-.55-.92-.27-.31-.57-.61-.92-.93-.35-.31-.69-.64-1.03-.99-.34-.35-.62-.7-.85-1.07-.23-.37-.36-.77-.39-1.19-.03-.42.09-.87.37-1.35s.63-.82,1.11-1.06c.48-.25,1.04-.34,1.71-.27.66.06,1.4.33,2.21.8.54.31,1.04.68,1.49,1.12.45.44.8.9,1.04,1.38l-1.03.78c-.25-.49-.56-.91-.94-1.28-.38-.37-.77-.67-1.19-.91-.52-.3-.99-.48-1.4-.54-.41-.06-.75-.03-1.03.09-.28.13-.49.32-.64.59-.18.32-.22.63-.12.94.1.31.28.61.55.91.27.3.58.61.92.93.35.32.69.65,1.03.99.34.34.62.7.85,1.07.23.37.36.76.39,1.18.03.42-.09.86-.36,1.33s-.63.8-1.11,1.05c-.48.24-1.05.33-1.73.26-.67-.07-1.41-.34-2.23-.8Z"/>
          <path class="cls-1" d="m64.23,68.09l5.27-9.21,1.33.76-5.27,9.21-1.33-.76Z"/>
          <path class="cls-1" d="m79.67,70.73l1.27.73-2.01,3.51c-.67.11-1.38.09-2.1-.07-.73-.16-1.41-.42-2.07-.8-.72-.41-1.31-.9-1.78-1.47-.47-.57-.81-1.19-1.01-1.86-.2-.67-.27-1.35-.2-2.05.07-.7.3-1.38.68-2.05s.86-1.21,1.42-1.63c.57-.42,1.19-.7,1.88-.87.68-.16,1.39-.18,2.12-.07.73.12,1.46.38,2.19.8s1.34.92,1.82,1.5c.48.58.8,1.22.96,1.93l-1.28.33c-.17-.58-.44-1.08-.79-1.5-.35-.42-.79-.78-1.31-1.08s-1.07-.5-1.63-.59c-.55-.09-1.08-.07-1.59.05-.51.12-.97.34-1.4.66-.42.32-.78.73-1.06,1.23s-.45,1-.51,1.53c-.06.53-.02,1.04.14,1.55.15.5.41.97.76,1.4.35.43.8.8,1.33,1.1.5.28,1.01.48,1.56.59.31.06.63.09.96.07l1.67-2.93Z"/>
          <polygon class="cls-1" points="96.36 74.23 91.1 83.44 90 82.82 88.31 72.74 84.39 79.61 83.05 78.85 88.32 69.63 89.41 70.26 91.1 80.33 95.03 73.46 96.36 74.23"/>
        </g>
      </g>
    </g>
  </g>
</svg>