<?xml version="1.0" encoding="UTF-8"?>
<svg id="Capa_2" data-name="Capa 2" xmlns="http://www.w3.org/2000/svg" viewBox="0 0 233.45 291.6">
  <defs>
    <style>
      .cls-1 {
        fill: #fff;
      }
    </style>
  </defs>
  <g id="Capa_1-2" data-name="Capa 1">
    <g>
      <g>
        <ellipse class="cls-1" cx="116.8" cy="116.64" rx="29.16" ry="29.15"/>
        <rect class="cls-1" x="113.2" y="0" width="7.19" height="81.79" rx="1.1" ry="1.1"/>
        <rect class="cls-1" x="113.2" y="151.5" width="7.19" height="22.47" rx="1.1" ry="1.1" transform="translate(233.6 325.46) rotate(-180)"/>
        <rect class="cls-1" x="145.79" y="138" width="7.19" height="22.47" rx="1.1" ry="1.1" transform="translate(360.54 149.12) rotate(135)"/>
        <rect class="cls-1" x="80.62" y="138" width="7.19" height="22.47" rx="1.1" ry="1.1" transform="translate(38.24 314.3) rotate(-135)"/>
        <rect class="cls-1" x="159.29" y="105.41" width="7.19" height="22.47" rx="1.1" ry="1.1" transform="translate(279.53 -46.24) rotate(90)"/>
        <rect class="cls-1" x="145.79" y="72.82" width="7.19" height="22.47" rx="1.1" ry="1.1" transform="translate(103.19 -81.01) rotate(45)"/>
        <rect class="cls-1" x="67.12" y="105.41" width="7.19" height="22.47" rx="1.1" ry="1.1" transform="translate(-45.93 187.36) rotate(-90)"/>
        <rect class="cls-1" x="80.62" y="72.82" width="7.19" height="22.47" rx="1.1" ry="1.1" transform="translate(-34.77 84.17) rotate(-45)"/>
        <path class="cls-1" d="m231.09,111.04h-21.99c-1.64,0-3.27-.17-4.86-.57-3.84-.97-8.29-3.27-11.02-8.56-.64-1.24-1.08-2.57-1.42-3.92-7.23-29.18-31.05-51.8-60.88-57.3-.74-.14-1.42.44-1.42,1.2v12.17c0,.57.4,1.06.96,1.19,28.76,6.35,50.12,32.4,49.22,63.27-.96,32.98-29.39,60.75-62.39,60.99-34.93.25-63.32-27.99-63.32-62.87,0-30.02,21.05-55.13,49.19-61.38.56-.12.96-.61.96-1.19v-12.16c0-.76-.69-1.35-1.44-1.21-29.78,5.52-53.56,28.12-60.8,57.25-.19.76-.41,1.51-.7,2.24-2.59,6.48-7.52,9.18-11.74,10.26-1.61.41-3.28.59-4.94.59H2.37c-1.31,0-2.37,1.08-2.37,2.41v6.41c0,1.33,1.06,2.41,2.37,2.41h22.61c.92,0,1.84.06,2.75.21,4.33.73,10.02,3.02,13.08,9.73.46,1,.78,2.06,1.05,3.13,8.33,33.75,38.73,58.6,75.13,58.53,36.15-.08,66.46-24.98,74.8-58.57.33-1.33.77-2.64,1.39-3.86,2.58-5.03,6.71-7.38,10.41-8.44,1.79-.51,3.65-.73,5.52-.73h.09s21.9,0,21.9,0c1.31,0,2.37-1.08,2.37-2.41v-6.41c0-1.33-1.06-2.41-2.37-2.41Z"/>
      </g>
      <g>
        <path class="cls-1" d="m49.31,206.72v37.16c0,4.04-3.28,7.33-7.33,7.33-2.02,0-3.86-.82-5.18-2.15-1.32-1.32-2.14-3.16-2.14-5.18v-12.88H14.74v12.88c0,4.04-3.28,7.33-7.33,7.33S.09,247.93.09,243.88v-37.16c0-4.04,3.28-7.33,7.33-7.33,2.02,0,3.86.82,5.18,2.15,1.32,1.32,2.15,3.16,2.15,5.18v12.14h19.91v-12.14c0-4.04,3.28-7.33,7.33-7.33s7.33,3.28,7.33,7.33Z"/>
        <path class="cls-1" d="m91.19,252.25c-4.1,0-7.91-.67-11.44-2-3.53-1.33-6.58-3.22-9.14-5.66-2.57-2.44-4.58-5.3-6.03-8.59-1.46-3.28-2.18-6.87-2.18-10.77s.73-7.4,2.18-10.66c1.45-3.26,3.47-6.11,6.03-8.55,2.57-2.44,5.6-4.33,9.1-5.66,3.5-1.33,7.33-2,11.47-2s7.97.67,11.47,2c3.5,1.33,6.54,3.21,9.1,5.63,2.56,2.42,4.58,5.25,6.03,8.51,1.45,3.26,2.18,6.83,2.18,10.73s-.72,7.56-2.15,10.84c-1.43,3.28-3.44,6.13-6.03,8.55-2.59,2.42-5.64,4.29-9.14,5.63-3.5,1.33-7.33,2-11.47,2Zm0-12.14c1.97,0,3.81-.34,5.51-1.04,1.7-.69,3.18-1.69,4.44-3,1.26-1.31,2.24-2.86,2.96-4.66.71-1.8,1.07-3.84,1.07-6.11s-.36-4.3-1.07-6.11c-.72-1.8-1.7-3.36-2.96-4.66-1.26-1.31-2.74-2.31-4.44-3-1.7-.69-3.54-1.04-5.51-1.04s-3.81.35-5.51,1.04c-1.7.69-3.2,1.69-4.48,3-1.28,1.31-2.27,2.86-2.96,4.66-.69,1.8-1.04,3.84-1.04,6.11s.34,4.31,1.04,6.11c.69,1.8,1.68,3.36,2.96,4.66,1.28,1.31,2.78,2.31,4.48,3,1.7.69,3.54,1.04,5.51,1.04Z"/>
        <path class="cls-1" d="m176.92,208.32c-1.85-2.89-4.5-5.09-7.96-6.63-3.45-1.53-7.55-2.29-12.29-2.29h-16.28c-4.05,0-7.33,3.28-7.33,7.33v37.15c0,2.02.82,3.86,2.15,5.18,1.32,1.32,3.16,2.15,5.18,2.15,4.04,0,7.33-3.28,7.33-7.33v-6.22h8.95c4.74,0,8.83-.78,12.29-2.33,3.45-1.56,6.11-3.75,7.96-6.59,1.85-2.83,2.78-6.25,2.78-10.25s-.92-7.29-2.78-10.18Zm-14.25,15.76c-1.53,1.31-3.82,1.96-6.88,1.96h-8.07v-15.1h8.07c3.06,0,5.35.68,6.88,2.04,1.53,1.36,2.3,3.19,2.3,5.51s-.77,4.28-2.3,5.59Z"/>
        <path class="cls-1" d="m233.35,245.77c.24,3.17-2.22,5.97-5.44,5.96h-29.68c-3,0-5.44-2.44-5.44-5.44v-40.91c0-3.01,2.45-5.45,5.46-5.45h29.66c3.22-.02,5.69,2.78,5.44,5.96,0,3-2.43,5.44-5.44,5.44h-18.76c-1.06,0-1.93.86-1.93,1.93v6.22h17.81c3.33,0,6.2,2.35,6.25,5.35.05,3.05-2.67,5.53-6.04,5.53h-18.02v8.07c0,1.06.86,1.92,1.93,1.92h18.76c3,0,5.44,2.44,5.44,5.44Z"/>
      </g>
      <g>
        <path class="cls-1" d="m.09,291.6v-34.87h14.81c3.75,0,7.06.73,9.92,2.19,2.86,1.46,5.09,3.5,6.68,6.13,1.59,2.62,2.39,5.66,2.39,9.12s-.8,6.49-2.39,9.12c-1.59,2.62-3.82,4.67-6.68,6.13-2.86,1.46-6.17,2.19-9.92,2.19H.09Zm5.02-4.33h9.49c2.91,0,5.43-.55,7.56-1.64,2.13-1.1,3.77-2.63,4.95-4.61,1.17-1.98,1.76-4.26,1.76-6.85s-.59-4.91-1.76-6.87c-1.17-1.96-2.82-3.49-4.95-4.58-2.13-1.1-4.65-1.64-7.56-1.64H5.11v26.2Z"/>
        <polygon class="cls-1" points="75.52 287.27 75.52 291.6 50.01 291.6 50.01 256.73 74.82 256.73 74.82 261.06 55.03 261.06 55.03 271.77 72.65 271.77 72.65 276.01 55.03 276.01 55.03 287.27 75.52 287.27"/>
        <path class="cls-1" d="m102.33,291.6c-2.68,0-5.24-.4-7.68-1.19-2.44-.79-4.37-1.83-5.78-3.09l1.86-3.8c1.34,1.14,3.05,2.08,5.12,2.82,2.08.75,4.23,1.12,6.48,1.12,2.04,0,3.7-.23,4.97-.68,1.27-.45,2.21-1.08,2.81-1.87.6-.8.9-1.7.9-2.7,0-1.17-.39-2.11-1.18-2.82-.79-.71-1.81-1.29-3.06-1.73-1.26-.44-2.64-.82-4.14-1.14-1.51-.32-3.02-.71-4.54-1.14-1.52-.44-2.91-1-4.17-1.68-1.26-.68-2.27-1.6-3.04-2.75-.77-1.15-1.16-2.64-1.16-4.46s.48-3.37,1.43-4.85c.95-1.48,2.43-2.66,4.42-3.55,1.99-.89,4.53-1.34,7.61-1.34,2.04,0,4.07.26,6.08.78,2.01.52,3.75,1.27,5.22,2.24l-1.66,3.9c-1.51-.97-3.1-1.68-4.77-2.12-1.67-.44-3.3-.66-4.87-.66-1.98,0-3.6.24-4.87.73-1.27.49-2.2,1.14-2.79,1.95-.59.81-.88,1.72-.88,2.73,0,1.2.39,2.16,1.18,2.87.79.71,1.81,1.28,3.06,1.7,1.26.42,2.64.8,4.14,1.14,1.51.34,3.02.72,4.54,1.14,1.52.42,2.91.97,4.17,1.66,1.26.68,2.27,1.59,3.04,2.73.77,1.14,1.16,2.6,1.16,4.38s-.49,3.32-1.46,4.8c-.97,1.48-2.47,2.66-4.49,3.55-2.03.89-4.58,1.34-7.66,1.34Z"/>
        <path class="cls-1" d="m131.71,291.59v-34.86h5.02v34.86h-5.02Z"/>
        <path class="cls-1" d="m180.07,273.97h4.82v13.3c-1.74,1.43-3.77,2.5-6.1,3.24-2.33.73-4.73,1.1-7.21,1.1-2.71,0-5.21-.43-7.48-1.29-2.27-.86-4.25-2.08-5.92-3.65-1.67-1.58-2.98-3.42-3.92-5.53-.94-2.11-1.4-4.43-1.4-6.96s.47-4.85,1.4-6.97c.94-2.11,2.25-3.95,3.94-5.53,1.69-1.57,3.68-2.79,5.95-3.65,2.28-.86,4.79-1.29,7.53-1.29s5.33.44,7.63,1.32c2.31.87,4.27,2.19,5.88,3.94l-3.11,3.02c-1.44-1.36-3.01-2.36-4.69-2.99-1.69-.63-3.53-.95-5.5-.95s-3.88.32-5.6.97c-1.72.65-3.21,1.56-4.47,2.73-1.25,1.17-2.23,2.55-2.91,4.16-.69,1.61-1.03,3.35-1.03,5.24s.34,3.58,1.03,5.18c.69,1.61,1.66,3,2.91,4.19,1.26,1.18,2.74,2.1,4.45,2.75,1.71.65,3.57.97,5.57.97,1.87,0,3.67-.28,5.4-.85.99-.32,1.93-.78,2.84-1.36v-11.08Z"/>
        <polygon class="cls-1" points="233.36 256.73 233.36 291.6 229.22 291.6 207.98 265.62 207.98 291.6 202.92 291.6 202.92 256.73 207.07 256.73 228.31 282.71 228.31 256.73 233.36 256.73"/>
      </g>
    </g>
  </g>
</svg>