<?xml version="1.0" encoding="UTF-8"?>
<svg id="Capa_2" data-name="Capa 2" xmlns="http://www.w3.org/2000/svg" viewBox="0 0 239.05 187.33">
  <defs>
    <style>
      .cls-1 {
        fill: #fff;
      }

      .cls-2 {
        fill: #4c4c4c;
      }

      .cls-3 {
        fill: #232323;
      }
    </style>
  </defs>
  <g id="Capa_5" data-name="Capa 5">
    <path class="cls-3" d="m12.75,0c12.31,18.81,28.39,41.92,49.9,62.25,63.63,60.15,137.03,80.91,176.41,88.7v13.53c-24-.83-56.14-4.89-89.94-17.68C61.99,113.83,15.94,44.58,0,17.57c2.32-3.09,4.39-5.96,6.71-9.14,1.67-2.28,4.41-6.16,6.03-8.43Z"/>
    <g>
      <rect class="cls-3" x="81.94" y="41.47" width="88.28" height="150.94" rx="23.01" ry="23.01" transform="translate(-42 153.27) rotate(-55.04)"/>
      <rect class="cls-2" x="95.95" y="55.18" width="60.26" height="123.52" rx="17.69" ry="17.69" transform="translate(-42 153.27) rotate(-55.04)"/>
      <g>
        <g>
          <circle class="cls-1" cx="98.41" cy="100.85" r="5.77" transform="translate(-40.63 123.72) rotate(-55.04)"/>
          <rect class="cls-1" x="106.29" y="80.48" width="1.42" height="16.18" rx=".53" ry=".53" transform="translate(70.05 -45.33) rotate(34.96)"/>
          <rect class="cls-1" x="92.48" y="106.1" width="1.42" height="4.44" rx=".53" ry=".53" transform="translate(107.5 250.49) rotate(-145.04)"/>
          <rect class="cls-1" x="99.29" y="107.6" width="1.42" height="4.44" rx=".53" ry=".53" transform="translate(217.62 200.53) rotate(169.96)"/>
          <rect class="cls-1" x="88.72" y="100.21" width="1.42" height="4.44" rx=".53" ry=".53" transform="translate(4.16 208.36) rotate(-100.04)"/>
          <rect class="cls-1" x="105.17" y="103.85" width="1.42" height="4.44" rx=".53" ry=".53" transform="translate(253.49 80.07) rotate(124.96)"/>
          <rect class="cls-1" x="106.68" y="97.04" width="1.42" height="4.44" rx=".53" ry=".53" transform="translate(186.4 -23.79) rotate(79.96)"/>
          <rect class="cls-1" x="90.23" y="93.4" width="1.42" height="4.44" rx=".53" ry=".53" transform="translate(-39.54 115.36) rotate(-55.04)"/>
          <rect class="cls-1" x="96.11" y="89.65" width="1.42" height="4.44" rx=".53" ry=".53" transform="translate(-14.54 18.29) rotate(-10.04)"/>
          <path class="cls-1" d="m117.58,112.89l-3.57-2.49c-.27-.19-.51-.4-.72-.64-.51-.59-.97-1.47-.82-2.64.04-.27.12-.54.21-.8,2.13-5.55.84-11.92-3.37-16.19-.1-.11-.28-.09-.37.03l-1.38,1.97c-.06.09-.06.22.02.3,3.94,4.29,4.45,10.93.81,15.84-3.89,5.24-11.65,6.52-17.03,2.82-5.69-3.92-7.09-11.72-3.14-17.37,3.4-4.87,9.66-6.55,14.93-4.38.1.04.23,0,.29-.08l1.38-1.97c.09-.12.04-.3-.1-.36-5.45-2.48-11.87-1.51-16.35,2.39-.12.1-.24.2-.37.28-1.16.76-2.26.63-3.07.33-.31-.12-.6-.28-.87-.47l-3.59-2.51c-.21-.15-.51-.09-.66.12l-.73,1.04c-.15.22-.1.51.11.66l3.57,2.5.09.06c.15.1.29.22.42.35.62.61,1.28,1.63,1.02,3.06-.04.21-.11.42-.18.63-2.48,6.42-.36,13.89,5.55,18.01,5.87,4.09,13.61,3.48,18.77-1.02.2-.18.42-.34.66-.47.99-.52,1.92-.44,2.64-.19.35.12.68.3.98.51h.01s3.55,2.49,3.55,2.49c.21.15.51.09.66-.12l.73-1.04c.15-.22.1-.51-.11-.66Z"/>
        </g>
        <g>
          <path class="cls-1" d="m135.24,113.81l-5.09,7.27c-.55.79-1.65.99-2.44.43-.4-.28-.64-.69-.72-1.13-.08-.44.01-.91.29-1.31l1.76-2.52-3.9-2.72-1.76,2.52c-.55.79-1.65.99-2.44.43s-.99-1.65-.43-2.44l5.09-7.27c.55-.79,1.64-.99,2.44-.43.4.28.64.69.72,1.13.08.44-.01.91-.29,1.31l-1.66,2.38,3.9,2.72,1.66-2.38c.55-.79,1.64-.99,2.44-.43s.99,1.65.43,2.44Z"/>
          <path class="cls-1" d="m137.21,128.45c-.8-.56-1.46-1.21-1.96-1.96-.51-.74-.85-1.53-1.01-2.36-.17-.83-.17-1.66,0-2.51.16-.84.51-1.64,1.05-2.41s1.16-1.35,1.89-1.79c.73-.44,1.51-.72,2.35-.85.84-.13,1.69-.08,2.56.14.87.22,1.71.61,2.52,1.18s1.47,1.22,1.97,1.96c.5.74.84,1.52,1.01,2.35.17.82.18,1.65.02,2.49-.16.84-.51,1.64-1.04,2.4s-1.18,1.38-1.9,1.83c-.73.45-1.51.73-2.35.85-.84.12-1.69.07-2.56-.15-.87-.22-1.71-.61-2.52-1.18Zm1.66-2.38c.39.27.79.45,1.22.55.43.1.85.1,1.28.02.43-.08.83-.25,1.22-.51.39-.25.74-.6,1.05-1.05s.52-.89.63-1.34c.11-.45.13-.89.06-1.32-.07-.43-.22-.83-.46-1.19-.24-.37-.55-.69-.94-.96s-.79-.45-1.22-.55c-.43-.1-.86-.11-1.29-.03-.43.08-.84.25-1.22.51-.38.26-.73.61-1.04,1.05s-.52.89-.63,1.34c-.11.45-.13.89-.06,1.32.07.43.23.83.47,1.2.24.37.55.69.94.96Z"/>
          <path class="cls-1" d="m160.01,131.59c.03-.82-.18-1.61-.65-2.39-.47-.77-1.16-1.48-2.09-2.13l-3.19-2.23c-.79-.55-1.88-.36-2.44.43l-5.08,7.27c-.28.4-.37.87-.29,1.31.08.44.32.85.72,1.13.79.55,1.88.36,2.44-.43l.85-1.22,1.75,1.23c.93.65,1.84,1.06,2.72,1.22.89.17,1.71.1,2.46-.2.75-.3,1.4-.84,1.95-1.63.53-.76.82-1.55.85-2.37Zm-4.95,1.14c-.48.05-1.02-.14-1.62-.56l-1.58-1.1,2.07-2.96,1.58,1.1c.6.42.96.87,1.07,1.34.11.48.01.94-.3,1.39s-.74.73-1.21.78Z"/>
          <path class="cls-1" d="m165.93,146.64c-.39.65-1.25.87-1.88.42l-5.81-4.06c-.59-.41-.73-1.22-.32-1.81l5.6-8.01c.41-.59,1.23-.73,1.82-.32l5.81,4.06c.63.44.73,1.32.25,1.91-.41.59-1.22.73-1.81.32l-3.67-2.57c-.21-.15-.49-.09-.64.11l-.85,1.22,3.49,2.44c.65.46.89,1.31.49,1.9-.41.6-1.28.72-1.94.26l-3.53-2.47-1.1,1.58c-.15.21-.09.49.11.64l3.67,2.57c.59.41.73,1.22.32,1.81Z"/>
        </g>
        <g>
          <path class="cls-1" d="m113.99,123.69l4.77-6.83,2.9,2.03c.73.51,1.28,1.11,1.64,1.79.36.68.52,1.38.47,2.11-.05.73-.31,1.43-.78,2.11s-1.04,1.16-1.71,1.46c-.67.3-1.39.39-2.15.29-.76-.11-1.51-.42-2.24-.93l-2.9-2.03Zm1.58-.16l1.86,1.3c.57.4,1.14.64,1.7.71.57.08,1.1,0,1.6-.22.5-.23.93-.59,1.28-1.1s.56-1.04.6-1.59c.04-.54-.08-1.07-.34-1.57-.27-.51-.68-.96-1.25-1.36l-1.86-1.3-3.59,5.13Z"/>
          <polygon class="cls-1" points="129.35 133.16 128.76 134.01 123.77 130.52 128.54 123.7 133.39 127.09 132.8 127.94 128.93 125.23 127.46 127.33 130.91 129.74 130.33 130.57 126.88 128.16 125.34 130.36 129.35 133.16"/>
          <path class="cls-1" d="m134.01,137.68c-.52-.37-.97-.79-1.34-1.29-.37-.49-.61-.96-.71-1.4l.88-.49c.11.41.31.82.62,1.25.3.43.68.8,1.11,1.11.4.28.76.46,1.07.55.31.09.58.09.81.02.23-.07.41-.21.55-.41.16-.23.21-.47.16-.71-.06-.25-.18-.5-.36-.76-.19-.26-.4-.52-.65-.79-.25-.27-.49-.55-.73-.85-.24-.29-.43-.59-.59-.9-.15-.31-.23-.62-.22-.95,0-.33.13-.67.38-1.03s.55-.59.94-.75c.39-.16.84-.19,1.35-.09.51.1,1.07.36,1.67.78.4.28.76.61,1.08.98.32.38.56.76.72,1.15l-.86.54c-.16-.4-.38-.75-.64-1.07-.27-.31-.56-.58-.86-.8-.39-.27-.74-.44-1.05-.52-.32-.08-.59-.08-.81,0-.23.08-.41.22-.55.41-.16.24-.22.48-.16.72.06.25.18.5.37.75.19.25.41.52.65.79.25.27.49.55.73.85.24.29.44.59.59.89.15.31.23.62.22.95,0,.33-.13.67-.37,1.02s-.55.58-.94.74c-.39.16-.85.18-1.37.08-.52-.1-1.08-.36-1.68-.79Z"/>
          <path class="cls-1" d="m139.76,141.7l4.77-6.82.98.69-4.77,6.82-.98-.69Z"/>
          <path class="cls-1" d="m151.64,144.87l.94.66-1.82,2.6c-.54.04-1.08-.03-1.64-.2-.56-.18-1.08-.43-1.56-.77-.53-.37-.96-.8-1.29-1.28-.33-.48-.55-.99-.66-1.53-.11-.54-.12-1.08-.01-1.62.1-.54.33-1.06.68-1.55s.76-.89,1.23-1.17c.47-.29.98-.47,1.53-.54.55-.08,1.1-.04,1.66.1.56.14,1.11.4,1.65.78s.98.81,1.31,1.3c.33.49.54,1.01.61,1.58l-1.02.16c-.1-.46-.27-.87-.51-1.23-.24-.35-.56-.67-.95-.94s-.8-.47-1.23-.58c-.43-.11-.84-.13-1.25-.08-.41.06-.79.2-1.14.42-.35.22-.66.52-.92.88s-.42.75-.51,1.16c-.09.41-.09.81,0,1.22.08.4.25.79.49,1.15.25.36.56.68.96.95.37.26.76.45,1.17.57.24.07.48.11.74.12l1.52-2.17Z"/>
          <polygon class="cls-1" points="164.43 148.79 159.66 155.61 158.85 155.05 158.24 147.05 154.69 152.14 153.7 151.45 158.47 144.62 159.28 145.19 159.88 153.18 163.44 148.1 164.43 148.79"/>
        </g>
      </g>
    </g>
  </g>
</svg>