<?xml version="1.0" encoding="UTF-8"?>
<svg id="Capa_2" data-name="Capa 2" xmlns="http://www.w3.org/2000/svg" xmlns:xlink="http://www.w3.org/1999/xlink" viewBox="0 0 493.3 167.9">
  <defs>
    <style>
      .cls-1 {
        fill: #fff;
      }

      .cls-2 {
        fill: #00590d;
      }

      .cls-3 {
        fill: #232323;
      }

      .cls-4 {
        fill: #00c129;
      }

      .cls-5 {
        font-family: Myriad-Roman, 'Myriad Roman';
        font-size: 12px;
        isolation: isolate;
      }

      .cls-6 {
        stroke: #000;
        stroke-miterlimit: 10;
        stroke-width: .25px;
      }

      .cls-6, .cls-7 {
        fill: none;
      }

      .cls-8 {
        fill: #fff800;
      }

      .cls-9 {
        fill: #424242;
      }

      .cls-10 {
        clip-path: url(#clippath);
      }

      .cls-11 {
        fill: #515151;
      }

      .cls-12 {
        fill: #007f18;
      }

      .cls-13 {
        fill: red;
      }

      .cls-14 {
        fill: #c4c4c4;
      }

      .cls-15 {
        fill: #f7c592;
      }
    </style>
    <clipPath id="clippath">
      <path class="cls-7" d="m493.2,167.9H0V0h493.3v167.9h-.1Z"/>
    </clipPath>
  </defs>
  <g id="Capa_2-2" data-name="Capa 2">
    <g class="cls-10">
      <g>
        <g>
          <path class="cls-12" d="m334.2-81.5c-17.5,23.7-189.7,191.6-201.2,202.9-10.2,10.1-23.8,16-38.1,16.4-9.6.2-17.8-1.2-24.7-3.7-28.8-10.5-34.8-48.7-11-68,43-34.8,98.2-113.8,98.2-113.8"/>
          <path class="cls-15" d="m133,121.4c-10.2,10-23.8,16-38.1,16.4-9.6.2-17.8-1.2-24.7-3.7-28.8-10.5-34.8-48.7-11-68,1.4-1.1,2.7-2.2,4.1-3.4,7.1,9.6,17.1,21.2,30.5,32.7,14.3,12.1,28.1,20.4,39.2,26h0Z"/>
          <path class="cls-2" d="m79,48c1.5,3.6,3.9,9.1,7.8,15.3,4.4,6.9,10.6,14.8,19.4,21.9,17,14,34.6,18.2,42.7,19.6l-15.9,16.6c-11.1-5.6-24.9-13.9-39.2-26.1-13.4-11.5-23.4-23.1-30.5-32.7,2.9-2.5,5.9-5.1,8.9-8,2.4-2.2,4.6-4.4,6.8-6.6Z"/>
          <g>
            <line class="cls-7" x1="89.1" y1="66.8" x2="76" y2="77.9"/>
            <line class="cls-7" x1="97.6" y1="77.2" x2="85.4" y2="87.6"/>
            <line class="cls-7" x1="107.6" y1="86.4" x2="95.5" y2="96.7"/>
            <line class="cls-7" x1="118" y1="93.5" x2="106" y2="104.8"/>
            <line class="cls-7" x1="132" y1="100.2" x2="119.2" y2="113.7"/>
          </g>
        </g>
        <g>
          <path class="cls-12" d="m202.6-83.3c17.5,23.7,189.7,191.6,201.2,202.9,10.2,10,23.8,16,38.1,16.4,9.6.2,17.8-1.2,24.7-3.7,28.8-10.5,34.8-48.7,11-68-42.9-34.7-97.7-114.1-97.7-114.1"/>
          <path class="cls-15" d="m403.8,119.6c10.2,10.1,23.8,16,38.1,16.4,9.6.2,17.8-1.2,24.7-3.7,28.8-10.5,34.8-48.7,11-68-1.4-1.1-2.7-2.2-4.1-3.4-7.1,9.6-17.1,21.2-30.5,32.7-14.3,12.1-28.1,20.4-39.2,26h0Z"/>
          <path class="cls-2" d="m457.8,46.2c-1.5,3.6-3.9,9.1-7.8,15.3-4.4,6.9-10.6,14.8-19.4,21.9-17,14-34.6,18.2-42.8,19.6l15.9,16.6c11.1-5.6,24.9-13.9,39.2-26.1,13.4-11.5,23.4-23.1,30.5-32.7-2.9-2.5-5.9-5.1-8.9-8-2.3-2.2-4.5-4.4-6.7-6.6Z"/>
          <g>
            <line class="cls-7" x1="447.7" y1="65.1" x2="460.8" y2="76.1"/>
            <line class="cls-7" x1="439.2" y1="75.5" x2="451.4" y2="85.9"/>
            <line class="cls-7" x1="429.2" y1="84.6" x2="441.3" y2="94.9"/>
            <line class="cls-7" x1="418.8" y1="91.7" x2="430.8" y2="103.1"/>
            <line class="cls-7" x1="404.8" y1="98.4" x2="417.6" y2="111.9"/>
          </g>
        </g>
        <path class="cls-12" d="m382.5,144.1c-21.7,9.7-61.4,24-113,24.1-51.8,0-91.6-14.4-113.3-24.1V-53.3h226.3v197.4Z"/>
        <path class="cls-9" d="m196.5-21.1c4.3,8.9,8.3,18.7,11.4,29.4,18.7,63.1.3,120.7-12,150.1,18,4.9,42.7,9.8,72.4,9.9,30.3.1,55.6-4.8,73.8-9.7-11.1-28-28.7-84.7-10.1-147.5,3.8-12.7,8.5-24,13.7-34.1-15.3,6.7-42.5,16.2-77.6,16.1-31.7-.2-56.7-8.2-71.6-14.2h0Z"/>
        <g>
          <g>
            <circle class="cls-1" cx="268.4" cy="56.9" r="8.9"/>
            <path class="cls-1" d="m268.4,21.4h0c.6,0,1.1.5,1.1,1.1v22.7c0,.6-.5,1.1-1.1,1.1h0c-.6,0-1.1-.5-1.1-1.1v-22.7c0-.6.5-1.1,1.1-1.1Z"/>
            <path class="cls-1" d="m268.4,74.3h0c-.6,0-1.1-.5-1.1-1.1v-4.6c0-.6.5-1.1,1.1-1.1h0c.6,0,1.1.5,1.1,1.1v4.6c0,.6-.5,1.1-1.1,1.1Z"/>
            <path class="cls-1" d="m280.7,69.2h0c-.4.4-1.1.4-1.6,0l-3.3-3.3c-.4-.4-.4-1.1,0-1.6h0c.4-.4,1.1-.4,1.6,0l3.3,3.3c.5.5.5,1.2,0,1.6Z"/>
            <path class="cls-1" d="m256.1,69.2h0c-.4-.4-.4-1.1,0-1.6l3.3-3.3c.4-.4,1.1-.4,1.6,0h0c.4.4.4,1.1,0,1.6l-3.3,3.3c-.5.4-1.2.5-1.6,0Z"/>
            <path class="cls-1" d="m285.9,56.9h0c0,.6-.5,1.1-1.1,1.1h-4.6c-.6,0-1.1-.5-1.1-1.1h0c0-.6.5-1.1,1.1-1.1h4.6c.6,0,1.1.5,1.1,1.1Z"/>
            <path class="cls-1" d="m280.7,44.5h0c.4.4.4,1.1,0,1.6l-3.3,3.3c-.4.4-1.1.4-1.6,0h0c-.4-.4-.4-1.1,0-1.6l3.3-3.3c.5-.4,1.2-.4,1.6,0Z"/>
            <path class="cls-1" d="m251,56.9h0c0-.6.5-1.1,1.1-1.1h4.6c.6,0,1.1.5,1.1,1.1h0c0,.6-.5,1.1-1.1,1.1h-4.6c-.7,0-1.1-.5-1.1-1.1Z"/>
            <path class="cls-1" d="m256.1,44.5h0c.4-.4,1.1-.4,1.6,0l3.3,3.3c.4.4.4,1.1,0,1.6h0c-.4.4-1.1.4-1.6,0l-3.3-3.3c-.5-.4-.5-1.1,0-1.6Z"/>
            <path class="cls-1" d="m303.2,55.2h-6.7c-.5,0-1-.1-1.5-.2-1.2-.3-2.5-1-3.4-2.6-.2-.4-.3-.8-.4-1.2-2.2-8.9-9.5-15.8-18.5-17.4-.2,0-.4.1-.4.4v3.7c0,.2.1.3.3.4,8.8,1.9,15.3,9.9,15,19.3-.3,10-9,18.5-19,18.6-10.6.1-19.3-8.5-19.3-19.1,0-9.1,6.4-16.8,15-18.7.2,0,.3-.2.3-.4v-3.7c0-.2-.2-.4-.4-.4-9.1,1.7-16.3,8.6-18.5,17.4-.1.2-.1.5-.2.7-.8,2-2.3,2.8-3.6,3.1-.5.1-1,.2-1.5.2h-6.7c-.4,0-.7.3-.7.7v1.9c0,.4.3.7.7.7h6.9c.3,0,.6,0,.8.1,1.3.2,3.1.9,4,3,.1.3.2.6.3.9,2.5,10.3,11.8,17.8,22.9,17.8s20.2-7.6,22.8-17.8c.1-.4.2-.8.4-1.2.8-1.5,2-2.2,3.2-2.6.5-.2,1.1-.2,1.7-.2h6.7c.4,0,.7-.3.7-.7v-1.9c-.2-.5-.5-.8-.9-.8h0Z"/>
          </g>
          <g>
            <path class="cls-1" d="m247.9,84.3v11.3c0,1.2-1,2.2-2.2,2.2-.6,0-1.2-.2-1.6-.7-.4-.4-.7-1-.7-1.6v-3.9h-6.1v3.9c0,1.2-1,2.2-2.2,2.2s-2.2-1-2.2-2.2v-11.2c0-1.2,1-2.2,2.2-2.2.6,0,1.2.2,1.6.7.4.4.6,1,.6,1.6v3.7h6.1v-3.7c0-1.2,1-2.2,2.2-2.2s2.3.9,2.3,2.1Z"/>
            <path class="cls-1" d="m260.6,98.2c-1.2,0-2.4-.2-3.5-.6s-2-1-2.8-1.7-1.4-1.6-1.8-2.6-.7-2.1-.7-3.3.2-2.2.7-3.2,1.1-1.9,1.8-2.6,1.7-1.3,2.8-1.7c1.1-.4,2.2-.6,3.5-.6s2.4.2,3.5.6,2,1,2.8,1.7,1.4,1.6,1.8,2.6.7,2.1.7,3.3-.2,2.3-.6,3.3-1,1.9-1.8,2.6-1.7,1.3-2.8,1.7c-1.2.3-2.3.5-3.6.5h0Zm0-3.7c.6,0,1.2-.1,1.7-.3.5-.2,1-.5,1.4-.9s.7-.9.9-1.4c.2-.6.3-1.2.3-1.9s-.1-1.3-.3-1.9-.5-1-.9-1.4-.8-.7-1.4-.9c-.5-.2-1.1-.3-1.7-.3s-1.2.1-1.7.3-1,.5-1.4.9-.7.9-.9,1.4c-.2.6-.3,1.2-.3,1.9s.1,1.3.3,1.9c.2.6.5,1,.9,1.4s.9.7,1.4.9,1.1.3,1.7.3Z"/>
            <path class="cls-1" d="m286.7,84.8c-.6-.9-1.4-1.6-2.4-2-1-.5-2.3-.7-3.7-.7h-5c-1.2,0-2.2,1-2.2,2.2v11.3c0,.6.2,1.2.6,1.6s1,.7,1.6.7c1.2,0,2.2-1,2.2-2.2v-1.9h2.7c1.4,0,2.7-.2,3.7-.7s1.9-1.1,2.4-2c.6-.9.9-1.9.9-3.1s-.2-2.3-.8-3.2h0Zm-4.3,4.8c-.5.4-1.2.6-2.1.6h-2.5v-4.6h2.5c.9,0,1.6.2,2.1.6s.7,1,.7,1.7-.3,1.3-.7,1.7Z"/>
            <path class="cls-1" d="m303.9,96.2c.1,1-.7,1.8-1.7,1.8h-9c-.9,0-1.7-.7-1.7-1.7v-12.5c0-.9.7-1.7,1.7-1.7h9c1,0,1.7.8,1.7,1.8,0,.9-.7,1.7-1.7,1.7h-5.7c-.3,0-.6.3-.6.6v1.9h5.4c1,0,1.9.7,1.9,1.6s-.8,1.7-1.8,1.7h-5.5v2.5c0,.3.3.6.6.6h5.7c.9,0,1.7.8,1.7,1.7h0Z"/>
          </g>
          <g>
            <path class="cls-1" d="m232.9,110.1v-10.6h4.5c1.1,0,2.2.2,3,.7s1.5,1.1,2,1.9.7,1.7.7,2.8-.2,2-.7,2.8-1.2,1.4-2,1.9c-.9.4-1.9.7-3,.7l-4.5-.2h0Zm1.5-1.3h2.9c.9,0,1.6-.2,2.3-.5.6-.3,1.1-.8,1.5-1.4s.5-1.3.5-2.1-.2-1.5-.5-2.1c-.4-.6-.9-1.1-1.5-1.4s-1.4-.5-2.3-.5h-2.9v8Z"/>
            <polygon class="cls-1" points="255.8 108.8 255.8 110.1 248.1 110.1 248.1 99.5 255.6 99.5 255.6 100.8 249.6 100.8 249.6 104.1 255 104.1 255 105.4 249.6 105.4 249.6 108.8 255.8 108.8"/>
            <path class="cls-1" d="m264,110.1c-.8,0-1.6-.1-2.3-.4s-1.3-.6-1.8-.9l.6-1.2c.4.3.9.6,1.6.9s1.3.3,2,.3c.6,0,1.1-.1,1.5-.2s.7-.3.9-.6c.2-.2.3-.5.3-.8,0-.4-.1-.6-.4-.9s-.5-.4-.9-.5-.8-.2-1.3-.3c-.5-.1-.9-.2-1.4-.3-.5-.1-.9-.3-1.3-.5s-.7-.5-.9-.8-.4-.8-.4-1.4.1-1,.4-1.5c.3-.4.7-.8,1.4-1.1.6-.3,1.4-.4,2.3-.4.6,0,1.2.1,1.9.2.6.2,1.1.4,1.6.7l-.5,1.2c-.5-.3-.9-.5-1.5-.6s-1-.2-1.5-.2c-.6,0-1.1.1-1.5.2-.4.2-.7.3-.9.6-.2.2-.3.5-.3.8,0,.4.1.7.4.9.2.2.5.4.9.5s.8.2,1.3.3c.5.1.9.2,1.4.3s.9.3,1.3.5.7.5.9.8c.2.3.4.8.4,1.3s-.1,1-.4,1.5c-.3.4-.8.8-1.4,1.1-.6.4-1.4.5-2.4.5h0Z"/>
            <path class="cls-1" d="m272.9,110.1v-10.6h1.5v10.6h-1.5Z"/>
            <path class="cls-1" d="m287.7,104.8h1.5v4.1c-.5.4-1.1.8-1.9,1-.7.2-1.4.3-2.2.3s-1.6-.1-2.3-.4c-.7-.3-1.3-.6-1.8-1.1s-.9-1-1.2-1.7c-.3-.6-.4-1.3-.4-2.1s.1-1.5.4-2.1.7-1.2,1.2-1.7,1.1-.8,1.8-1.1,1.5-.4,2.3-.4,1.6.1,2.3.4c.7.3,1.3.7,1.8,1.2l-1,.9c-.4-.4-.9-.7-1.4-.9-.5-.2-1.1-.3-1.7-.3s-1.2.1-1.7.3c-.5.2-1,.5-1.4.8-.4.4-.7.8-.9,1.3-.2.5-.3,1-.3,1.6s.1,1.1.3,1.6c.2.5.5.9.9,1.3s.8.6,1.4.8c.5.2,1.1.3,1.7.3s1.1-.1,1.6-.3c.3-.1.6-.2.9-.4l.1-3.4h0Z"/>
            <polygon class="cls-1" points="303.9 99.5 303.9 110.1 302.6 110.1 296.2 102.2 296.2 110.1 294.6 110.1 294.6 99.5 295.9 99.5 302.4 107.4 302.4 99.5 303.9 99.5"/>
          </g>
        </g>
        <path class="cls-2" d="m192.8-24.1l6.2-3.4s39.7,69.8.3,186.8l-7-1.9c0-.1,36.6-96.4.5-181.5h0Z"/>
        <path class="cls-2" d="m345.9-24.1l-6.2-3.4s-39.7,69.8-.3,186.8l7-2s-36.6-96.3-.5-181.4h0Z"/>
        <path class="cls-3" d="m382.5-46.1c-12.3,18.8-28.4,41.9-49.9,62.2-63.6,60.1-137,80.9-176.4,88.7v13.5c24-.8,56.1-4.9,89.9-17.7C333.2,67.6,379.3-1.6,395.2-28.6c-2.3-3.1-4.4-6-6.7-9.1-1.7-2.3-4.4-6.1-6-8.4h0Z"/>
        <g>
          <circle class="cls-13" cx="251" cy="85.41" r="7.3" transform="translate(126.49 319.49) rotate(-80.78)"/>
          <text class="cls-5" transform="translate(248.17 88.55)"><tspan x="0" y="0">x</tspan></text>
        </g>
        <g>
          <circle class="cls-8" cx="322" cy="41" r="7.3"/>
          <g>
            <circle class="cls-6" cx="322" cy="41" r="2.2"/>
            <circle class="cls-6" cx="322" cy="41" r="3.4"/>
            <circle class="cls-6" cx="322" cy="41" r="4.4"/>
          </g>
        </g>
        <g>
          <g>
            <path class="cls-11" d="m35.7,58.9l93.7,53.6c5.8,3.3,7.8,10.7,4.5,16.5l-16.7,29.3c-3.3,5.8-10.7,7.8-16.5,4.5L7,109.1c-5.8-3.3-7.8-10.7-4.5-16.5l16.7-29.3c3.3-5.7,10.7-7.7,16.5-4.4Z"/>
            <path class="cls-14" d="m42.6,68.6l75,42.9c5.8,3.3,7.8,10.7,4.5,16.5l-11.7,20.5c-3.3,5.8-10.7,7.8-16.5,4.5L18.9,110.1c-5.8-3.3-7.8-10.7-4.5-16.5l11.7-20.5c3.3-5.8,10.7-7.8,16.5-4.5Z"/>
            <circle cx="120.8" cy="140.9" r="2.6"/>
            <ellipse cx="15.39" cy="80.49" rx="3.9" ry="2.6" transform="translate(-62.13 53.91) rotate(-60.25)"/>
          </g>
          <g>
            <g>
              <path class="cls-4" d="m56.2,90.5l-5.6,9.8c-.6,1.1-2,1.4-3,.8-.5-.3-.9-.8-1.1-1.3-.1-.6-.1-1.2.2-1.7l2-3.4-5.3-3-1.9,3.4c-.6,1.1-2,1.4-3,.8-1.1-.6-1.4-2-.8-3l5.6-9.8c.6-1.1,2-1.4,3-.8.5.3.9.8,1,1.3.1.6.1,1.2-.2,1.7l-1.8,3.2,5.3,3,1.8-3.2c.6-1.1,2-1.4,3-.8s1.4,1.9.8,3Z"/>
              <path class="cls-4" d="m60.4,108.9c-1.1-.6-2-1.4-2.7-2.3s-1.2-1.8-1.6-2.9c-.3-1-.4-2.1-.3-3.2.1-1.1.5-2.2,1.1-3.2s1.3-1.8,2.2-2.5c.9-.6,1.8-1.1,2.9-1.3,1.1-.3,2.1-.3,3.3-.1,1.1.2,2.2.6,3.3,1.2s2,1.4,2.7,2.3,1.2,1.8,1.6,2.9c.3,1,.4,2.1.3,3.2s-.5,2.1-1,3.2c-.6,1-1.3,1.9-2.2,2.5-.9.7-1.8,1.1-2.9,1.3s-2.1.3-3.3.1c-1.2-.2-2.3-.6-3.4-1.2h0Zm1.8-3.3c.5.3,1.1.5,1.6.6s1.1,0,1.6-.1c.5-.2,1-.4,1.5-.8s.9-.8,1.2-1.4.6-1.2.6-1.8c.1-.6.1-1.1-.1-1.7s-.4-1-.7-1.5c-.4-.4-.8-.8-1.3-1.1s-1.1-.5-1.6-.6c-.6-.1-1.1,0-1.6.1-.5.2-1,.4-1.5.8-.4.4-.8.9-1.2,1.5s-.6,1.2-.7,1.8c-.1.6-.1,1.1.1,1.7.1.5.4,1,.7,1.5.4.4.9.8,1.4,1h0Z"/>
              <path class="cls-4" d="m89.7,110.2c0-1-.4-2-1.1-2.9-.7-.9-1.7-1.8-2.9-2.5l-4.3-2.5c-1.1-.6-2.4-.2-3,.8l-5.6,9.8c-.3.5-.4,1.1-.2,1.7s.5,1,1,1.3c1.1.6,2.4.2,3-.8l.9-1.6,2.4,1.3c1.2.7,2.4,1.1,3.6,1.2,1.1.1,2.2-.1,3.1-.5s1.7-1.2,2.3-2.3.8-2,.8-3h0Zm-6.2,2c-.6.1-1.3-.1-2.1-.5l-2.1-1.2,2.3-4,2.1,1.2c.8.5,1.3,1,1.5,1.6s.1,1.2-.2,1.8-.9,1-1.5,1.1Z"/>
              <path class="cls-4" d="m98.9,128.6c-.4.9-1.5,1.2-2.3.8l-7.8-4.5c-.8-.4-1.1-1.5-.6-2.3l6.2-10.8c.5-.8,1.5-1.1,2.3-.6l7.8,4.5c.9.5,1.1,1.6.5,2.4-.5.8-1.5,1.1-2.3.6l-5-2.8c-.3-.2-.6-.1-.8.2l-.9,1.6,4.7,2.7c.9.5,1.3,1.6.8,2.4-.4.8-1.5,1.1-2.4.6l-4.8-2.7-1.2,2.1c-.2.3-.1.6.2.8l5,2.8c.8.4,1.1,1.4.6,2.2h0Z"/>
            </g>
            <g>
              <path class="cls-4" d="m30.3,105.5l5.3-9.2,3.9,2.2c1,.6,1.8,1.3,2.3,2.1s.8,1.7.8,2.6-.2,1.9-.8,2.8-1.2,1.6-2,2.1c-.8.4-1.7.7-2.7.6s-2-.3-2.9-.9c.1-.1-3.9-2.3-3.9-2.3Zm2-.4l2.5,1.4c.8.4,1.5.7,2.2.7s1.4-.1,2-.5c.6-.3,1.1-.9,1.5-1.5s.6-1.4.6-2.1-.2-1.3-.6-2c-.4-.6-1-1.1-1.8-1.6l-2.5-1.4-3.9,7h0Z"/>
              <polygon class="cls-4" points="50.9 115.7 50.3 116.9 43.5 113 48.8 103.8 55.4 107.6 54.7 108.7 49.5 105.7 47.9 108.6 52.5 111.2 51.9 112.3 47.2 109.7 45.5 112.6 50.9 115.7"/>
              <path class="cls-4" d="m57.4,120.9c-.7-.4-1.3-.9-1.9-1.5-.5-.6-.9-1.1-1.1-1.7l1.1-.7c.2.5.5,1,.9,1.5s.9.9,1.5,1.3c.5.3,1,.5,1.4.6s.8.1,1-.1.5-.3.7-.6c.2-.3.2-.6.1-.9-.1-.3-.3-.6-.6-.9s-.6-.6-.9-.9c-.3-.3-.7-.6-1-1s-.6-.7-.8-1.1-.4-.8-.4-1.2.1-.9.4-1.3.6-.8,1.1-1.1c.5-.2,1-.3,1.7-.3.7.1,1.4.3,2.2.8.5.3,1,.7,1.5,1.1s.8.9,1,1.4l-1,.8c-.2-.5-.6-.9-.9-1.3-.4-.4-.8-.7-1.2-.9-.5-.3-1-.5-1.4-.5s-.8,0-1,.1c-.3.1-.5.3-.6.6-.2.3-.2.6-.1.9.1.3.3.6.6.9s.6.6.9.9c.4.3.7.7,1,1s.6.7.9,1.1c.2.4.4.8.4,1.2s-.1.9-.4,1.3-.6.8-1.1,1.1c-.5.2-1.1.3-1.7.3-.8-.1-1.5-.4-2.3-.9h0Z"/>
              <path class="cls-4" d="m65.1,125.4l5.3-9.2,1.3.8-5.3,9.2-1.3-.8Z"/>
              <path class="cls-4" d="m80.6,128l1.3.7-2,3.5c-.7.1-1.4.1-2.1-.1-.7-.2-1.4-.4-2.1-.8-.7-.4-1.3-.9-1.8-1.5s-.8-1.2-1-1.9c-.2-.7-.3-1.4-.2-2.1s.3-1.4.7-2.1.9-1.2,1.4-1.6c.6-.4,1.2-.7,1.9-.9.7-.2,1.4-.2,2.1-.1.7.1,1.5.4,2.2.8s1.3.9,1.8,1.5.8,1.2,1,1.9l-1.3.3c-.2-.6-.4-1.1-.8-1.5-.4-.4-.8-.8-1.3-1.1-.5-.3-1.1-.5-1.6-.6-.6-.1-1.1-.1-1.6.1-.5.1-1,.3-1.4.7-.4.3-.8.7-1.1,1.2s-.5,1-.5,1.5c-.1.5,0,1,.1,1.5.2.5.4,1,.8,1.4.4.4.8.8,1.3,1.1.5.3,1,.5,1.6.6.3.1.6.1,1,.1l1.6-2.6h0Z"/>
              <polygon class="cls-4" points="97.3 131.5 92 140.7 90.9 140.1 89.2 130 85.3 136.9 84 136.1 89.2 126.9 90.3 127.5 92 137.6 95.9 130.8 97.3 131.5"/>
            </g>
          </g>
        </g>
      </g>
    </g>
  </g>
</svg>