<?xml version="1.0" encoding="UTF-8"?>
<svg id="Capa_2" data-name="Capa 2" xmlns="http://www.w3.org/2000/svg" xmlns:xlink="http://www.w3.org/1999/xlink" viewBox="0 0 496.25 170.85">
  <defs>
    <style>
      .cls-1 {
        fill: #fff;
      }

      .cls-2 {
        font-family: MyriadPro-Regular, 'Myriad Pro';
        font-size: 12px;
      }

      .cls-3 {
        fill: #00590d;
      }

      .cls-4 {
        fill: #232323;
      }

      .cls-5 {
        fill: #00c129;
      }

      .cls-6 {
        stroke: #fff;
        stroke-width: 3px;
      }

      .cls-6, .cls-7 {
        stroke-miterlimit: 10;
      }

      .cls-6, .cls-7, .cls-8 {
        fill: none;
      }

      .cls-7 {
        stroke: #000;
        stroke-width: .25px;
      }

      .cls-9 {
        fill: #fff800;
      }

      .cls-10 {
        fill: #424242;
      }

      .cls-11 {
        clip-path: url(#clippath);
      }

      .cls-12 {
        fill: #515151;
      }

      .cls-13 {
        fill: #007f18;
      }

      .cls-14 {
        fill: red;
      }

      .cls-15 {
        fill: #c4c4c4;
      }

      .cls-16 {
        fill: #f7c592;
      }
    </style>
    <clipPath id="clippath">
      <path class="cls-8" d="m494.75,169.35H1.5V1.5c90.03,0,180.06,0,270.09,0,74.39,0,148.77,0,223.16,0v167.85Z"/>
    </clipPath>
  </defs>
  <g id="Capa_1-2" data-name="Capa 1">
    <g>
      <g class="cls-11">
        <g>
          <g>
            <path class="cls-13" d="m335.69-80.03c-17.48,23.7-189.65,191.57-201.17,202.93-10.2,10.05-23.8,16.03-38.11,16.36-9.63.22-17.79-1.22-24.71-3.74-28.77-10.52-34.78-48.74-10.96-68.01,42.94-34.73,98.17-113.75,98.17-113.75"/>
            <path class="cls-16" d="m134.52,122.9c-10.2,10.05-23.8,16.03-38.11,16.36-9.63.22-17.79-1.22-24.71-3.74-28.77-10.52-34.78-48.74-10.96-68.01,1.36-1.1,2.74-2.25,4.12-3.43,7.12,9.6,17.06,21.2,30.49,32.69,14.26,12.2,28.1,20.52,39.17,26.14Z"/>
            <path class="cls-3" d="m80.46,49.5c1.45,3.64,3.9,9.11,7.84,15.32,4.39,6.92,10.64,14.75,19.41,21.94,17.04,13.97,34.59,18.15,42.75,19.57l-15.94,16.57c-11.07-5.62-24.91-13.95-39.17-26.14-13.43-11.48-23.37-23.09-30.49-32.69,2.91-2.47,5.88-5.12,8.9-7.97,2.35-2.22,4.59-4.43,6.7-6.6Z"/>
            <g>
              <line class="cls-8" x1="90.63" y1="68.3" x2="77.47" y2="79.4"/>
              <line class="cls-8" x1="99.08" y1="78.7" x2="86.92" y2="89.11"/>
              <line class="cls-8" x1="109.09" y1="87.86" x2="97.02" y2="98.16"/>
              <line class="cls-8" x1="119.51" y1="94.98" x2="107.49" y2="106.33"/>
              <line class="cls-8" x1="133.51" y1="101.67" x2="120.67" y2="115.15"/>
            </g>
          </g>
          <g>
            <path class="cls-13" d="m204.12-81.79c17.48,23.7,189.65,191.57,201.17,202.93,10.2,10.05,23.8,16.03,38.11,16.36,9.63.22,17.79-1.22,24.71-3.74,28.77-10.52,34.78-48.74,10.96-68.01-42.94-34.73-97.73-114.06-97.73-114.06"/>
            <path class="cls-16" d="m405.29,121.14c10.2,10.05,23.8,16.03,38.11,16.36,9.63.22,17.79-1.22,24.71-3.74,28.77-10.52,34.78-48.74,10.96-68.01-1.36-1.1-2.74-2.25-4.12-3.43-7.12,9.6-17.06,21.2-30.49,32.69-14.26,12.2-28.1,20.52-39.17,26.14Z"/>
            <path class="cls-3" d="m459.35,47.74c-1.45,3.64-3.9,9.11-7.84,15.32-4.39,6.92-10.64,14.75-19.41,21.94-17.04,13.97-34.59,18.15-42.75,19.57l15.94,16.57c11.07-5.62,24.91-13.95,39.17-26.14,13.43-11.48,23.37-23.09,30.49-32.69-2.91-2.47-5.88-5.12-8.9-7.97-2.35-2.22-4.59-4.43-6.7-6.6Z"/>
            <g>
              <line class="cls-8" x1="449.19" y1="66.55" x2="462.35" y2="77.64"/>
              <line class="cls-8" x1="440.73" y1="76.95" x2="452.89" y2="87.36"/>
              <line class="cls-8" x1="430.73" y1="86.11" x2="442.8" y2="96.4"/>
              <line class="cls-8" x1="420.3" y1="93.22" x2="432.33" y2="104.57"/>
              <line class="cls-8" x1="406.31" y1="99.91" x2="419.14" y2="113.4"/>
            </g>
          </g>
          <path class="cls-13" d="m383.96,145.64c-21.69,9.67-61.4,24.04-112.97,24.08-51.76.03-91.63-14.4-113.34-24.08V-51.8h226.31v197.44Z"/>
          <path class="cls-10" d="m198.01-19.64c4.33,8.91,8.26,18.72,11.44,29.44,18.69,63.08.27,120.7-11.97,150.05,17.97,4.92,42.74,9.76,72.42,9.86,30.32.1,55.59-4.78,73.78-9.73-11.16-27.86-28.75-84.61-10.14-147.44,3.75-12.66,8.5-24,13.66-34.05-15.26,6.66-42.52,16.2-77.62,16.05-31.71-.13-56.66-8.11-71.56-14.18Z"/>
          <g>
            <g>
              <ellipse class="cls-1" cx="269.91" cy="58.37" rx="8.88" ry="8.87"/>
              <rect class="cls-1" x="268.82" y="22.86" width="2.19" height="24.9" rx="1.1" ry="1.1"/>
              <rect class="cls-1" x="268.82" y="68.98" width="2.19" height="6.84" rx="1.1" ry="1.1" transform="translate(539.82 144.81) rotate(180)"/>
              <rect class="cls-1" x="278.74" y="64.87" width="2.19" height="6.84" rx="1.1" ry="1.1" transform="translate(525.99 -81.29) rotate(135)"/>
              <rect class="cls-1" x="258.89" y="64.87" width="2.19" height="6.84" rx="1.1" ry="1.1" transform="translate(395.54 300.42) rotate(-135)"/>
              <rect class="cls-1" x="282.85" y="54.95" width="2.19" height="6.84" rx="1.1" ry="1.1" transform="translate(342.31 -225.57) rotate(90)"/>
              <rect class="cls-1" x="278.74" y="45.03" width="2.19" height="6.84" rx="1.1" ry="1.1" transform="translate(116.22 -183.68) rotate(45)"/>
              <rect class="cls-1" x="254.79" y="54.95" width="2.19" height="6.84" rx="1.1" ry="1.1" transform="translate(197.51 314.25) rotate(-90)"/>
              <rect class="cls-1" x="258.89" y="45.03" width="2.19" height="6.84" rx="1.1" ry="1.1" transform="translate(41.89 198.03) rotate(-45)"/>
              <path class="cls-1" d="m304.71,56.67h-6.69c-.5,0-1-.05-1.48-.17-1.17-.29-2.52-1-3.36-2.6-.2-.38-.33-.78-.43-1.19-2.2-8.88-9.45-15.77-18.53-17.45-.23-.04-.43.13-.43.36v3.71c0,.17.12.32.29.36,8.76,1.93,15.26,9.86,14.98,19.26-.29,10.04-8.95,18.5-18.99,18.57-10.63.07-19.28-8.52-19.28-19.14,0-9.14,6.41-16.79,14.98-18.69.17-.04.29-.19.29-.36v-3.7c0-.23-.21-.41-.44-.37-9.07,1.68-16.31,8.56-18.51,17.43-.06.23-.12.46-.21.68-.79,1.97-2.29,2.79-3.57,3.12-.49.13-1,.18-1.5.18h-6.74c-.4,0-.72.33-.72.73v1.95c0,.41.32.73.72.73h6.88c.28,0,.56.02.84.06,1.32.22,3.05.92,3.98,2.96.14.31.24.63.32.95,2.54,10.28,11.79,17.84,22.87,17.82,11.01-.02,20.24-7.61,22.77-17.83.1-.41.23-.8.42-1.18.79-1.53,2.04-2.25,3.17-2.57.55-.16,1.11-.22,1.68-.22h.03s6.67,0,6.67,0c.4,0,.72-.33.72-.73v-1.95c0-.41-.32-.73-.72-.73Z"/>
            </g>
            <g>
              <path class="cls-1" d="m249.36,85.8v11.31c0,1.23-1,2.23-2.23,2.23-.62,0-1.17-.25-1.58-.65-.4-.4-.65-.96-.65-1.58v-3.92h-6.06v3.92c0,1.23-1,2.23-2.23,2.23s-2.23-1-2.23-2.23v-11.31c0-1.23,1-2.23,2.23-2.23.61,0,1.17.25,1.58.65.4.4.65.96.65,1.58v3.7h6.06v-3.7c0-1.23,1-2.23,2.23-2.23s2.23,1,2.23,2.23Z"/>
              <path class="cls-1" d="m262.11,99.66c-1.25,0-2.41-.2-3.48-.61-1.07-.41-2-.98-2.78-1.72-.78-.74-1.39-1.61-1.84-2.61-.44-1-.66-2.09-.66-3.28s.22-2.25.66-3.24c.44-.99,1.06-1.86,1.84-2.6.78-.74,1.7-1.32,2.77-1.72,1.07-.41,2.23-.61,3.49-.61s2.43.2,3.49.61c1.07.41,1.99.98,2.77,1.71.78.74,1.39,1.6,1.84,2.59.44.99.66,2.08.66,3.27s-.22,2.3-.65,3.3c-.44,1-1.05,1.87-1.84,2.6-.79.74-1.72,1.31-2.78,1.71-1.07.41-2.23.61-3.49.61Zm0-3.7c.6,0,1.16-.1,1.68-.32.52-.21.97-.51,1.35-.91.38-.4.68-.87.9-1.42.22-.55.33-1.17.33-1.86s-.11-1.31-.33-1.86c-.22-.55-.52-1.02-.9-1.42-.38-.4-.83-.7-1.35-.91-.52-.21-1.08-.32-1.68-.32s-1.16.11-1.68.32c-.52.21-.97.51-1.36.91-.39.4-.69.87-.9,1.42-.21.55-.32,1.17-.32,1.86s.1,1.31.32,1.86c.21.55.51,1.02.9,1.42.39.4.85.7,1.36.91.52.21,1.08.32,1.68.32Z"/>
              <path class="cls-1" d="m288.21,86.28c-.56-.88-1.37-1.55-2.42-2.02-1.05-.47-2.3-.7-3.74-.7h-4.96c-1.23,0-2.23,1-2.23,2.23v11.31c0,.61.25,1.17.65,1.58.4.4.96.65,1.58.65,1.23,0,2.23-1,2.23-2.23v-1.89h2.73c1.44,0,2.69-.24,3.74-.71,1.05-.47,1.86-1.14,2.42-2.01.56-.86.85-1.9.85-3.12s-.28-2.22-.85-3.1Zm-4.34,4.8c-.47.4-1.16.6-2.1.6h-2.46v-4.6h2.46c.93,0,1.63.21,2.1.62.47.41.7.97.7,1.68s-.23,1.3-.7,1.7Z"/>
              <path class="cls-1" d="m305.39,97.68c.07.97-.68,1.82-1.66,1.81h-9.04c-.91,0-1.66-.74-1.66-1.66v-12.46c0-.92.74-1.66,1.66-1.66h9.03c.98,0,1.73.85,1.66,1.81,0,.91-.74,1.66-1.66,1.66h-5.71c-.32,0-.59.26-.59.59v1.89h5.42c1.01,0,1.89.71,1.9,1.63.02.93-.81,1.68-1.84,1.68h-5.49v2.46c0,.32.26.58.59.58h5.71c.91,0,1.66.74,1.66,1.66Z"/>
            </g>
            <g>
              <path class="cls-1" d="m234.38,111.64v-10.62h4.51c1.14,0,2.15.22,3.02.67.87.45,1.55,1.07,2.03,1.87.48.8.73,1.72.73,2.78s-.24,1.98-.73,2.78c-.48.8-1.16,1.42-2.03,1.87-.87.45-1.88.67-3.02.67h-4.51Zm1.53-1.32h2.89c.89,0,1.65-.17,2.3-.5.65-.33,1.15-.8,1.51-1.4.36-.6.54-1.3.54-2.09s-.18-1.5-.54-2.09c-.36-.6-.86-1.06-1.51-1.4-.65-.33-1.41-.5-2.3-.5h-2.89v7.98Z"/>
              <polygon class="cls-1" points="257.34 110.32 257.34 111.64 249.58 111.64 249.58 101.02 257.13 101.02 257.13 102.34 251.1 102.34 251.1 105.6 256.47 105.6 256.47 106.89 251.1 106.89 251.1 110.32 257.34 110.32"/>
              <path class="cls-1" d="m265.51,111.64c-.82,0-1.6-.12-2.34-.36-.74-.24-1.33-.56-1.76-.94l.57-1.16c.41.35.93.63,1.56.86.63.23,1.29.34,1.97.34.62,0,1.13-.07,1.51-.21.39-.14.67-.33.86-.57.18-.24.28-.52.28-.82,0-.36-.12-.64-.36-.86-.24-.22-.55-.39-.93-.53-.38-.13-.8-.25-1.26-.35-.46-.1-.92-.21-1.38-.35-.46-.13-.89-.3-1.27-.51-.38-.21-.69-.49-.92-.84-.23-.35-.35-.8-.35-1.36s.15-1.03.44-1.48c.29-.45.74-.81,1.35-1.08.61-.27,1.38-.41,2.32-.41.62,0,1.24.08,1.85.24.61.16,1.14.39,1.59.68l-.5,1.19c-.46-.3-.94-.51-1.45-.64-.51-.13-1-.2-1.48-.2-.6,0-1.1.07-1.48.22-.39.15-.67.35-.85.59-.18.25-.27.52-.27.83,0,.37.12.66.36.87.24.22.55.39.93.52.38.13.8.24,1.26.35.46.1.92.22,1.38.35.46.13.89.3,1.27.5.38.21.69.48.93.83.23.35.35.79.35,1.33s-.15,1.01-.44,1.46c-.3.45-.75.81-1.37,1.08-.62.27-1.39.41-2.33.41Z"/>
              <path class="cls-1" d="m274.45,111.64v-10.61h1.53v10.61h-1.53Z"/>
              <path class="cls-1" d="m289.17,106.27h1.47v4.05c-.53.43-1.15.76-1.86.99-.71.22-1.44.33-2.19.33-.83,0-1.58-.13-2.28-.39-.69-.26-1.29-.63-1.8-1.11-.51-.48-.91-1.04-1.19-1.68-.29-.64-.43-1.35-.43-2.12s.14-1.48.43-2.12c.29-.64.69-1.2,1.2-1.68.52-.48,1.12-.85,1.81-1.11.69-.26,1.46-.39,2.29-.39s1.62.13,2.32.4c.7.27,1.3.67,1.79,1.2l-.95.92c-.44-.41-.92-.72-1.43-.91-.52-.19-1.07-.29-1.67-.29s-1.18.1-1.71.3c-.52.2-.98.47-1.36.83-.38.36-.68.78-.89,1.27-.21.49-.31,1.02-.31,1.59s.1,1.09.31,1.58c.21.49.51.91.89,1.28.38.36.83.64,1.35.84.52.2,1.09.3,1.7.3.57,0,1.12-.09,1.64-.26.3-.1.59-.24.86-.41v-3.37Z"/>
              <polygon class="cls-1" points="305.4 101.02 305.4 111.64 304.14 111.64 297.67 103.73 297.67 111.64 296.13 111.64 296.13 101.02 297.39 101.02 303.86 108.93 303.86 101.02 305.4 101.02"/>
            </g>
          </g>
          <path class="cls-3" d="m194.32-22.59l6.21-3.44s39.68,69.76.31,186.79l-6.99-1.92s36.58-96.31.47-181.44Z"/>
          <path class="cls-3" d="m347.43-22.59l-6.21-3.44s-39.68,69.76-.31,186.79l6.99-1.96s-36.58-96.27-.47-181.39Z"/>
          <path class="cls-4" d="m383.96-44.62c-12.31,18.81-28.39,41.92-49.9,62.25-63.63,60.15-137.03,80.91-176.41,88.7v13.53c24-.83,56.14-4.89,89.94-17.68C334.71,69.22,380.76-.03,396.7-27.05c-2.32-3.09-4.39-5.96-6.71-9.14-1.67-2.28-4.41-6.16-6.03-8.43Z"/>
          <g>
            <circle class="cls-14" cx="252.46" cy="86.95" r="7.28"/>
            <text class="cls-2" transform="translate(249.68 90.04)"><tspan x="0" y="0">x</tspan></text>
          </g>
          <g>
            <circle class="cls-9" cx="323.49" cy="42.52" r="7.28"/>
            <g>
              <circle class="cls-7" cx="323.49" cy="42.52" r="2.25"/>
              <circle class="cls-7" cx="323.49" cy="42.52" r="3.37"/>
              <circle class="cls-7" cx="323.49" cy="42.52" r="4.37"/>
            </g>
          </g>
          <g>
            <g>
              <rect class="cls-12" x="3.67" y="83.35" width="132.11" height="57.88" rx="12.08" ry="12.08" transform="translate(64.91 -19.8) rotate(29.75)"/>
              <rect class="cls-15" x="14.44" y="88.4" width="110.57" height="47.78" rx="12.08" ry="12.08" transform="translate(64.91 -19.8) rotate(29.75)"/>
              <circle cx="122.34" cy="142.36" r="2.63"/>
              <ellipse cx="16.9" cy="81.99" rx="3.86" ry="2.63" transform="translate(-62.67 55.98) rotate(-60.25)"/>
            </g>
            <g>
              <g>
                <path class="cls-5" d="m57.69,91.99l-5.61,9.82c-.61,1.07-1.97,1.44-3.04.83-.54-.31-.89-.8-1.05-1.35-.15-.55-.09-1.16.22-1.69l1.95-3.4-5.26-3.01-1.95,3.4c-.61,1.07-1.97,1.44-3.04.83s-1.44-1.97-.83-3.04l5.61-9.82c.61-1.07,1.97-1.44,3.04-.83.53.31.9.8,1.04,1.35.15.55.09,1.16-.21,1.69l-1.83,3.21,5.26,3.01,1.83-3.21c.61-1.07,1.97-1.44,3.04-.83s1.44,1.97.83,3.04Z"/>
                <path class="cls-5" d="m61.88,110.35c-1.08-.62-1.99-1.37-2.72-2.26-.73-.89-1.25-1.84-1.56-2.88-.31-1.03-.41-2.09-.3-3.18.11-1.09.46-2.15,1.05-3.18s1.31-1.85,2.19-2.49c.88-.64,1.84-1.09,2.89-1.35,1.05-.26,2.13-.3,3.26-.12,1.13.18,2.24.58,3.33,1.2s2.01,1.38,2.73,2.26c.72.88,1.24,1.84,1.56,2.86.31,1.03.42,2.08.31,3.16-.11,1.08-.46,2.14-1.04,3.17s-1.33,1.89-2.21,2.54c-.87.65-1.84,1.1-2.89,1.35-1.05.25-2.14.28-3.27.11-1.13-.18-2.24-.58-3.33-1.2Zm1.83-3.21c.52.3,1.06.48,1.61.56.55.07,1.1.03,1.63-.12.53-.16,1.03-.42,1.49-.79.46-.37.86-.85,1.21-1.45s.56-1.19.64-1.78c.08-.58.06-1.14-.08-1.68-.14-.54-.38-1.02-.72-1.46-.35-.44-.78-.81-1.3-1.11s-1.06-.48-1.61-.56c-.55-.07-1.1-.04-1.64.12-.54.15-1.03.41-1.49.79-.45.37-.85.86-1.2,1.46s-.56,1.19-.65,1.77c-.09.58-.06,1.14.08,1.68.14.54.39,1.03.73,1.47.35.44.78.81,1.3,1.11Z"/>
                <path class="cls-5" d="m91.18,111.69c-.05-1.04-.42-2.03-1.1-2.95-.68-.93-1.65-1.75-2.9-2.46l-4.3-2.46c-1.07-.61-2.43-.24-3.04.83l-5.61,9.82c-.31.53-.37,1.14-.21,1.69.15.55.51,1.04,1.04,1.35,1.07.61,2.43.24,3.04-.83l.94-1.64,2.37,1.35c1.25.72,2.45,1.13,3.6,1.24,1.15.11,2.18-.07,3.1-.54.92-.47,1.68-1.23,2.28-2.29s.86-2.07.8-3.11Zm-6.15,2.01c-.6.12-1.31-.06-2.12-.52l-2.13-1.22,2.28-3.99,2.13,1.22c.81.46,1.31.99,1.51,1.58.2.59.13,1.19-.22,1.8s-.85,1.02-1.45,1.13Z"/>
                <path class="cls-5" d="m100.43,130.11c-.42.88-1.49,1.24-2.34.75l-7.85-4.48c-.79-.45-1.07-1.47-.62-2.26l6.18-10.81c.46-.8,1.47-1.07,2.27-.62l7.84,4.48c.85.48,1.08,1.59.54,2.4-.45.79-1.46,1.07-2.26.62l-4.96-2.83c-.28-.16-.64-.06-.8.22l-.94,1.64,4.71,2.69c.88.5,1.28,1.56.84,2.36-.45.81-1.54,1.06-2.43.55l-4.76-2.72-1.22,2.13c-.16.28-.06.64.22.8l4.96,2.83c.79.45,1.07,1.47.62,2.26Z"/>
              </g>
              <g>
                <path class="cls-5" d="m31.85,106.99l5.27-9.22,3.92,2.24c.99.57,1.75,1.26,2.29,2.08.54.82.82,1.69.84,2.63.02.93-.22,1.86-.75,2.77s-1.19,1.6-2.01,2.05c-.82.45-1.71.66-2.69.61-.98-.05-1.96-.35-2.95-.92l-3.92-2.24Zm1.98-.39l2.51,1.43c.77.44,1.52.68,2.25.71.73.03,1.4-.13,2-.47.61-.35,1.11-.86,1.5-1.54s.59-1.39.57-2.08c-.01-.69-.22-1.35-.62-1.96-.4-.61-.98-1.14-1.75-1.58l-2.51-1.43-3.96,6.93Z"/>
                <polygon class="cls-5" points="52.45 117.24 51.79 118.39 45.05 114.53 50.32 105.32 56.87 109.06 56.22 110.21 50.99 107.22 49.37 110.05 54.03 112.71 53.39 113.83 48.73 111.17 47.03 114.14 52.45 117.24"/>
                <path class="cls-5" d="m58.88,122.44c-.71-.4-1.33-.9-1.85-1.48-.53-.58-.88-1.14-1.06-1.69l1.07-.72c.18.5.49,1.01.93,1.52.44.51.95.94,1.54,1.27.54.31,1.01.5,1.42.57.4.07.75.05,1.03-.07.28-.12.5-.31.65-.58.18-.31.21-.62.11-.92-.1-.31-.28-.61-.55-.92-.27-.31-.57-.61-.92-.93-.35-.31-.69-.64-1.03-.99-.34-.35-.62-.7-.85-1.07-.23-.37-.36-.77-.39-1.19-.03-.42.09-.87.37-1.35s.63-.82,1.11-1.06c.48-.25,1.04-.34,1.71-.27.66.06,1.4.33,2.21.8.54.31,1.04.68,1.49,1.12.45.44.8.9,1.04,1.38l-1.03.78c-.25-.49-.56-.91-.94-1.28-.38-.37-.77-.67-1.19-.91-.52-.3-.99-.48-1.4-.54-.41-.06-.75-.03-1.03.09-.28.13-.49.32-.64.59-.18.32-.22.63-.12.94.1.31.28.61.55.91.27.3.58.61.92.93.35.32.69.65,1.03.99.34.34.62.7.85,1.07.23.37.36.76.39,1.18.03.42-.09.86-.36,1.33s-.63.8-1.11,1.05c-.48.24-1.05.33-1.73.26-.67-.07-1.41-.34-2.23-.8Z"/>
                <path class="cls-5" d="m66.65,126.87l5.27-9.21,1.33.76-5.27,9.21-1.33-.76Z"/>
                <path class="cls-5" d="m82.09,129.52l1.27.73-2.01,3.51c-.67.11-1.38.09-2.1-.07-.73-.16-1.41-.42-2.07-.8-.72-.41-1.31-.9-1.78-1.47-.47-.57-.81-1.19-1.01-1.86-.2-.67-.27-1.35-.2-2.05.07-.7.3-1.38.68-2.05s.86-1.21,1.42-1.63c.57-.42,1.19-.7,1.88-.87.68-.16,1.39-.18,2.12-.07.73.12,1.46.38,2.19.8s1.34.92,1.82,1.5c.48.58.8,1.22.96,1.93l-1.28.33c-.17-.58-.44-1.08-.79-1.5-.35-.42-.79-.78-1.31-1.08s-1.07-.5-1.63-.59c-.55-.09-1.08-.07-1.59.05-.51.12-.97.34-1.4.66-.42.32-.78.73-1.06,1.23s-.45,1-.51,1.53c-.06.53-.02,1.04.14,1.55.15.5.41.97.76,1.4.35.43.8.8,1.33,1.1.5.28,1.01.48,1.56.59.31.06.63.09.96.07l1.67-2.93Z"/>
                <polygon class="cls-5" points="98.78 133.02 93.51 142.23 92.42 141.61 90.73 131.53 86.8 138.4 85.47 137.63 90.74 128.42 91.83 129.04 93.52 139.12 97.45 132.25 98.78 133.02"/>
              </g>
            </g>
          </g>
        </g>
      </g>
      <rect class="cls-6" x="1.5" y="1.5" width="493.25" height="167.85"/>
    </g>
  </g>
</svg>