<?xml version="1.0" encoding="UTF-8"?>
<svg id="Capa_2" data-name="Capa 2" xmlns="http://www.w3.org/2000/svg" viewBox="0 0 486.33 846.81">
  <defs>
    <style>
      .cls-1 {
        fill: #262626;
      }

      .cls-2 {
        fill: #fff;
      }

      .cls-3 {
        fill: #4c4c4c;
      }

      .cls-4 {
        fill: #dbdbdb;
      }

      .cls-5 {
        fill: #00590d;
      }

      .cls-6 {
        fill: #232323;
      }

      .cls-7 {
        fill: none;
      }

      .cls-8 {
        fill: #c1c1c1;
      }

      .cls-9 {
        fill: #161616;
      }

      .cls-10 {
        fill: #515151;
      }

      .cls-11 {
        fill: #007f18;
      }

      .cls-12 {
        fill: #f7c592;
      }
    </style>
  </defs>
  <g id="Capa_5" data-name="Capa 5">
    <g>
      <g>
        <rect class="cls-10" x="351.83" y="546.71" width="132.11" height="57.88" rx="12.08" ry="12.08" transform="translate(1020.38 953.79) rotate(158.09)"/>
        <circle class="cls-4" cx="460.46" cy="542.06" r="5.29"/>
        <circle class="cls-4" cx="448.4" cy="546.91" r="5.29"/>
        <circle class="cls-4" cx="459.14" cy="555.24" r="3.82"/>
        <circle class="cls-8" cx="448.4" cy="546.91" r="2.82"/>
        <circle class="cls-8" cx="460.46" cy="542.06" r="2.82"/>
        <circle class="cls-8" cx="459.14" cy="555.24" r="2.07"/>
      </g>
      <g>
        <path class="cls-9" d="m357.21,846.81h-132.4v-83.46s113.15.02,113.15.02c0,0,53.91,28.58,19.25,83.45Z"/>
        <path class="cls-6" d="m337.97,763.36c-11.17,4.51-31.49,11.12-57.75,10.92-25-.19-44.4-6.48-55.41-10.92v-164.79h113.15v164.79Z"/>
      </g>
      <g>
        <path class="cls-11" d="m289.7,377.72c-17.48,23.7-189.65,191.57-201.17,202.93-10.2,10.05-23.8,16.03-38.11,16.36-9.63.22-17.79-1.22-24.71-3.74-28.77-10.52-34.78-48.74-10.96-68.01,42.94-34.73,98.17-113.75,98.17-113.75"/>
        <path class="cls-12" d="m88.54,580.64c-10.2,10.05-23.8,16.03-38.11,16.36-9.63.22-17.79-1.22-24.71-3.74-28.77-10.52-34.78-48.74-10.96-68.01,1.36-1.1,2.74-2.25,4.12-3.43,7.12,9.6,17.06,21.2,30.49,32.69,14.26,12.2,28.1,20.52,39.17,26.14Z"/>
        <path class="cls-5" d="m34.48,507.24c1.45,3.64,3.9,9.11,7.84,15.32,4.39,6.92,10.64,14.75,19.41,21.94,17.04,13.97,34.59,18.15,42.75,19.57l-15.94,16.57c-11.07-5.62-24.91-13.95-39.17-26.14-13.43-11.48-23.37-23.09-30.49-32.69,2.91-2.47,5.88-5.12,8.9-7.97,2.35-2.22,4.59-4.43,6.7-6.6Z"/>
        <g>
          <line class="cls-7" x1="44.64" y1="526.05" x2="31.48" y2="537.15"/>
          <line class="cls-7" x1="53.09" y1="536.45" x2="40.93" y2="546.86"/>
          <line class="cls-7" x1="63.1" y1="545.61" x2="51.03" y2="555.91"/>
          <line class="cls-7" x1="73.53" y1="552.73" x2="61.5" y2="564.08"/>
          <line class="cls-7" x1="87.52" y1="559.42" x2="74.68" y2="572.9"/>
        </g>
      </g>
      <g>
        <path class="cls-11" d="m158.13,375.96c17.48,23.7,189.65,191.57,201.17,202.93,10.2,10.05,23.8,16.03,38.11,16.36,9.63.22,17.79-1.22,24.71-3.74,28.77-10.52,34.78-48.74,10.96-68.01-42.94-34.73-97.73-114.06-97.73-114.06"/>
        <path class="cls-12" d="m359.3,578.89c10.2,10.05,23.8,16.03,38.11,16.36,9.63.22,17.79-1.22,24.71-3.74,28.77-10.52,34.78-48.74,10.96-68.01-1.36-1.1-2.74-2.25-4.12-3.43-7.12,9.6-17.06,21.2-30.49,32.69-14.26,12.2-28.1,20.52-39.17,26.14Z"/>
        <path class="cls-5" d="m413.36,505.49c-1.45,3.64-3.9,9.11-7.84,15.32-4.39,6.92-10.64,14.75-19.41,21.94-17.04,13.97-34.59,18.15-42.75,19.57l15.94,16.57c11.07-5.62,24.91-13.95,39.17-26.14,13.43-11.48,23.37-23.09,30.49-32.69-2.91-2.47-5.88-5.12-8.9-7.97-2.35-2.22-4.59-4.43-6.7-6.6Z"/>
        <g>
          <line class="cls-7" x1="403.2" y1="524.3" x2="416.36" y2="535.39"/>
          <line class="cls-7" x1="394.74" y1="534.7" x2="406.9" y2="545.11"/>
          <line class="cls-7" x1="384.74" y1="543.86" x2="396.81" y2="554.15"/>
          <line class="cls-7" x1="374.31" y1="550.97" x2="386.34" y2="562.32"/>
          <line class="cls-7" x1="360.32" y1="557.66" x2="373.16" y2="571.14"/>
        </g>
      </g>
      <path class="cls-9" d="m92.41,846.81h132.4v-83.46l-113.15.02s-53.91,28.58-19.25,83.45Z"/>
      <path class="cls-6" d="m224.81,763.36c-11.17,4.51-31.49,11.12-57.75,10.92-25-.19-44.4-6.48-55.41-10.92v-164.79h113.15v164.79Z"/>
      <path class="cls-11" d="m337.97,603.39c-21.69,9.67-61.4,24.04-112.97,24.08-51.76.03-91.63-14.4-113.34-24.08v-197.44h226.31v197.44Z"/>
      <path class="cls-12" d="m382.77,348.25c-2.18,5.09-4.46,9.97-6.79,14.63-28.13,56.15-84.6,92.99-147.39,94.37-1.02.02-2.05.04-3.08.04-1.06,0-2.11,0-3.15,0-63.83-.67-121.65-37.78-150.13-94.91-2.23-4.46-4.39-9.13-6.47-13.99C18.68,238.33,40.09,80.66,131.69,24.86,171.38.69,217.03.03,224.11,0c6.45-.02,56.4.35,98.63,27.64,89.95,58.15,106,213.37,60.03,320.6Z"/>
      <g>
        <path class="cls-11" d="m399.37,148.46c-11.97-50.83-37.25-95.22-76.83-120.82C280.31.35,230.36-.02,223.91,0c-7.08.03-52.73.69-92.42,24.86-41.28,25.15-68.31,70.98-81.24,123.82l349.11-.22Z"/>
        <path class="cls-1" d="m39.66,195.56c55.35-9.65,115.48-15.76,179.8-16.03,68.42-.29,132.15,6.05,190.51,16.32,6.57,1.16,12.29-6.45,11.66-15.67,0-.07,0-.14-.01-.2-.57-8.19-1.86-18.21-4.67-27.93-1.44-4.98-4.73-8.45-8.56-9-58.88-8.57-122.17-13.66-189.39-13.4-63.22.25-122.94,5.2-178.73,13.3-4.43.64-8.06,5.17-9.05,11.23-.82,4.98-1.82,12.6-3.14,24.76-1.04,9.54,4.74,17.82,11.59,16.62"/>
      </g>
      <path class="cls-6" d="m111.32,413.76c12.31,18.81,28.39,41.92,49.9,62.25,63.63,60.15,137.03,80.91,176.41,88.7v13.53c-24-.83-56.14-4.89-89.94-17.68-87.13-32.96-133.18-102.21-149.12-129.23,2.32-3.09,4.39-5.96,6.71-9.14,1.67-2.28,4.41-6.16,6.03-8.43Z"/>
      <g>
        <rect class="cls-6" x="180.51" y="455.23" width="88.28" height="150.94" rx="23.01" ry="23.01" transform="translate(-339.02 410.74) rotate(-55.04)"/>
        <rect class="cls-3" x="194.52" y="468.94" width="60.26" height="123.52" rx="17.69" ry="17.69" transform="translate(-339.02 410.74) rotate(-55.04)"/>
        <g>
          <g>
            <circle class="cls-2" cx="196.98" cy="514.61" r="5.77" transform="translate(-337.64 381.19) rotate(-55.04)"/>
            <rect class="cls-2" x="204.86" y="494.24" width="1.42" height="16.18" rx=".53" ry=".53" transform="translate(324.92 -27.15) rotate(34.96)"/>
            <rect class="cls-2" x="191.05" y="519.86" width="1.42" height="4.44" rx=".53" ry=".53" transform="translate(49.77 1059.84) rotate(-145.04)"/>
            <rect class="cls-2" x="197.86" y="521.37" width="1.42" height="4.44" rx=".53" ry=".53" transform="translate(485.39 1004.53) rotate(169.96)"/>
            <rect class="cls-2" x="187.29" y="513.98" width="1.42" height="4.44" rx=".53" ry=".53" transform="translate(-287.51 791.33) rotate(-100.04)"/>
            <rect class="cls-2" x="203.74" y="517.61" width="1.42" height="4.44" rx=".53" ry=".53" transform="translate(747.64 650.13) rotate(124.96)"/>
            <rect class="cls-2" x="205.25" y="510.8" width="1.42" height="4.44" rx=".53" ry=".53" transform="translate(675.21 220.77) rotate(79.96)"/>
            <rect class="cls-2" x="188.8" y="507.16" width="1.42" height="4.44" rx=".53" ry=".53" transform="translate(-336.55 372.83) rotate(-55.04)"/>
            <rect class="cls-2" x="194.68" y="503.41" width="1.42" height="4.44" rx=".53" ry=".53" transform="translate(-85.17 41.81) rotate(-10.04)"/>
            <path class="cls-2" d="m216.14,526.66l-3.57-2.49c-.27-.19-.51-.4-.72-.64-.51-.59-.97-1.47-.82-2.64.04-.27.12-.54.21-.8,2.13-5.55.84-11.92-3.37-16.19-.1-.11-.28-.09-.37.03l-1.38,1.97c-.06.09-.06.22.02.3,3.94,4.29,4.45,10.93.81,15.84-3.89,5.24-11.65,6.52-17.03,2.82-5.69-3.92-7.09-11.72-3.14-17.37,3.4-4.87,9.66-6.55,14.93-4.38.1.04.23,0,.29-.08l1.38-1.97c.09-.12.04-.3-.1-.36-5.45-2.48-11.87-1.51-16.35,2.39-.12.1-.24.2-.37.28-1.16.76-2.26.63-3.07.33-.31-.12-.6-.28-.87-.47l-3.59-2.51c-.21-.15-.51-.09-.66.12l-.73,1.04c-.15.22-.1.51.11.66l3.57,2.5.09.06c.15.1.29.22.42.35.62.61,1.28,1.63,1.02,3.06-.04.21-.11.42-.18.63-2.48,6.42-.36,13.89,5.55,18.01,5.87,4.09,13.61,3.48,18.77-1.02.2-.18.42-.34.66-.47.99-.52,1.92-.44,2.64-.19.35.12.68.3.98.51h.01s3.55,2.49,3.55,2.49c.21.15.51.09.66-.12l.73-1.04c.15-.22.1-.51-.11-.66Z"/>
          </g>
          <g>
            <path class="cls-2" d="m233.81,527.57l-5.09,7.27c-.55.79-1.65.99-2.44.43-.4-.28-.64-.69-.72-1.13-.08-.44.01-.91.29-1.31l1.76-2.52-3.9-2.72-1.76,2.52c-.55.79-1.65.99-2.44.43s-.99-1.65-.43-2.44l5.09-7.27c.55-.79,1.64-.99,2.44-.43.4.28.64.69.72,1.13.08.44-.01.91-.29,1.31l-1.66,2.38,3.9,2.72,1.66-2.38c.55-.79,1.64-.99,2.44-.43s.99,1.65.43,2.44Z"/>
            <path class="cls-2" d="m235.78,542.22c-.8-.56-1.46-1.21-1.96-1.96-.51-.74-.85-1.53-1.01-2.36-.17-.83-.17-1.66,0-2.51.16-.84.51-1.64,1.05-2.41s1.16-1.35,1.89-1.79c.73-.44,1.51-.72,2.35-.85.84-.13,1.69-.08,2.56.14.87.22,1.71.61,2.52,1.18s1.47,1.22,1.97,1.96c.5.74.84,1.52,1.01,2.35.17.82.18,1.65.02,2.49-.16.84-.51,1.64-1.04,2.4s-1.18,1.38-1.9,1.83c-.73.45-1.51.73-2.35.85-.84.12-1.69.07-2.56-.15-.87-.22-1.71-.61-2.52-1.18Zm1.66-2.38c.39.27.79.45,1.22.55.43.1.85.1,1.28.02.43-.08.83-.25,1.22-.51.39-.25.74-.6,1.05-1.05s.52-.89.63-1.34c.11-.45.13-.89.06-1.32-.07-.43-.22-.83-.46-1.19-.24-.37-.55-.69-.94-.96s-.79-.45-1.22-.55c-.43-.1-.86-.11-1.29-.03-.43.08-.84.25-1.22.51-.38.26-.73.61-1.04,1.05s-.52.89-.63,1.34c-.11.45-.13.89-.06,1.32.07.43.23.83.47,1.2.24.37.55.69.94.96Z"/>
            <path class="cls-2" d="m258.58,545.35c.03-.82-.18-1.61-.65-2.39-.47-.77-1.16-1.48-2.09-2.13l-3.19-2.23c-.79-.55-1.88-.36-2.44.43l-5.08,7.27c-.28.4-.37.87-.29,1.31.08.44.32.85.72,1.13.79.55,1.88.36,2.44-.43l.85-1.22,1.75,1.23c.93.65,1.84,1.06,2.72,1.22.89.17,1.71.1,2.46-.2.75-.3,1.4-.84,1.95-1.63.53-.76.82-1.55.85-2.37Zm-4.95,1.14c-.48.05-1.02-.14-1.62-.56l-1.58-1.1,2.07-2.96,1.58,1.1c.6.42.96.87,1.07,1.34.11.48.01.94-.3,1.39s-.74.73-1.21.78Z"/>
            <path class="cls-2" d="m264.5,560.4c-.39.65-1.25.87-1.88.42l-5.81-4.06c-.59-.41-.73-1.22-.32-1.81l5.6-8.01c.41-.59,1.23-.73,1.82-.32l5.81,4.06c.63.44.73,1.32.25,1.91-.41.59-1.22.73-1.81.32l-3.67-2.57c-.21-.15-.49-.09-.64.11l-.85,1.22,3.49,2.44c.65.46.89,1.31.49,1.9-.41.6-1.28.72-1.94.26l-3.53-2.47-1.1,1.58c-.15.21-.09.49.11.64l3.67,2.57c.59.41.73,1.22.32,1.81Z"/>
          </g>
          <g>
            <path class="cls-2" d="m212.56,537.45l4.77-6.83,2.9,2.03c.73.51,1.28,1.11,1.64,1.79.36.68.52,1.38.47,2.11-.05.73-.31,1.43-.78,2.11s-1.04,1.16-1.71,1.46c-.67.3-1.39.39-2.15.29-.76-.11-1.51-.42-2.24-.93l-2.9-2.03Zm1.58-.16l1.86,1.3c.57.4,1.14.64,1.7.71.57.08,1.1,0,1.6-.22.5-.23.93-.59,1.28-1.1s.56-1.04.6-1.59c.04-.54-.08-1.07-.34-1.57-.27-.51-.68-.96-1.25-1.36l-1.86-1.3-3.59,5.13Z"/>
            <polygon class="cls-2" points="227.92 546.93 227.33 547.78 222.33 544.28 227.11 537.46 231.96 540.85 231.37 541.7 227.5 538.99 226.03 541.09 229.48 543.5 228.9 544.33 225.45 541.92 223.91 544.12 227.92 546.93"/>
            <path class="cls-2" d="m232.58,551.44c-.52-.37-.97-.79-1.34-1.29-.37-.49-.61-.96-.71-1.4l.88-.49c.11.41.31.82.62,1.25.3.43.68.8,1.11,1.11.4.28.76.46,1.07.55.31.09.58.09.81.02.23-.07.41-.21.55-.41.16-.23.21-.47.16-.71-.06-.25-.18-.5-.36-.76-.19-.26-.4-.52-.65-.79-.25-.27-.49-.55-.73-.85-.24-.29-.43-.59-.59-.9-.15-.31-.23-.62-.22-.95,0-.33.13-.67.38-1.03s.55-.59.94-.75c.39-.16.84-.19,1.35-.09.51.1,1.07.36,1.67.78.4.28.76.61,1.08.98.32.38.56.76.72,1.15l-.86.54c-.16-.4-.38-.75-.64-1.07-.27-.31-.56-.58-.86-.8-.39-.27-.74-.44-1.05-.52-.32-.08-.59-.08-.81,0-.23.08-.41.22-.55.41-.16.24-.22.48-.16.72.06.25.18.5.37.75.19.25.41.52.65.79.25.27.49.55.73.85.24.29.44.59.59.89.15.31.23.62.22.95,0,.33-.13.67-.37,1.02s-.55.58-.94.74c-.39.16-.85.18-1.37.08-.52-.1-1.08-.36-1.68-.79Z"/>
            <path class="cls-2" d="m238.33,555.46l4.77-6.82.98.69-4.77,6.82-.98-.69Z"/>
            <path class="cls-2" d="m250.21,558.63l.94.66-1.82,2.6c-.54.04-1.08-.03-1.64-.2-.56-.18-1.08-.43-1.56-.77-.53-.37-.96-.8-1.29-1.28-.33-.48-.55-.99-.66-1.53-.11-.54-.12-1.08-.01-1.62.1-.54.33-1.06.68-1.55s.76-.89,1.23-1.17c.47-.29.98-.47,1.53-.54.55-.08,1.1-.04,1.66.1.56.14,1.11.4,1.65.78s.98.81,1.31,1.3c.33.49.54,1.01.61,1.58l-1.02.16c-.1-.46-.27-.87-.51-1.23-.24-.35-.56-.67-.95-.94s-.8-.47-1.23-.58c-.43-.11-.84-.13-1.25-.08-.41.06-.79.2-1.14.42-.35.22-.66.52-.92.88s-.42.75-.51,1.16c-.09.41-.09.81,0,1.22.08.4.25.79.49,1.15.25.36.56.68.96.95.37.26.76.45,1.17.57.24.07.48.11.74.12l1.52-2.17Z"/>
            <polygon class="cls-2" points="263 562.55 258.23 569.38 257.41 568.81 256.81 560.82 253.26 565.9 252.27 565.21 257.04 558.39 257.85 558.95 258.45 566.94 262.01 561.86 263 562.55"/>
          </g>
        </g>
      </g>
      <path d="m404.47,268.61H44.4c-.93-5.94-1.25-12.27-1.83-18.96-.61-7.04-.92-13.72-1.02-19.99h366.09c-.13,5.37-.4,10.96-.82,16.75-.57,7.8-1.38,15.21-2.35,22.2Z"/>
    </g>
  </g>
</svg>