<?xml version="1.0" encoding="UTF-8"?>
<svg id="Capa_2" data-name="Capa 2" xmlns="http://www.w3.org/2000/svg" viewBox="0 0 346.85 92.82">
  <defs>
    <style>
      .cls-1, .cls-2 {
        fill: #fff;
      }

      .cls-2, .cls-3 {
        stroke: #00c129;
        stroke-linecap: round;
        stroke-linejoin: round;
        stroke-width: 4px;
      }

      .cls-3 {
        fill: none;
      }
    </style>
  </defs>
  <g id="Capa_1-2" data-name="Capa 1">
    <path class="cls-1" d="m7.27,75.04c1.02,0,1.94.2,2.74.6.82.4,1.46,1.02,1.92,1.85.46.82.7,1.87.7,3.17v7.34h-3v-6.96c0-1.14-.27-1.98-.82-2.54-.53-.56-1.27-.84-2.23-.84-.7,0-1.33.14-1.87.43-.54.29-.97.72-1.27,1.3-.29.56-.43,1.27-.43,2.14v6.48H0v-17.81h3v8.45l-.65-1.06c.45-.82,1.1-1.44,1.94-1.87.86-.45,1.86-.67,2.98-.67Zm13.98,13.13c-1.41,0-2.5-.36-3.26-1.08-.77-.74-1.15-1.82-1.15-3.24v-11.5h3v11.42c0,.61.15,1.08.46,1.42.32.34.76.5,1.32.5.67,0,1.23-.18,1.68-.53l.84,2.14c-.35.29-.78.5-1.3.65-.51.14-1.04.22-1.58.22Zm-6.53-10.49v-2.4h8.54v2.4h-8.54Zm16.4,10.49c-1.41,0-2.5-.36-3.26-1.08-.77-.74-1.15-1.82-1.15-3.24v-11.5h3v11.42c0,.61.15,1.08.46,1.42.32.34.76.5,1.32.5.67,0,1.23-.18,1.68-.53l.84,2.14c-.35.29-.78.5-1.3.65-.51.14-1.04.22-1.58.22Zm-6.53-10.49v-2.4h8.54v2.4h-8.54Zm18.98,10.49c-1.04,0-1.99-.24-2.86-.72-.85-.48-1.53-1.2-2.04-2.16-.5-.98-.74-2.21-.74-3.7s.24-2.74.72-3.7c.5-.96,1.17-1.67,2.02-2.14.85-.48,1.82-.72,2.9-.72,1.26,0,2.38.27,3.34.82.98.54,1.74,1.3,2.3,2.28.58.98.86,2.13.86,3.46s-.29,2.49-.86,3.48c-.56.98-1.33,1.74-2.3,2.28-.96.54-2.07.82-3.34.82Zm-7.1,4.49v-17.47h2.86v3.02l-.1,3.41.24,3.41v7.63h-3Zm6.77-7.06c.72,0,1.36-.16,1.92-.48.58-.32,1.03-.78,1.37-1.39.34-.61.5-1.32.5-2.14s-.17-1.54-.5-2.14c-.34-.61-.79-1.07-1.37-1.39-.56-.32-1.2-.48-1.92-.48s-1.37.16-1.94.48c-.58.32-1.03.78-1.37,1.39-.34.59-.5,1.3-.5,2.14s.17,1.53.5,2.14c.34.61.79,1.07,1.37,1.39.58.32,1.22.48,1.94.48Zm13.65,2.57c-1.07,0-2.1-.14-3.1-.41-.98-.29-1.75-.63-2.33-1.03l1.15-2.28c.58.37,1.26.67,2.06.91.8.24,1.6.36,2.4.36.94,0,1.62-.13,2.04-.38.43-.26.65-.6.65-1.03,0-.35-.14-.62-.43-.79-.29-.19-.66-.34-1.13-.43-.46-.1-.98-.18-1.56-.26-.56-.08-1.13-.18-1.7-.31-.56-.14-1.07-.34-1.54-.6-.46-.27-.84-.63-1.13-1.08-.29-.45-.43-1.04-.43-1.78,0-.82.23-1.52.7-2.11.46-.61,1.11-1.07,1.94-1.39.85-.34,1.85-.5,3-.5.86,0,1.74.1,2.62.29.88.19,1.61.46,2.18.82l-1.15,2.28c-.61-.37-1.22-.62-1.85-.74-.61-.14-1.22-.22-1.82-.22-.91,0-1.59.14-2.04.41-.43.27-.65.62-.65,1.03,0,.38.14.67.43.86.29.19.66.34,1.13.46.46.11.98.21,1.54.29.58.06,1.14.17,1.7.31.56.14,1.07.34,1.54.6.48.24.86.58,1.15,1.03.29.45.43,1.03.43,1.75,0,.8-.24,1.5-.72,2.09-.46.59-1.13,1.06-1.99,1.39-.86.32-1.9.48-3.1.48Zm9.35-9.14c-.54,0-1.01-.18-1.39-.55-.38-.38-.58-.86-.58-1.44,0-.61.19-1.09.58-1.44.38-.37.85-.55,1.39-.55s1.01.18,1.39.55c.38.35.58.83.58,1.44,0,.58-.19,1.06-.58,1.44-.38.37-.85.55-1.39.55Zm0,9.14c-.54,0-1.01-.18-1.39-.55-.38-.38-.58-.86-.58-1.44,0-.61.19-1.09.58-1.44.38-.37.85-.55,1.39-.55s1.01.18,1.39.55c.38.35.58.83.58,1.44,0,.58-.19,1.06-.58,1.44-.38.37-.85.55-1.39.55Zm3.43,2.23l7.92-22.61h2.69l-7.92,22.61h-2.69Zm7.22,0l7.92-22.61h2.69l-7.92,22.61h-2.69Zm15.83,2.42c-1.18,0-2.34-.16-3.48-.48-1.12-.3-2.04-.75-2.76-1.34l1.34-2.26c.56.46,1.26.83,2.11,1.1.86.29,1.74.43,2.62.43,1.41,0,2.44-.33,3.1-.98.66-.64.98-1.61.98-2.9v-2.28l.24-2.9-.1-2.9v-3.12h2.86v10.87c0,2.32-.59,4.02-1.78,5.11-1.18,1.1-2.9,1.66-5.14,1.66Zm-.38-5.4c-1.22,0-2.32-.26-3.31-.77-.98-.53-1.75-1.26-2.33-2.18-.56-.93-.84-2.02-.84-3.26s.28-2.31.84-3.24c.58-.93,1.35-1.65,2.33-2.16.99-.51,2.1-.77,3.31-.77,1.09,0,2.06.22,2.93.65.86.43,1.55,1.1,2.06,2.02.53.91.79,2.08.79,3.5s-.26,2.6-.79,3.53c-.51.91-1.2,1.59-2.06,2.04-.86.43-1.84.65-2.93.65Zm.46-2.54c.75,0,1.42-.15,2.02-.46.59-.32,1.05-.75,1.37-1.3.34-.56.5-1.2.5-1.92s-.17-1.35-.5-1.9c-.32-.56-.78-.98-1.37-1.27-.59-.3-1.26-.46-2.02-.46s-1.43.15-2.04.46c-.59.29-1.06.71-1.39,1.27-.32.54-.48,1.18-.48,1.9s.16,1.36.48,1.92c.34.54.8.98,1.39,1.3.61.3,1.29.46,2.04.46Zm10.78,3.12v-12.82h3v12.82h-3Zm1.51-14.93c-.56,0-1.02-.18-1.39-.53-.35-.35-.53-.78-.53-1.27s.18-.94.53-1.27c.37-.35.83-.53,1.39-.53s1.02.17,1.37.5c.37.32.55.73.55,1.22,0,.53-.18.98-.53,1.34-.35.35-.82.53-1.39.53Zm10.25,15.1c-1.41,0-2.5-.36-3.26-1.08-.77-.74-1.15-1.82-1.15-3.24v-11.5h3v11.42c0,.61.15,1.08.46,1.42.32.34.76.5,1.32.5.67,0,1.23-.18,1.68-.53l.84,2.14c-.35.29-.78.5-1.3.65-.51.14-1.04.22-1.58.22Zm-6.53-10.49v-2.4h8.54v2.4h-8.54Zm19.15-2.64c1.02,0,1.94.2,2.74.6.82.4,1.46,1.02,1.92,1.85.46.82.7,1.87.7,3.17v7.34h-3v-6.96c0-1.14-.27-1.98-.82-2.54-.53-.56-1.27-.84-2.23-.84-.7,0-1.33.14-1.87.43-.54.29-.97.72-1.27,1.3-.29.56-.43,1.27-.43,2.14v6.48h-3v-17.81h3v8.45l-.65-1.06c.45-.82,1.1-1.44,1.94-1.87.86-.45,1.86-.67,2.98-.67Zm14.58,13.13c-1.09,0-2.05-.2-2.88-.6-.83-.42-1.48-1.04-1.94-1.87-.46-.85-.7-1.91-.7-3.19v-7.32h3v6.91c0,1.15.26,2.02.77,2.59.53.56,1.27.84,2.23.84.7,0,1.31-.14,1.82-.43.53-.29.94-.72,1.22-1.3.3-.58.46-1.29.46-2.14v-6.48h3v12.82h-2.86v-3.46l.5,1.06c-.43.83-1.06,1.47-1.9,1.92-.83.43-1.74.65-2.74.65Zm18.02,0c-1.09,0-2.06-.24-2.9-.72-.85-.48-1.52-1.2-2.02-2.16-.48-.98-.72-2.21-.72-3.7s.25-2.74.74-3.7c.51-.96,1.19-1.67,2.04-2.14.86-.48,1.82-.72,2.86-.72,1.26,0,2.38.27,3.34.82.98.54,1.74,1.3,2.3,2.28.58.98.86,2.13.86,3.46s-.29,2.48-.86,3.46c-.56.98-1.33,1.74-2.3,2.3-.96.54-2.07.82-3.34.82Zm-7.1-.17v-17.81h3v7.97l-.24,3.41.1,3.41v3.02h-2.86Zm6.77-2.4c.72,0,1.36-.16,1.92-.48.58-.32,1.03-.78,1.37-1.39.34-.61.5-1.32.5-2.14s-.17-1.54-.5-2.14c-.34-.61-.79-1.07-1.37-1.39-.56-.32-1.2-.48-1.92-.48s-1.37.16-1.94.48-1.03.78-1.37,1.39c-.34.59-.5,1.3-.5,2.14s.17,1.53.5,2.14c.34.61.79,1.07,1.37,1.39s1.22.48,1.94.48Zm10.43,2.57c-.54,0-1.01-.18-1.39-.55-.38-.38-.58-.86-.58-1.44,0-.61.19-1.09.58-1.44.38-.37.85-.55,1.39-.55s1.01.18,1.39.55c.38.35.58.83.58,1.44,0,.58-.19,1.06-.58,1.44-.38.37-.85.55-1.39.55Zm10.57,0c-1.34,0-2.54-.28-3.6-.84-1.04-.58-1.86-1.36-2.45-2.35-.59-.99-.89-2.12-.89-3.38s.3-2.41.89-3.38c.59-.99,1.41-1.77,2.45-2.33,1.06-.56,2.26-.84,3.6-.84,1.25,0,2.34.26,3.29.77.96.5,1.69,1.23,2.18,2.21l-2.3,1.34c-.38-.61-.86-1.06-1.42-1.34-.54-.29-1.14-.43-1.78-.43-.74,0-1.4.16-1.99.48-.59.32-1.06.78-1.39,1.39-.34.59-.5,1.3-.5,2.14s.17,1.55.5,2.16c.34.59.8,1.05,1.39,1.37.59.32,1.26.48,1.99.48.64,0,1.23-.14,1.78-.43.56-.29,1.03-.74,1.42-1.34l2.3,1.34c-.5.96-1.22,1.7-2.18,2.23-.94.51-2.04.77-3.29.77Zm13.64,0c-1.31,0-2.48-.28-3.5-.84-1.02-.58-1.83-1.36-2.42-2.35-.59-.99-.89-2.12-.89-3.38s.3-2.41.89-3.38c.59-.99,1.4-1.77,2.42-2.33,1.02-.56,2.19-.84,3.5-.84s2.5.28,3.53.84c1.04.56,1.85,1.33,2.42,2.3.59.98.89,2.11.89,3.41s-.3,2.39-.89,3.38c-.58.99-1.38,1.78-2.42,2.35-1.02.56-2.2.84-3.53.84Zm0-2.57c.74,0,1.39-.16,1.97-.48.58-.32,1.02-.78,1.34-1.39.34-.61.5-1.32.5-2.14s-.17-1.54-.5-2.14c-.32-.61-.77-1.07-1.34-1.39-.58-.32-1.22-.48-1.94-.48s-1.39.16-1.97.48c-.56.32-1.01.78-1.34,1.39-.34.59-.5,1.3-.5,2.14s.17,1.53.5,2.14c.34.61.78,1.07,1.34,1.39.58.32,1.22.48,1.94.48Zm25.88-10.56c1.02,0,1.93.2,2.71.6.8.4,1.42,1.02,1.87,1.85.45.82.67,1.87.67,3.17v7.34h-3v-6.96c0-1.14-.25-1.98-.74-2.54-.5-.56-1.21-.84-2.14-.84-.66,0-1.24.14-1.75.43-.5.29-.89.71-1.18,1.27-.27.56-.41,1.27-.41,2.14v6.5h-3v-6.96c0-1.14-.25-1.98-.74-2.54-.5-.56-1.21-.84-2.14-.84-.66,0-1.24.14-1.75.43-.5.29-.89.71-1.18,1.27-.27.56-.41,1.27-.41,2.14v6.5h-3v-12.82h2.86v3.41l-.5-1.01c.43-.83,1.06-1.46,1.87-1.9.83-.43,1.78-.65,2.83-.65,1.2,0,2.24.3,3.12.89.9.59,1.49,1.49,1.78,2.69l-1.18-.41c.42-.96,1.1-1.73,2.06-2.3.96-.58,2.07-.86,3.34-.86Zm6.4,15.36l7.92-22.61h2.69l-7.92,22.61h-2.69Zm19.26-2.16c-1.31,0-2.52-.21-3.62-.62-1.09-.43-2.04-1.03-2.86-1.8-.82-.78-1.45-1.7-1.9-2.76s-.67-2.21-.67-3.46.22-2.4.67-3.46,1.08-1.97,1.9-2.74c.83-.78,1.8-1.38,2.9-1.8,1.1-.43,2.31-.65,3.62-.65,1.42,0,2.7.23,3.84.7,1.15.46,2.12,1.14,2.9,2.04l-1.97,1.92c-.66-.66-1.37-1.14-2.14-1.44-.75-.32-1.58-.48-2.5-.48s-1.7.14-2.45.43-1.4.7-1.94,1.22c-.54.53-.97,1.15-1.27,1.87-.29.72-.43,1.51-.43,2.38s.14,1.63.43,2.35c.3.72.73,1.35,1.27,1.9.54.53,1.18.94,1.92,1.22.74.29,1.55.43,2.45.43.83,0,1.63-.13,2.4-.38.78-.27,1.53-.72,2.23-1.34l1.78,2.33c-.88.7-1.9,1.24-3.07,1.61-1.15.35-2.32.53-3.5.53Zm3.62-2.54v-6.29h2.95v6.7l-2.95-.41Zm12.54,2.47c-1.31,0-2.48-.28-3.5-.84-1.02-.58-1.83-1.36-2.42-2.35-.59-.99-.89-2.12-.89-3.38s.3-2.41.89-3.38c.59-.99,1.4-1.77,2.42-2.33,1.02-.56,2.19-.84,3.5-.84s2.5.28,3.53.84c1.04.56,1.85,1.33,2.42,2.3.59.98.89,2.11.89,3.41s-.3,2.39-.89,3.38c-.58.99-1.38,1.78-2.42,2.35-1.02.56-2.2.84-3.53.84Zm0-2.57c.74,0,1.39-.16,1.97-.48.58-.32,1.02-.78,1.34-1.39.34-.61.5-1.32.5-2.14s-.17-1.54-.5-2.14c-.32-.61-.77-1.07-1.34-1.39-.58-.32-1.22-.48-1.94-.48s-1.39.16-1.97.48c-.56.32-1.01.78-1.34,1.39-.34.59-.5,1.3-.5,2.14s.17,1.53.5,2.14c.34.61.78,1.07,1.34,1.39.58.32,1.22.48,1.94.48Zm10.41,7.22c-.62,0-1.25-.1-1.87-.31s-1.14-.5-1.56-.86l1.2-2.21c.3.27.65.49,1.03.65.38.16.78.24,1.18.24.54,0,.98-.14,1.32-.41.34-.27.65-.73.94-1.37l.74-1.68.24-.36,4.85-11.33h2.88l-6,13.85c-.4.96-.85,1.72-1.34,2.28-.48.56-1.02.95-1.63,1.18-.59.22-1.25.34-1.97.34Zm2.64-4.37l-5.78-13.27h3.12l4.7,11.06-2.04,2.21Zm15.85-.29c-1.42,0-2.67-.28-3.74-.84-1.06-.58-1.88-1.36-2.47-2.35-.58-.99-.86-2.12-.86-3.38s.28-2.41.84-3.38c.58-.99,1.36-1.77,2.35-2.33,1.01-.56,2.15-.84,3.43-.84s2.36.27,3.34.82c.98.54,1.74,1.31,2.3,2.3.56.99.84,2.16.84,3.5,0,.13,0,.27-.02.43,0,.16,0,.31-.02.46h-10.68v-1.99h9.1l-1.18.62c.02-.74-.14-1.38-.46-1.94-.32-.56-.76-1-1.32-1.32-.54-.32-1.18-.48-1.9-.48s-1.38.16-1.94.48c-.54.32-.98.77-1.3,1.34-.3.56-.46,1.22-.46,1.99v.48c0,.77.18,1.45.53,2.04.35.59.85,1.05,1.49,1.37.64.32,1.38.48,2.21.48.72,0,1.37-.11,1.94-.34s1.09-.58,1.54-1.06l1.61,1.85c-.58.67-1.3,1.19-2.18,1.56-.86.35-1.86.53-2.98.53Zm10.07-.17v-15.6l1.37,1.42h-4.92v-2.62h6.67v16.8h-3.12Zm6.21-3.82v-2.16l8.28-10.82h3.34l-8.16,10.82-1.56-.48h13.32v2.64h-15.22Zm9.22,3.82v-3.82l.1-2.64v-3.38h2.93v9.84h-3.02Zm9.39,0v-15.6l1.37,1.42h-4.92v-2.62h6.67v16.8h-3.12Zm13.46.24c-1.33,0-2.53-.34-3.6-1.01-1.06-.67-1.89-1.65-2.5-2.93-.61-1.3-.91-2.86-.91-4.7s.3-3.4.91-4.68c.61-1.3,1.44-2.28,2.5-2.95,1.07-.67,2.27-1.01,3.6-1.01s2.54.34,3.6,1.01c1.06.67,1.89,1.66,2.5,2.95.62,1.28.94,2.84.94,4.68s-.31,3.41-.94,4.7c-.61,1.28-1.44,2.26-2.5,2.93-1.06.67-2.26,1.01-3.6,1.01Zm0-2.71c.78,0,1.46-.21,2.04-.62.58-.43,1.02-1.09,1.34-1.97.34-.88.5-1.99.5-3.34s-.17-2.47-.5-3.34c-.32-.88-.77-1.53-1.34-1.94-.58-.43-1.26-.65-2.04-.65s-1.42.22-2.02.65c-.58.42-1.03,1.06-1.37,1.94-.32.86-.48,1.98-.48,3.34s.16,2.46.48,3.34c.34.88.79,1.54,1.37,1.97.59.42,1.26.62,2.02.62Z"/>
    <path class="cls-2" d="m170.15,54c14.36,0,26-11.64,26-26s-11.64-26-26-26-26,11.64-26,26,11.64,26,26,26Z"/>
    <path class="cls-3" d="m176.22,46.2v-4.84c.07-.8-.05-1.61-.33-2.37-.28-.76-.72-1.45-1.3-2.03,5.44-.59,11.16-2.6,11.16-11.81,0-2.36-.93-4.62-2.6-6.33.79-2.06.74-4.34-.16-6.36,0,0-2.04-.59-6.78,2.5-3.97-1.05-8.16-1.05-12.13,0-4.73-3.09-6.78-2.5-6.78-2.5-.89,2.02-.95,4.3-.16,6.36-1.68,1.72-2.61,4.01-2.6,6.38,0,9.15,5.72,11.16,11.16,11.81-.57.57-1.01,1.26-1.29,2.01-.28.75-.4,1.55-.34,2.35v4.84"/>
    <path class="cls-3" d="m164.09,42.82c-5.2,1.64-9.53,0-12.13-5.06"/>
  </g>
</svg>