<?xml version="1.0" encoding="UTF-8"?>
<svg id="Capa_2" data-name="Capa 2" xmlns="http://www.w3.org/2000/svg" viewBox="0 0 56 56">
  <defs>
    <style>
      .cls-1 {
        fill: #fff;
      }

      .cls-1, .cls-2 {
        stroke: #00c129;
        stroke-linecap: round;
        stroke-linejoin: round;
        stroke-width: 4px;
      }

      .cls-2 {
        fill: none;
      }
    </style>
  </defs>
  <g id="Capa_1-2" data-name="Capa 1">
    <g>
      <path class="cls-1" d="m28,54c14.36,0,26-11.64,26-26S42.36,2,28,2,2,13.64,2,28s11.64,26,26,26Z"/>
      <path class="cls-2" d="m34.07,46.2v-4.84c.07-.8-.05-1.61-.33-2.37-.28-.76-.72-1.45-1.3-2.03,5.44-.59,11.16-2.6,11.16-11.81,0-2.36-.93-4.62-2.6-6.33.79-2.06.74-4.34-.16-6.36,0,0-2.04-.59-6.78,2.5-3.97-1.05-8.16-1.05-12.13,0-4.73-3.09-6.78-2.5-6.78-2.5-.89,2.02-.95,4.3-.16,6.36-1.68,1.72-2.61,4.01-2.6,6.38,0,9.15,5.72,11.16,11.16,11.81-.57.57-1.01,1.26-1.29,2.01-.28.75-.4,1.55-.34,2.35v4.84"/>
      <path class="cls-2" d="m21.93,42.82c-5.2,1.64-9.53,0-12.13-5.06"/>
    </g>
  </g>
</svg>