<?xml version="1.0" encoding="UTF-8"?>
<svg id="Capa_2" data-name="Capa 2" xmlns="http://www.w3.org/2000/svg" viewBox="0 0 174.09 87.9">
  <defs>
    <style>
      .cls-1, .cls-2 {
        fill: #fff;
      }

      .cls-2, .cls-3, .cls-4 {
        stroke: #00c129;
      }

      .cls-2, .cls-4 {
        stroke-width: 4px;
      }

      .cls-3 {
        stroke-width: 5px;
      }

      .cls-3, .cls-4 {
        fill: none;
        stroke-linecap: round;
        stroke-linejoin: round;
      }
    </style>
  </defs>
  <g id="Capa_1-2" data-name="Capa 1">
    <path class="cls-1" d="m11.38,87.9c-1.7,0-3.24-.27-4.63-.82s-2.59-1.31-3.6-2.3c-1.01-.99-1.78-2.15-2.33-3.48-.54-1.34-.82-2.81-.82-4.39s.27-3.04.82-4.37c.54-1.33,1.32-2.48,2.33-3.46,1.02-.98,2.24-1.74,3.65-2.28,1.41-.54,2.97-.82,4.68-.82s3.16.26,4.54.79c1.38.51,2.56,1.24,3.55,2.18,1.01.93,1.78,2.03,2.33,3.31.56,1.28.84,2.69.84,4.22,0,1.38-.18,2.57-.55,3.58-.37.99-.9,1.75-1.58,2.28-.67.53-1.5.79-2.47.79s-1.78-.3-2.38-.89c-.58-.59-.86-1.45-.86-2.57v-1.37l.1-1.37-.22-3.12v-2.74h2.66v8.16c0,.61.12,1.04.36,1.3.26.24.55.36.89.36.43,0,.8-.17,1.1-.5.3-.34.53-.83.67-1.49.16-.66.24-1.45.24-2.38,0-1.28-.22-2.45-.67-3.5-.43-1.06-1.06-1.96-1.9-2.71-.82-.77-1.79-1.35-2.93-1.75-1.12-.42-2.36-.62-3.72-.62s-2.66.22-3.79.67c-1.14.43-2.11,1.05-2.93,1.85s-1.45,1.75-1.9,2.86c-.43,1.09-.65,2.28-.65,3.58s.22,2.54.65,3.65c.43,1.1,1.05,2.05,1.85,2.83.82.8,1.78,1.42,2.9,1.85,1.12.45,2.38.67,3.77.67.74,0,1.51-.09,2.33-.26.82-.16,1.59-.42,2.33-.79l.65,1.92c-.74.37-1.58.65-2.54.84-.96.19-1.88.29-2.76.29Zm-.62-4.75c-1.1,0-2.09-.26-2.95-.77-.86-.53-1.55-1.25-2.06-2.16-.5-.93-.74-1.99-.74-3.19s.25-2.23.74-3.14c.5-.93,1.18-1.65,2.04-2.16.88-.51,1.87-.77,2.98-.77s2.01.24,2.81.72c.8.46,1.42,1.14,1.87,2.04.45.9.67,2,.67,3.31s-.22,2.42-.65,3.34c-.43.91-1.05,1.61-1.85,2.09-.8.46-1.75.7-2.86.7Zm.5-2.33c.69,0,1.3-.14,1.82-.43.53-.3.94-.74,1.25-1.32.32-.58.48-1.26.48-2.04s-.16-1.47-.48-2.02c-.3-.56-.72-.98-1.25-1.27-.53-.3-1.14-.46-1.82-.46s-1.33.15-1.87.46c-.53.3-.94.74-1.25,1.3-.29.56-.43,1.22-.43,1.99s.14,1.46.43,2.02c.3.56.72,1,1.25,1.32.54.3,1.17.46,1.87.46Zm15.08,7.01c-.56,0-1.09-.06-1.58-.19-.51-.11-.94-.3-1.3-.55l.86-2.23c.46.34,1.05.5,1.75.5.54,0,.97-.18,1.27-.53.3-.34.46-.84.46-1.51v-13.13h3v13.06c0,1.41-.39,2.52-1.18,3.34-.77.83-1.86,1.25-3.29,1.25Zm2.95-19.75c-.56,0-1.02-.18-1.39-.53-.35-.35-.53-.78-.53-1.27s.18-.94.53-1.27c.37-.35.83-.53,1.39-.53s1.02.17,1.37.5c.37.32.55.73.55,1.22,0,.53-.18.98-.53,1.34-.35.35-.82.53-1.39.53Zm11.21,15.1c-1.31,0-2.48-.28-3.5-.84-1.02-.58-1.83-1.36-2.42-2.35-.59-.99-.89-2.12-.89-3.38s.3-2.41.89-3.38c.59-.99,1.4-1.77,2.42-2.33,1.02-.56,2.19-.84,3.5-.84s2.5.28,3.53.84c1.04.56,1.85,1.33,2.42,2.3.59.98.89,2.11.89,3.41s-.3,2.39-.89,3.38c-.58.99-1.38,1.78-2.42,2.35-1.02.56-2.2.84-3.53.84Zm0-2.57c.74,0,1.39-.16,1.97-.48.58-.32,1.02-.78,1.34-1.39.34-.61.5-1.32.5-2.14s-.17-1.54-.5-2.14c-.32-.61-.77-1.07-1.34-1.39-.58-.32-1.22-.48-1.94-.48s-1.39.16-1.97.48c-.56.32-1.01.78-1.34,1.39-.34.59-.5,1.3-.5,2.14s.17,1.53.5,2.14c.34.61.78,1.07,1.34,1.39.58.32,1.22.48,1.94.48Zm16.98-10.56c1.02,0,1.94.2,2.74.6.82.4,1.46,1.02,1.92,1.85.46.82.7,1.87.7,3.17v7.34h-3v-6.96c0-1.14-.27-1.98-.82-2.54-.53-.56-1.27-.84-2.23-.84-.7,0-1.33.14-1.87.43-.54.29-.97.72-1.27,1.3-.29.56-.43,1.27-.43,2.14v6.48h-3v-12.82h2.86v3.46l-.5-1.06c.45-.82,1.1-1.44,1.94-1.87.86-.45,1.86-.67,2.98-.67Zm17.05,12.96v-2.59l-.17-.55v-4.54c0-.88-.26-1.56-.79-2.04-.53-.5-1.33-.74-2.4-.74-.72,0-1.43.11-2.14.34-.69.22-1.27.54-1.75.94l-1.18-2.18c.69-.53,1.5-.92,2.45-1.18.96-.27,1.95-.41,2.98-.41,1.86,0,3.29.45,4.3,1.34,1.02.88,1.54,2.25,1.54,4.1v7.51h-2.83Zm-4.03.17c-.96,0-1.8-.16-2.52-.48-.72-.34-1.28-.79-1.68-1.37-.38-.59-.58-1.26-.58-1.99s.17-1.37.5-1.94c.35-.58.92-1.03,1.7-1.37.78-.34,1.82-.5,3.12-.5h3.72v1.99h-3.5c-1.02,0-1.71.17-2.06.5-.35.32-.53.72-.53,1.2,0,.54.22.98.65,1.3s1.03.48,1.8.48,1.39-.17,1.97-.5c.59-.34,1.02-.83,1.27-1.49l.5,1.8c-.29.75-.81,1.34-1.56,1.75-.74.42-1.67.62-2.81.62Zm15.54,0c-1.41,0-2.5-.36-3.26-1.08-.77-.74-1.15-1.82-1.15-3.24v-11.5h3v11.42c0,.61.15,1.08.46,1.42.32.34.76.5,1.32.5.67,0,1.23-.18,1.68-.53l.84,2.14c-.35.29-.78.5-1.3.65-.51.14-1.04.22-1.58.22Zm-6.53-10.49v-2.4h8.54v2.4h-8.54Zm19.77,10.32v-2.59l-.17-.55v-4.54c0-.88-.26-1.56-.79-2.04-.53-.5-1.33-.74-2.4-.74-.72,0-1.43.11-2.14.34-.69.22-1.27.54-1.75.94l-1.18-2.18c.69-.53,1.5-.92,2.45-1.18.96-.27,1.95-.41,2.98-.41,1.86,0,3.29.45,4.3,1.34,1.02.88,1.54,2.25,1.54,4.1v7.51h-2.83Zm-4.03.17c-.96,0-1.8-.16-2.52-.48-.72-.34-1.28-.79-1.68-1.37-.38-.59-.58-1.26-.58-1.99s.17-1.37.5-1.94c.35-.58.92-1.03,1.7-1.37.78-.34,1.82-.5,3.12-.5h3.72v1.99h-3.5c-1.02,0-1.71.17-2.06.5-.35.32-.53.72-.53,1.2,0,.54.22.98.65,1.3s1.03.48,1.8.48,1.39-.17,1.97-.5c.59-.34,1.02-.83,1.27-1.49l.5,1.8c-.29.75-.81,1.34-1.56,1.75-.74.42-1.67.62-2.81.62Zm17.99-13.13c1.02,0,1.94.2,2.74.6.82.4,1.46,1.02,1.92,1.85.46.82.7,1.87.7,3.17v7.34h-3v-6.96c0-1.14-.27-1.98-.82-2.54-.53-.56-1.27-.84-2.23-.84-.7,0-1.33.14-1.87.43-.54.29-.97.72-1.27,1.3-.29.56-.43,1.27-.43,2.14v6.48h-3v-12.82h2.86v3.46l-.5-1.06c.45-.82,1.1-1.44,1.94-1.87.86-.45,1.86-.67,2.98-.67Zm14.99,17.78c-1.18,0-2.34-.16-3.48-.48-1.12-.3-2.04-.75-2.76-1.34l1.34-2.26c.56.46,1.26.83,2.11,1.1.86.29,1.74.43,2.62.43,1.41,0,2.44-.33,3.1-.98.66-.64.98-1.61.98-2.9v-2.28l.24-2.9-.1-2.9v-3.12h2.86v10.87c0,2.32-.59,4.02-1.78,5.11-1.18,1.1-2.9,1.66-5.14,1.66Zm-.38-5.4c-1.22,0-2.32-.26-3.31-.77-.98-.53-1.75-1.26-2.33-2.18-.56-.93-.84-2.02-.84-3.26s.28-2.31.84-3.24c.58-.93,1.35-1.65,2.33-2.16.99-.51,2.1-.77,3.31-.77,1.09,0,2.06.22,2.93.65.86.43,1.55,1.1,2.06,2.02.53.91.79,2.08.79,3.5s-.26,2.6-.79,3.53c-.51.91-1.2,1.59-2.06,2.04-.86.43-1.84.65-2.93.65Zm.46-2.54c.75,0,1.42-.15,2.02-.46.59-.32,1.05-.75,1.37-1.3.34-.56.5-1.2.5-1.92s-.17-1.35-.5-1.9c-.32-.56-.78-.98-1.37-1.27-.59-.3-1.26-.46-2.02-.46s-1.43.15-2.04.46c-.59.29-1.06.71-1.39,1.27-.32.54-.48,1.18-.48,1.9s.16,1.36.48,1.92c.34.54.8.98,1.39,1.3.61.3,1.29.46,2.04.46Zm8.82,4.94v-1.82h12v1.82h-12Zm15.56-1.82v-15.6l1.37,1.42h-4.92v-2.62h6.67v16.8h-3.12Zm6.21-3.82v-2.16l8.28-10.82h3.34l-8.16,10.82-1.56-.48h13.32v2.64h-15.22Zm9.22,3.82v-3.82l.1-2.64v-3.38h2.93v9.84h-3.02Z"/>
    <path class="cls-2" d="m63.65,35.94V15.06c0-7.21,5.85-13.06,13.06-13.06h20.89c7.21,0,13.06,5.85,13.06,13.06v20.89c0,7.21-5.85,13.06-13.06,13.06h-20.89c-7.21,0-13.06-5.85-13.06-13.06Z"/>
    <path class="cls-4" d="m87.15,35.94c5.77,0,10.44-4.68,10.44-10.44s-4.68-10.44-10.44-10.44-10.44,4.68-10.44,10.44,4.68,10.44,10.44,10.44Z"/>
    <path class="cls-3" d="m101.51,11.16l.03-.03"/>
  </g>
</svg>