<?xml version="1.0" encoding="UTF-8"?>
<svg id="Capa_2" data-name="Capa 2" xmlns="http://www.w3.org/2000/svg" viewBox="0 0 90.1 31.46">
  <defs>
    <style>
      .cls-1 {
        fill: #fcfcfc;
        font-family: RevxNeueDemo-SemiBold, 'Revx Neue Demo';
        font-size: 8.12px;
        font-weight: 600;
      }

      .cls-2 {
        fill: none;
      }

      .cls-2, .cls-3 {
        stroke-width: 0px;
      }

      .cls-3 {
        fill: #fff;
      }
    </style>
  </defs>
  <g id="Capa_1-2" data-name="Capa 1">
    <rect class="cls-2" width="90.1" height="31.46"/>
    <text class="cls-1" transform="translate(50.62 19.35)"><tspan x="0" y="0">MI BLOG</tspan></text>
    <g id="_77_Essential_Icons" data-name="77 Essential Icons">
      <path id="Message" class="cls-3" d="m1.18,7v15.04c0,.34.28.63.63.63h12.22s4.26,4.2,4.26,4.2c.41.41,1.07.13,1.07-.44v-3.76h5.01c.34,0,.63-.28.63-.63V7c0-.34-.28-.63-.63-.63H1.8c-.34,0-.63.28-.63.63Zm1.25.63h21.31v13.79h-5.01c-.34,0-.63.28-.63.63v2.88s-3.38-3.32-3.38-3.32c-.13-.13-.28-.19-.44-.19H2.43V7.62Z"/>
    </g>
  </g>
</svg>