<?xml version="1.0" encoding="UTF-8"?>
<svg id="Capa_2" data-name="Capa 2" xmlns="http://www.w3.org/2000/svg" viewBox="0 0 90.1 31.46">
  <defs>
    <style>
      .cls-1 {
        fill: none;
      }

      .cls-1, .cls-2 {
        stroke-width: 0px;
      }

      .cls-3 {
        font-family: RevxNeueDemo-SemiBold, 'Revx Neue Demo';
        font-weight: 600;
        letter-spacing: 0em;
      }

      .cls-2 {
        fill: #fff;
      }

      .cls-4 {
        font-family: MyriadPro-Regular, 'Myriad Pro';
      }

      .cls-5 {
        fill: #fcfcfc;
        font-size: 8.12px;
      }
    </style>
  </defs>
  <g id="Capa_1-2" data-name="Capa 1">
    <rect class="cls-1" width="90.1" height="31.46"/>
    <g>
      <g id="Layer_19" data-name="Layer 19">
        <path class="cls-2" d="m13.21,16.73c-4.42,0-8-3.58-8-8S8.79.73,13.21.73s8,3.58,8,8-3.58,8-8,8Zm0-14c-3.31,0-6,2.69-6,6s2.69,6,6,6,6-2.69,6-6-2.69-6-6-6Z"/>
        <path class="cls-2" d="m20.21,30.73H6.21c-2.76,0-5-2.24-5-5v-4c0-.35.19-.68.49-.86l5-3c.5-.23,1.1,0,1.32.5.2.43.06.94-.32,1.22l-4.49,2.71v3.43c0,1.66,1.34,3,3,3h14c1.66,0,3-1.34,3-3v-3.43l-4.51-2.71c-.5-.23-.73-.82-.5-1.32s.82-.73,1.32-.5c.06.03.12.06.18.1l5,3c.31.18.51.5.51.86v4c0,2.76-2.24,5-5,5Z"/>
      </g>
      <text class="cls-5" transform="translate(41.95 18.17)"><tspan class="cls-4" x="0" y="0">¿</tspan><tspan class="cls-3" x="3.3" y="0">QUIEN SOY?</tspan></text>
    </g>
  </g>
</svg>