<?xml version="1.0" encoding="UTF-8"?>
<svg id="Capa_2" data-name="Capa 2" xmlns="http://www.w3.org/2000/svg" viewBox="0 0 90.1 31.46">
  <defs>
    <style>
      .cls-1 {
        fill: #fcfcfc;
        font-family: RevxNeueDemo-SemiBold, 'Revx Neue Demo';
        font-size: 8.12px;
        font-weight: 600;
      }

      .cls-2 {
        fill: none;
      }

      .cls-2, .cls-3 {
        stroke-width: 0px;
      }

      .cls-3 {
        fill: #fff;
      }
    </style>
  </defs>
  <g id="Capa_1-2" data-name="Capa 1">
    <rect class="cls-2" width="90.1" height="31.46"/>
    <g>
      <text class="cls-1" transform="translate(58.65 13.5)"><tspan x="0" y="0">MIS </tspan><tspan x="-13.68" y="9.74">PROYECTOS</tspan></text>
      <g>
        <rect class="cls-3" x="6.72" y="17.1" width="15" height="1.36"/>
        <rect class="cls-3" x="6.72" y="21.19" width="15" height="1.36"/>
        <rect class="cls-3" x="6.72" y="4.82" width="9" height="1.36"/>
        <rect class="cls-3" x="6.72" y="25.28" width="15" height="1.36"/>
        <rect class="cls-3" x="6.72" y="13" width="15" height="1.36"/>
        <path class="cls-3" d="m25.49,30.73s.73,0,.73-.67V6.73L19.67.73H2.94s-.73,0-.73.67v28.66c0,.67.73.67.73.67h22.54ZM3.72,2.1h15v4.09c0,1.36,1.5,1.36,1.5,1.36h4.5v21.82H3.72V2.1Z"/>
        <rect class="cls-3" x="6.72" y="8.91" width="15" height="1.36"/>
      </g>
    </g>
  </g>
</svg>