<?xml version="1.0" encoding="UTF-8"?>
<svg id="Capa_2" data-name="Capa 2" xmlns="http://www.w3.org/2000/svg" viewBox="0 0 378.38 472.62">
  <defs>
    <style>
      .cls-1 {
        fill: #fff;
      }
    </style>
  </defs>
  <g id="Capa_1-2" data-name="Capa 1">
    <g>
      <g>
        <ellipse class="cls-1" cx="189.31" cy="189.05" rx="47.26" ry="47.24"/>
        <rect class="cls-1" x="183.48" y="0" width="11.66" height="132.57" rx="2.63" ry="2.63"/>
        <rect class="cls-1" x="183.48" y="245.54" width="11.66" height="36.42" rx="2.63" ry="2.63" transform="translate(378.62 527.5) rotate(180)"/>
        <rect class="cls-1" x="236.3" y="223.66" width="11.66" height="36.42" rx="2.63" ry="2.63" transform="translate(584.37 241.69) rotate(135)"/>
        <rect class="cls-1" x="130.66" y="223.66" width="11.66" height="36.42" rx="2.63" ry="2.63" transform="translate(61.98 509.42) rotate(-135)"/>
        <rect class="cls-1" x="258.18" y="170.85" width="11.66" height="36.42" rx="2.63" ry="2.63" transform="translate(453.06 -74.95) rotate(90)"/>
        <rect class="cls-1" x="236.3" y="118.03" width="11.66" height="36.42" rx="2.63" ry="2.63" transform="translate(167.25 -131.31) rotate(45)"/>
        <rect class="cls-1" x="108.79" y="170.85" width="11.66" height="36.42" rx="2.63" ry="2.63" transform="translate(-74.44 303.67) rotate(-90)"/>
        <rect class="cls-1" x="130.66" y="118.03" width="11.66" height="36.42" rx="2.63" ry="2.63" transform="translate(-56.36 136.42) rotate(-45)"/>
        <path class="cls-1" d="m374.54,179.98h-35.64c-2.65,0-5.31-.27-7.88-.92-6.22-1.57-13.43-5.3-17.87-13.87-1.04-2.01-1.75-4.16-2.3-6.35-11.72-47.29-50.33-83.96-98.67-92.87-1.2-.22-2.31.72-2.31,1.94v19.73c0,.93.65,1.72,1.56,1.92,46.61,10.3,81.23,52.51,79.77,102.55-1.56,53.46-47.64,98.47-101.12,98.84-56.61.4-102.63-45.37-102.63-101.89,0-48.66,34.11-89.36,79.73-99.48.91-.2,1.56-.99,1.56-1.92v-19.71c0-1.23-1.12-2.18-2.33-1.96-48.27,8.94-86.81,45.57-98.54,92.8-.31,1.23-.66,2.45-1.13,3.63-4.21,10.51-12.19,14.87-19.03,16.62-2.61.67-5.31.95-8.01.95H3.84c-2.12,0-3.84,1.75-3.84,3.91v10.38c0,2.16,1.72,3.91,3.84,3.91h36.64c1.49,0,2.99.1,4.46.35,7.02,1.19,16.23,4.9,21.2,15.77.74,1.63,1.27,3.34,1.7,5.07,13.5,54.71,62.77,94.98,121.78,94.86,58.59-.12,107.72-40.49,121.23-94.93.54-2.16,1.24-4.28,2.26-6.26,4.19-8.16,10.87-11.96,16.87-13.68,2.9-.83,5.92-1.18,8.94-1.18h.14s35.49,0,35.49,0c2.12,0,3.84-1.75,3.84-3.91v-10.38c0-2.16-1.72-3.91-3.84-3.91Z"/>
      </g>
      <g>
        <path class="cls-1" d="m79.92,335.06v60.23c0,6.56-5.32,11.88-11.88,11.88-3.28,0-6.25-1.33-8.4-3.48-2.15-2.15-3.47-5.12-3.47-8.4v-20.88H23.9v20.88c0,6.56-5.32,11.88-11.88,11.88S.14,401.84.14,395.28v-60.23c0-6.56,5.31-11.88,11.88-11.88,3.27,0,6.25,1.33,8.4,3.48,2.15,2.15,3.48,5.11,3.48,8.4v19.67h32.27v-19.67c0-6.56,5.31-11.88,11.88-11.88s11.88,5.32,11.88,11.88Z"/>
        <path class="cls-1" d="m147.8,408.84c-6.64,0-12.82-1.08-18.53-3.24-5.72-2.16-10.66-5.22-14.82-9.18-4.16-3.96-7.42-8.6-9.78-13.91-2.36-5.32-3.54-11.14-3.54-17.45s1.18-12,3.54-17.27c2.36-5.28,5.62-9.9,9.78-13.86,4.16-3.96,9.08-7.02,14.76-9.18,5.68-2.16,11.88-3.24,18.59-3.24s12.91,1.08,18.59,3.24c5.68,2.16,10.6,5.2,14.76,9.12,4.16,3.92,7.42,8.52,9.78,13.8,2.36,5.28,3.54,11.08,3.54,17.4s-1.16,12.26-3.48,17.57c-2.32,5.32-5.58,9.94-9.78,13.86-4.2,3.92-9.14,6.96-14.82,9.12-5.68,2.16-11.88,3.24-18.59,3.24Zm0-19.67c3.2,0,6.18-.56,8.94-1.68,2.76-1.12,5.16-2.74,7.2-4.86,2.04-2.12,3.64-4.64,4.8-7.56,1.16-2.92,1.74-6.22,1.74-9.9s-.58-6.98-1.74-9.9c-1.16-2.92-2.76-5.44-4.8-7.56-2.04-2.12-4.44-3.74-7.2-4.86-2.76-1.12-5.74-1.68-8.94-1.68s-6.18.56-8.94,1.68c-2.76,1.12-5.18,2.74-7.26,4.86-2.08,2.12-3.68,4.64-4.8,7.56-1.12,2.92-1.68,6.22-1.68,9.9s.56,6.98,1.68,9.9c1.12,2.92,2.72,5.44,4.8,7.56,2.08,2.12,4.5,3.74,7.26,4.86,2.76,1.12,5.74,1.68,8.94,1.68Z"/>
        <path class="cls-1" d="m286.75,337.64c-3-4.68-7.3-8.26-12.9-10.74-5.6-2.48-12.23-3.72-19.91-3.72h-26.39c-6.56,0-11.88,5.32-11.88,11.88v60.22c0,3.27,1.33,6.25,3.48,8.4,2.15,2.15,5.11,3.48,8.4,3.48,6.56,0,11.88-5.32,11.88-11.88v-10.07h14.51c7.68,0,14.31-1.27,19.91-3.78,5.6-2.52,9.9-6.08,12.9-10.68,3.01-4.59,4.5-10.14,4.5-16.61s-1.5-11.82-4.5-16.49Zm-23.09,25.55c-2.48,2.12-6.2,3.18-11.16,3.18h-13.07v-24.47h13.07c4.96,0,8.68,1.1,11.16,3.3,2.48,2.2,3.73,5.18,3.73,8.93s-1.24,6.94-3.73,9.05Z"/>
        <path class="cls-1" d="m378.2,398.34c.39,5.14-3.6,9.68-8.82,9.66h-48.1c-4.87,0-8.82-3.95-8.82-8.82v-66.31c0-4.88,3.96-8.84,8.85-8.84h48.07c5.21-.03,9.22,4.51,8.82,9.65,0,4.87-3.94,8.82-8.82,8.82h-30.41c-1.73,0-3.12,1.4-3.12,3.12v10.07h28.87c5.4,0,10.04,3.8,10.13,8.67.08,4.94-4.32,8.96-9.78,8.96h-29.21v13.08c0,1.72,1.4,3.11,3.12,3.11h30.41c4.87,0,8.82,3.95,8.82,8.82Z"/>
      </g>
      <g>
        <path class="cls-1" d="m.14,472.62v-56.51h24.01c6.08,0,11.44,1.18,16.08,3.55,4.64,2.37,8.25,5.68,10.83,9.93,2.58,4.25,3.87,9.18,3.87,14.77s-1.29,10.52-3.87,14.77c-2.58,4.25-6.19,7.56-10.83,9.93-4.64,2.37-10,3.55-16.08,3.55H.14Zm8.14-7.02h15.38c4.72,0,8.8-.89,12.25-2.66,3.45-1.78,6.12-4.26,8.02-7.47,1.9-3.2,2.85-6.9,2.85-11.1s-.95-7.96-2.85-11.14c-1.9-3.18-4.57-5.65-8.02-7.43-3.45-1.78-7.53-2.66-12.25-2.66h-15.38v42.46Z"/>
        <polygon class="cls-1" points="122.4 465.6 122.4 472.62 81.05 472.62 81.05 416.11 121.26 416.11 121.26 423.13 89.19 423.13 89.19 440.49 117.75 440.49 117.75 447.35 89.19 447.35 89.19 465.6 122.4 465.6"/>
        <path class="cls-1" d="m165.86,472.62c-4.34,0-8.49-.64-12.45-1.93-3.96-1.29-7.08-2.96-9.36-5.01l3.01-6.16c2.17,1.84,4.94,3.37,8.3,4.58,3.36,1.21,6.86,1.82,10.5,1.82,3.31,0,6-.37,8.06-1.11,2.06-.74,3.58-1.75,4.56-3.04.98-1.29,1.46-2.75,1.46-4.38,0-1.89-.64-3.42-1.91-4.58-1.28-1.16-2.93-2.09-4.96-2.8-2.04-.71-4.27-1.33-6.72-1.85-2.44-.53-4.9-1.14-7.37-1.85-2.47-.71-4.72-1.62-6.76-2.72-2.03-1.11-3.68-2.59-4.92-4.46-1.25-1.87-1.87-4.27-1.87-7.22s.77-5.46,2.32-7.85c1.55-2.39,3.93-4.31,7.16-5.76,3.23-1.45,7.34-2.17,12.33-2.17,3.31,0,6.59.42,9.85,1.26,3.26.84,6.08,2.05,8.47,3.63l-2.69,6.31c-2.44-1.58-5.02-2.72-7.73-3.43-2.71-.71-5.35-1.07-7.9-1.07-3.2,0-5.83.39-7.9,1.18-2.06.79-3.57,1.84-4.52,3.16-.95,1.32-1.42,2.79-1.42,4.42,0,1.95.64,3.5,1.91,4.66,1.27,1.16,2.93,2.08,4.97,2.76,2.04.68,4.27,1.3,6.71,1.85,2.44.55,4.9,1.17,7.37,1.85,2.47.68,4.72,1.58,6.76,2.68,2.04,1.11,3.68,2.58,4.92,4.42,1.25,1.84,1.87,4.21,1.87,7.1s-.79,5.38-2.36,7.77c-1.57,2.4-4,4.32-7.29,5.76-3.28,1.45-7.42,2.17-12.41,2.17Z"/>
        <path class="cls-1" d="m213.48,472.61v-56.5h8.14v56.5h-8.14Z"/>
        <path class="cls-1" d="m291.86,444.05h7.81v21.55c-2.82,2.31-6.12,4.06-9.89,5.24-3.77,1.19-7.66,1.78-11.68,1.78-4.4,0-8.44-.7-12.13-2.09-3.69-1.4-6.89-3.37-9.6-5.92-2.71-2.56-4.83-5.54-6.35-8.96-1.52-3.41-2.27-7.18-2.27-11.28s.76-7.87,2.27-11.29c1.52-3.42,3.65-6.41,6.39-8.96,2.74-2.55,5.96-4.52,9.65-5.92,3.69-1.39,7.76-2.09,12.21-2.09s8.63.71,12.37,2.13c3.75,1.41,6.92,3.55,9.53,6.39l-5.05,4.89c-2.33-2.21-4.87-3.82-7.61-4.85-2.74-1.02-5.72-1.54-8.91-1.54s-6.28.53-9.08,1.58c-2.79,1.06-5.2,2.53-7.24,4.42-2.03,1.9-3.61,4.14-4.72,6.75-1.11,2.61-1.67,5.44-1.67,8.49s.56,5.8,1.67,8.4c1.11,2.61,2.69,4.87,4.72,6.79,2.04,1.92,4.43,3.41,7.21,4.46,2.76,1.05,5.78,1.58,9.03,1.58,3.04,0,5.95-.46,8.75-1.39,1.6-.53,3.13-1.26,4.6-2.2v-17.96Z"/>
        <polygon class="cls-1" points="378.23 416.11 378.23 472.62 371.51 472.62 337.09 430.51 337.09 472.62 328.89 472.62 328.89 416.11 335.61 416.11 370.04 458.21 370.04 416.11 378.23 416.11"/>
      </g>
    </g>
  </g>
</svg>