<?xml version="1.0" encoding="UTF-8"?>
<svg id="Capa_2" data-name="Capa 2" xmlns="http://www.w3.org/2000/svg" xmlns:xlink="http://www.w3.org/1999/xlink" viewBox="0 0 626 423">
  <defs>
    <style>
      .cls-1 {
        fill: #fff;
      }

      .cls-2 {
        fill: #007f18;
        stroke: #00c129;
        stroke-miterlimit: 10;
        stroke-width: 4px;
      }

      .cls-3 {
        clip-path: url(#clippath);
      }

      .cls-4 {
        fill: none;
      }
    </style>
    <clipPath id="clippath">
      <rect class="cls-4" width="626" height="423"/>
    </clipPath>
  </defs>
  <g id="Capa_1-2" data-name="Capa 1">
    <g class="cls-3">
      <g>
        <path class="cls-2" d="m4.15,4.18v414.66h617.71V4.18h-337.87l-33.88,33.97H114.07L80.58,4.57l-76.44-.4Z"/>
        <path class="cls-1" d="m55.24,77.09l1,18.24h-5.92l.96-18.24h3.96Zm-1.96-9.52c.93,0,1.69.31,2.28.92.59.59.88,1.32.88,2.2,0,.83-.29,1.55-.88,2.16-.59.59-1.35.88-2.28.88s-1.71-.29-2.32-.88c-.61-.61-.92-1.33-.92-2.16,0-.88.31-1.61.92-2.2.61-.61,1.39-.92,2.32-.92Zm14.09,5.24h13.92v4.28h-13.92v-4.28Zm.4,12h15.8v4.36h-21v-28h20.44v4.36h-15.24v19.28Zm22.6,12.4c-1.04,0-2.08-.17-3.12-.52-1.04-.35-1.91-.83-2.6-1.44l2-3.68c.51.45,1.08.81,1.72,1.08.64.27,1.29.4,1.96.4.91,0,1.64-.23,2.2-.68.56-.45,1.08-1.21,1.56-2.28l1.24-2.8.4-.6,8.08-18.88h4.8l-10,23.08c-.67,1.6-1.41,2.87-2.24,3.8-.8.93-1.71,1.59-2.72,1.96-.99.37-2.08.56-3.28.56Zm4.4-7.28l-9.64-22.12h5.2l7.84,18.44-3.4,3.68Zm37.06-.48c-2.05,0-3.91-.45-5.56-1.36-1.63-.91-2.91-2.17-3.84-3.8-.93-1.65-1.4-3.59-1.4-5.8s.47-4.13,1.4-5.76c.93-1.63,2.21-2.89,3.84-3.8,1.65-.91,3.51-1.36,5.56-1.36,1.84,0,3.45.4,4.84,1.2,1.41.77,2.52,1.96,3.32,3.56.83,1.6,1.24,3.65,1.24,6.16s-.43,4.53-1.28,6.16c-.83,1.6-1.95,2.8-3.36,3.6-1.41.8-3,1.2-4.76,1.2Zm.56-4.28c1.2,0,2.28-.27,3.24-.8.96-.53,1.72-1.31,2.28-2.32.56-1.01.84-2.2.84-3.56s-.28-2.57-.84-3.56c-.56-1.01-1.32-1.79-2.28-2.32-.96-.53-2.04-.8-3.24-.8s-2.28.27-3.24.8c-.93.53-1.68,1.31-2.24,2.32-.56.99-.84,2.17-.84,3.56s.28,2.55.84,3.56c.56,1.01,1.31,1.79,2.24,2.32.96.53,2.04.8,3.24.8Zm6.28,11.76v-12.72l.4-5.68-.16-5.68v-5.04h4.76v29.12h-5Zm20.58-7.48c-1.81,0-3.41-.33-4.8-1-1.39-.69-2.47-1.73-3.24-3.12-.77-1.41-1.16-3.19-1.16-5.32v-12.2h5v11.52c0,1.92.43,3.36,1.28,4.32.88.93,2.12,1.4,3.72,1.4,1.17,0,2.19-.24,3.04-.72.88-.48,1.56-1.2,2.04-2.16.51-.96.76-2.15.76-3.56v-10.8h5v21.36h-4.76v-5.76l.84,1.76c-.72,1.39-1.77,2.45-3.16,3.2-1.39.72-2.91,1.08-4.56,1.08Zm28.23,0c-2.37,0-4.45-.47-6.24-1.4-1.76-.96-3.13-2.27-4.12-3.92-.96-1.65-1.44-3.53-1.44-5.64s.47-4.01,1.4-5.64c.96-1.65,2.27-2.95,3.92-3.88,1.68-.93,3.59-1.4,5.72-1.4s3.93.45,5.56,1.36c1.63.91,2.91,2.19,3.84,3.84.93,1.65,1.4,3.6,1.4,5.84,0,.21-.01.45-.04.72,0,.27-.01.52-.04.76h-17.8v-3.32h15.16l-1.96,1.04c.03-1.23-.23-2.31-.76-3.24-.53-.93-1.27-1.67-2.2-2.2-.91-.53-1.96-.8-3.16-.8s-2.31.27-3.24.8c-.91.53-1.63,1.28-2.16,2.24-.51.93-.76,2.04-.76,3.32v.8c0,1.28.29,2.41.88,3.4.59.99,1.41,1.75,2.48,2.28,1.07.53,2.29.8,3.68.8,1.2,0,2.28-.19,3.24-.56.96-.37,1.81-.96,2.56-1.76l2.68,3.08c-.96,1.12-2.17,1.99-3.64,2.6-1.44.59-3.09.88-4.96.88Zm33.94,0c-2.35,0-4.16-.6-5.44-1.8-1.28-1.23-1.92-3.03-1.92-5.4v-19.16h5v19.04c0,1.01.25,1.8.76,2.36.53.56,1.27.84,2.2.84,1.12,0,2.05-.29,2.8-.88l1.4,3.56c-.59.48-1.31.84-2.16,1.08-.85.24-1.73.36-2.64.36Zm-10.88-17.48v-4h14.24v4h-14.24Zm32.95,17.2v-4.32l-.28-.92v-7.56c0-1.47-.44-2.6-1.32-3.4-.88-.83-2.21-1.24-4-1.24-1.2,0-2.39.19-3.56.56-1.15.37-2.12.89-2.92,1.56l-1.96-3.64c1.15-.88,2.51-1.53,4.08-1.96,1.6-.45,3.25-.68,4.96-.68,3.09,0,5.48.75,7.16,2.24,1.71,1.47,2.56,3.75,2.56,6.84v12.52h-4.72Zm-6.72.28c-1.6,0-3-.27-4.2-.8-1.2-.56-2.13-1.32-2.8-2.28-.64-.99-.96-2.09-.96-3.32s.28-2.28.84-3.24c.59-.96,1.53-1.72,2.84-2.28,1.31-.56,3.04-.84,5.2-.84h6.2v3.32h-5.84c-1.71,0-2.85.28-3.44.84-.59.53-.88,1.2-.88,2,0,.91.36,1.63,1.08,2.16.72.53,1.72.8,3,.8s2.32-.28,3.28-.84c.99-.56,1.69-1.39,2.12-2.48l.84,3c-.48,1.25-1.35,2.23-2.6,2.92-1.23.69-2.79,1.04-4.68,1.04Zm17.86-.28v-29.68h5v29.68h-5Zm11.88-9.28l-.96-18.72h5.92l-1,18.72h-3.96Zm2,9.56c-.93,0-1.71-.31-2.32-.92-.61-.61-.92-1.35-.92-2.2s.31-1.57.92-2.16c.61-.61,1.39-.92,2.32-.92s1.69.31,2.28.92c.59.59.88,1.31.88,2.16s-.29,1.59-.88,2.2c-.59.61-1.35.92-2.28.92Zm20.35-.28v-28h13.12c3.36,0,5.92.67,7.68,2,1.76,1.31,2.64,3.07,2.64,5.28,0,1.49-.35,2.77-1.04,3.84-.69,1.04-1.63,1.85-2.8,2.44-1.15.56-2.4.84-3.76.84l.72-1.44c1.57,0,2.99.29,4.24.88,1.25.56,2.24,1.39,2.96,2.48.75,1.09,1.12,2.45,1.12,4.08,0,2.4-.92,4.27-2.76,5.6-1.84,1.33-4.57,2-8.2,2h-13.92Zm5.2-4.08h8.4c1.95,0,3.44-.32,4.48-.96,1.04-.64,1.56-1.67,1.56-3.08s-.52-2.4-1.56-3.04c-1.04-.67-2.53-1-4.48-1h-8.8v-4.04h7.76c1.81,0,3.2-.32,4.16-.96.99-.64,1.48-1.6,1.48-2.88s-.49-2.28-1.48-2.92c-.96-.64-2.35-.96-4.16-.96h-7.36v19.84Zm24.75,4.08v-21.36h5v21.36h-5Zm2.52-24.88c-.93,0-1.71-.29-2.32-.88-.59-.59-.88-1.29-.88-2.12s.29-1.56.88-2.12c.61-.59,1.39-.88,2.32-.88s1.69.28,2.28.84c.61.53.92,1.21.92,2.04,0,.88-.29,1.63-.88,2.24-.59.59-1.36.88-2.32.88Zm19.08,25.16c-2.37,0-4.45-.47-6.24-1.4-1.76-.96-3.13-2.27-4.12-3.92-.96-1.65-1.44-3.53-1.44-5.64s.47-4.01,1.4-5.64c.96-1.65,2.27-2.95,3.92-3.88,1.68-.93,3.59-1.4,5.72-1.4s3.93.45,5.56,1.36c1.63.91,2.91,2.19,3.84,3.84.93,1.65,1.4,3.6,1.4,5.84,0,.21-.01.45-.04.72,0,.27-.01.52-.04.76h-17.8v-3.32h15.16l-1.96,1.04c.03-1.23-.23-2.31-.76-3.24-.53-.93-1.27-1.67-2.2-2.2-.91-.53-1.96-.8-3.16-.8s-2.31.27-3.24.8c-.91.53-1.63,1.28-2.16,2.24-.51.93-.76,2.04-.76,3.32v.8c0,1.28.29,2.41.88,3.4.59.99,1.41,1.75,2.48,2.28,1.07.53,2.29.8,3.68.8,1.2,0,2.28-.19,3.24-.56.96-.37,1.81-.96,2.56-1.76l2.68,3.08c-.96,1.12-2.17,1.99-3.64,2.6-1.44.59-3.09.88-4.96.88Zm26.96-21.88c1.71,0,3.23.33,4.56,1,1.36.67,2.43,1.69,3.2,3.08.77,1.36,1.16,3.12,1.16,5.28v12.24h-5v-11.6c0-1.89-.45-3.31-1.36-4.24-.88-.93-2.12-1.4-3.72-1.4-1.17,0-2.21.24-3.12.72-.91.48-1.61,1.2-2.12,2.16-.48.93-.72,2.12-.72,3.56v10.8h-5v-21.36h4.76v5.76l-.84-1.76c.75-1.36,1.83-2.4,3.24-3.12,1.44-.75,3.09-1.12,4.96-1.12Zm20.55,21.6l-9.16-21.36h5.2l7.88,18.84h-2.56l8.16-18.84h4.8l-9.16,21.36h-5.16Zm26.9.28c-2.37,0-4.45-.47-6.24-1.4-1.76-.96-3.13-2.27-4.12-3.92-.96-1.65-1.44-3.53-1.44-5.64s.47-4.01,1.4-5.64c.96-1.65,2.27-2.95,3.92-3.88,1.68-.93,3.59-1.4,5.72-1.4s3.93.45,5.56,1.36c1.63.91,2.91,2.19,3.84,3.84.93,1.65,1.4,3.6,1.4,5.84,0,.21-.01.45-.04.72,0,.27-.01.52-.04.76h-17.8v-3.32h15.16l-1.96,1.04c.03-1.23-.23-2.31-.76-3.24-.53-.93-1.27-1.67-2.2-2.2-.91-.53-1.96-.8-3.16-.8s-2.31.27-3.24.8c-.91.53-1.63,1.28-2.16,2.24-.51.93-.76,2.04-.76,3.32v.8c0,1.28.29,2.41.88,3.4.59.99,1.41,1.75,2.48,2.28,1.07.53,2.29.8,3.68.8,1.2,0,2.28-.19,3.24-.56.96-.37,1.81-.96,2.56-1.76l2.68,3.08c-.96,1.12-2.17,1.99-3.64,2.6-1.44.59-3.09.88-4.96.88Zm26.96-21.88c1.71,0,3.23.33,4.56,1,1.36.67,2.43,1.69,3.2,3.08.77,1.36,1.16,3.12,1.16,5.28v12.24h-5v-11.6c0-1.89-.45-3.31-1.36-4.24-.88-.93-2.12-1.4-3.72-1.4-1.17,0-2.21.24-3.12.72-.91.48-1.61,1.2-2.12,2.16-.48.93-.72,2.12-.72,3.56v10.8h-5v-21.36h4.76v5.76l-.84-1.76c.75-1.36,1.83-2.4,3.24-3.12,1.44-.75,3.09-1.12,4.96-1.12Zm15.26,21.6v-21.36h5v21.36h-5Zm2.52-24.88c-.93,0-1.71-.29-2.32-.88-.59-.59-.88-1.29-.88-2.12s.29-1.56.88-2.12c.61-.59,1.39-.88,2.32-.88s1.69.28,2.28.84c.61.53.92,1.21.92,2.04,0,.88-.29,1.63-.88,2.24-.59.59-1.36.88-2.32.88Zm18.08,25.16c-2.05,0-3.91-.45-5.56-1.36-1.63-.93-2.91-2.21-3.84-3.84-.93-1.63-1.4-3.55-1.4-5.76s.47-4.13,1.4-5.76c.93-1.63,2.21-2.89,3.84-3.8,1.65-.91,3.51-1.36,5.56-1.36,1.79,0,3.39.4,4.8,1.2,1.41.77,2.53,1.96,3.36,3.56.83,1.6,1.24,3.65,1.24,6.16s-.4,4.53-1.2,6.16c-.8,1.6-1.91,2.8-3.32,3.6-1.41.8-3.04,1.2-4.88,1.2Zm.6-4.28c1.2,0,2.27-.27,3.2-.8.96-.53,1.72-1.31,2.28-2.32.59-1.01.88-2.2.88-3.56s-.29-2.57-.88-3.56c-.56-1.01-1.32-1.79-2.28-2.32-.93-.53-2-.8-3.2-.8s-2.28.27-3.24.8c-.93.53-1.69,1.31-2.28,2.32-.56.99-.84,2.17-.84,3.56s.28,2.55.84,3.56c.59,1.01,1.35,1.79,2.28,2.32.96.53,2.04.8,3.24.8Zm6.48,4v-5.04l.2-5.68-.4-5.68v-13.28h4.96v29.68h-4.76Zm20.94.28c-2.19,0-4.13-.47-5.84-1.4-1.71-.96-3.05-2.27-4.04-3.92-.99-1.65-1.48-3.53-1.48-5.64s.49-4.01,1.48-5.64c.99-1.65,2.33-2.95,4.04-3.88,1.71-.93,3.65-1.4,5.84-1.4s4.17.47,5.88,1.4c1.73.93,3.08,2.21,4.04,3.84.99,1.63,1.48,3.52,1.48,5.68s-.49,3.99-1.48,5.64c-.96,1.65-2.31,2.96-4.04,3.92-1.71.93-3.67,1.4-5.88,1.4Zm0-4.28c1.23,0,2.32-.27,3.28-.8.96-.53,1.71-1.31,2.24-2.32.56-1.01.84-2.2.84-3.56s-.28-2.57-.84-3.56c-.53-1.01-1.28-1.79-2.24-2.32-.96-.53-2.04-.8-3.24-.8s-2.32.27-3.28.8c-.93.53-1.68,1.31-2.24,2.32-.56.99-.84,2.17-.84,3.56s.28,2.55.84,3.56c.56,1.01,1.31,1.79,2.24,2.32.96.53,2.04.8,3.24.8Zm40.39,4v-4.32l-.28-.92v-7.56c0-1.47-.44-2.6-1.32-3.4-.88-.83-2.21-1.24-4-1.24-1.2,0-2.39.19-3.56.56-1.15.37-2.12.89-2.92,1.56l-1.96-3.64c1.15-.88,2.51-1.53,4.08-1.96,1.6-.45,3.25-.68,4.96-.68,3.09,0,5.48.75,7.16,2.24,1.71,1.47,2.56,3.75,2.56,6.84v12.52h-4.72Zm-6.72.28c-1.6,0-3-.27-4.2-.8-1.2-.56-2.13-1.32-2.8-2.28-.64-.99-.96-2.09-.96-3.32s.28-2.28.84-3.24c.59-.96,1.53-1.72,2.84-2.28,1.31-.56,3.04-.84,5.2-.84h6.2v3.32h-5.84c-1.71,0-2.85.28-3.44.84-.59.53-.88,1.2-.88,2,0,.91.36,1.63,1.08,2.16.72.53,1.72.8,3,.8s2.32-.28,3.28-.84c.99-.56,1.69-1.39,2.12-2.48l.84,3c-.48,1.25-1.35,2.23-2.6,2.92-1.23.69-2.79,1.04-4.68,1.04ZM77.92,127.57c1.71,0,3.21.33,4.52,1,1.33.67,2.37,1.69,3.12,3.08.75,1.36,1.12,3.12,1.12,5.28v12.24h-5v-11.6c0-1.89-.41-3.31-1.24-4.24-.83-.93-2.01-1.4-3.56-1.4-1.09,0-2.07.24-2.92.72-.83.48-1.48,1.19-1.96,2.12-.45.93-.68,2.12-.68,3.56v10.84h-5v-11.6c0-1.89-.41-3.31-1.24-4.24-.83-.93-2.01-1.4-3.56-1.4-1.09,0-2.07.24-2.92.72-.83.48-1.48,1.19-1.96,2.12-.45.93-.68,2.12-.68,3.56v10.84h-5v-21.36h4.76v5.68l-.84-1.68c.72-1.39,1.76-2.44,3.12-3.16,1.39-.72,2.96-1.08,4.72-1.08,2,0,3.73.49,5.2,1.48,1.49.99,2.48,2.48,2.96,4.48l-1.96-.68c.69-1.6,1.84-2.88,3.44-3.84,1.6-.96,3.45-1.44,5.56-1.44Zm15.15,21.6v-21.36h5v21.36h-5Zm2.52-24.88c-.93,0-1.71-.29-2.32-.88-.59-.59-.88-1.29-.88-2.12s.29-1.56.88-2.12c.61-.59,1.39-.88,2.32-.88s1.69.28,2.28.84c.61.53.92,1.21.92,2.04,0,.88-.29,1.63-.88,2.24-.59.59-1.36.88-2.32.88Zm26.7,25.16c-1.79,0-3.51-.23-5.16-.68-1.63-.48-2.92-1.05-3.88-1.72l1.92-3.8c.96.61,2.11,1.12,3.44,1.52,1.33.4,2.67.6,4,.6,1.57,0,2.71-.21,3.4-.64.72-.43,1.08-1,1.08-1.72,0-.59-.24-1.03-.72-1.32-.48-.32-1.11-.56-1.88-.72-.77-.16-1.64-.31-2.6-.44-.93-.13-1.88-.31-2.84-.52-.93-.24-1.79-.57-2.56-1-.77-.45-1.4-1.05-1.88-1.8-.48-.75-.72-1.73-.72-2.96,0-1.36.39-2.53,1.16-3.52.77-1.01,1.85-1.79,3.24-2.32,1.41-.56,3.08-.84,5-.84,1.44,0,2.89.16,4.36.48,1.47.32,2.68.77,3.64,1.36l-1.92,3.8c-1.01-.61-2.04-1.03-3.08-1.24-1.01-.24-2.03-.36-3.04-.36-1.52,0-2.65.23-3.4.68-.72.45-1.08,1.03-1.08,1.72,0,.64.24,1.12.72,1.44.48.32,1.11.57,1.88.76.77.19,1.63.35,2.56.48.96.11,1.91.28,2.84.52.93.24,1.79.57,2.56,1,.8.4,1.44.97,1.92,1.72.48.75.72,1.72.72,2.92,0,1.33-.4,2.49-1.2,3.48-.77.99-1.88,1.76-3.32,2.32-1.44.53-3.16.8-5.16.8Zm13.99-.28v-21.36h5v21.36h-5Zm2.52-24.88c-.93,0-1.71-.29-2.32-.88-.59-.59-.88-1.29-.88-2.12s.29-1.56.88-2.12c.61-.59,1.39-.88,2.32-.88s1.69.28,2.28.84c.61.53.92,1.21.92,2.04,0,.88-.29,1.63-.88,2.24-.59.59-1.36.88-2.32.88Zm17.08,25.16c-2.35,0-4.16-.6-5.44-1.8-1.28-1.23-1.92-3.03-1.92-5.4v-19.16h5v19.04c0,1.01.25,1.8.76,2.36.53.56,1.27.84,2.2.84,1.12,0,2.05-.29,2.8-.88l1.4,3.56c-.59.48-1.31.84-2.16,1.08-.85.24-1.73.36-2.64.36Zm-10.88-17.48v-4h14.24v4h-14.24Zm19.79,17.2v-21.36h5v21.36h-5Zm2.52-24.88c-.93,0-1.71-.29-2.32-.88-.59-.59-.88-1.29-.88-2.12s.29-1.56.88-2.12c.61-.59,1.39-.88,2.32-.88s1.69.28,2.28.84c.61.53.92,1.21.92,2.04,0,.88-.29,1.63-.88,2.24-.59.59-1.36.88-2.32.88Zm18.64,25.16c-2.19,0-4.13-.47-5.84-1.4-1.71-.96-3.05-2.27-4.04-3.92-.99-1.65-1.48-3.53-1.48-5.64s.49-4.01,1.48-5.64c.99-1.65,2.33-2.95,4.04-3.88,1.71-.93,3.65-1.4,5.84-1.4s4.17.47,5.88,1.4c1.73.93,3.08,2.21,4.04,3.84.99,1.63,1.48,3.52,1.48,5.68s-.49,3.99-1.48,5.64c-.96,1.65-2.31,2.96-4.04,3.92-1.71.93-3.67,1.4-5.88,1.4Zm0-4.28c1.23,0,2.32-.27,3.28-.8.96-.53,1.71-1.31,2.24-2.32.56-1.01.84-2.2.84-3.56s-.28-2.57-.84-3.56c-.53-1.01-1.28-1.79-2.24-2.32-.96-.53-2.04-.8-3.24-.8s-2.32.27-3.28.8c-.93.53-1.68,1.31-2.24,2.32-.56.99-.84,2.17-.84,3.56s.28,2.55.84,3.56c.56,1.01,1.31,1.79,2.24,2.32.96.53,2.04.8,3.24.8Zm31.96,4l-7.84-21.36h4.72l6.72,18.84h-2.24l7.04-18.84h4.2l6.84,18.84h-2.2l6.92-18.84h4.44l-7.88,21.36h-4.8l-6.24-16.68h1.48l-6.36,16.68h-4.8Zm41.49.28c-2.37,0-4.45-.47-6.24-1.4-1.76-.96-3.13-2.27-4.12-3.92-.96-1.65-1.44-3.53-1.44-5.64s.47-4.01,1.4-5.64c.96-1.65,2.27-2.95,3.92-3.88,1.68-.93,3.59-1.4,5.72-1.4s3.93.45,5.56,1.36c1.63.91,2.91,2.19,3.84,3.84.93,1.65,1.4,3.6,1.4,5.84,0,.21-.01.45-.04.72,0,.27-.01.52-.04.76h-17.8v-3.32h15.16l-1.96,1.04c.03-1.23-.23-2.31-.76-3.24-.53-.93-1.27-1.67-2.2-2.2-.91-.53-1.96-.8-3.16-.8s-2.31.27-3.24.8c-.91.53-1.63,1.28-2.16,2.24-.51.93-.76,2.04-.76,3.32v.8c0,1.28.29,2.41.88,3.4.59.99,1.41,1.75,2.48,2.28,1.07.53,2.29.8,3.68.8,1.2,0,2.28-.19,3.24-.56.96-.37,1.81-.96,2.56-1.76l2.68,3.08c-.96,1.12-2.17,1.99-3.64,2.6-1.44.59-3.09.88-4.96.88Zm26.68,0c-1.81,0-3.43-.4-4.84-1.2-1.41-.8-2.53-2-3.36-3.6-.8-1.63-1.2-3.68-1.2-6.16s.41-4.56,1.24-6.16c.85-1.6,1.99-2.79,3.4-3.56,1.44-.8,3.03-1.2,4.76-1.2,2.11,0,3.96.45,5.56,1.36,1.63.91,2.91,2.17,3.84,3.8.96,1.63,1.44,3.55,1.44,5.76s-.48,4.13-1.44,5.76c-.93,1.63-2.21,2.91-3.84,3.84-1.6.91-3.45,1.36-5.56,1.36Zm-11.84-.28v-29.68h5v13.28l-.4,5.68.16,5.68v5.04h-4.76Zm11.28-4c1.2,0,2.27-.27,3.2-.8.96-.53,1.72-1.31,2.28-2.32.56-1.01.84-2.2.84-3.56s-.28-2.57-.84-3.56c-.56-1.01-1.32-1.79-2.28-2.32-.93-.53-2-.8-3.2-.8s-2.28.27-3.24.8c-.96.53-1.72,1.31-2.28,2.32-.56.99-.84,2.17-.84,3.56s.28,2.55.84,3.56c.56,1.01,1.32,1.79,2.28,2.32.96.53,2.04.8,3.24.8Zm14.47,10.04l2.32-8.84.68,2.96c-.93,0-1.72-.28-2.36-.84-.61-.59-.92-1.37-.92-2.36s.31-1.81.92-2.4c.64-.61,1.41-.92,2.32-.92s1.71.31,2.32.92c.61.61.92,1.41.92,2.4,0,.27-.03.56-.08.88-.05.29-.15.64-.28,1.04-.11.4-.29.91-.56,1.52l-2.04,5.64h-3.24Zm35.3-6.04v-4.32l-.28-.92v-7.56c0-1.47-.44-2.6-1.32-3.4-.88-.83-2.21-1.24-4-1.24-1.2,0-2.39.19-3.56.56-1.15.37-2.12.89-2.92,1.56l-1.96-3.64c1.15-.88,2.51-1.53,4.08-1.96,1.6-.45,3.25-.68,4.96-.68,3.09,0,5.48.75,7.16,2.24,1.71,1.47,2.56,3.75,2.56,6.84v12.52h-4.72Zm-6.72.28c-1.6,0-3-.27-4.2-.8-1.2-.56-2.13-1.32-2.8-2.28-.64-.99-.96-2.09-.96-3.32s.28-2.28.84-3.24c.59-.96,1.53-1.72,2.84-2.28,1.31-.56,3.04-.84,5.2-.84h6.2v3.32h-5.84c-1.71,0-2.85.28-3.44.84-.59.53-.88,1.2-.88,2,0,.91.36,1.63,1.08,2.16.72.53,1.72.8,3,.8s2.32-.28,3.28-.84c.99-.56,1.69-1.39,2.12-2.48l.84,3c-.48,1.25-1.35,2.23-2.6,2.92-1.23.69-2.79,1.04-4.68,1.04Zm26.94,0c-2.05,0-3.91-.45-5.56-1.36-1.63-.91-2.91-2.17-3.84-3.8-.93-1.65-1.4-3.59-1.4-5.8s.47-4.13,1.4-5.76c.93-1.63,2.21-2.89,3.84-3.8,1.65-.91,3.51-1.36,5.56-1.36,1.84,0,3.45.4,4.84,1.2,1.41.77,2.52,1.96,3.32,3.56.83,1.6,1.24,3.65,1.24,6.16s-.43,4.53-1.28,6.16c-.83,1.6-1.95,2.8-3.36,3.6-1.41.8-3,1.2-4.76,1.2Zm.56-4.28c1.2,0,2.28-.27,3.24-.8.96-.53,1.72-1.31,2.28-2.32.56-1.01.84-2.2.84-3.56s-.28-2.57-.84-3.56c-.56-1.01-1.32-1.79-2.28-2.32-.96-.53-2.04-.8-3.24-.8s-2.28.27-3.24.8c-.93.53-1.68,1.31-2.24,2.32-.56.99-.84,2.17-.84,3.56s.28,2.55.84,3.56c.56,1.01,1.31,1.79,2.24,2.32.96.53,2.04.8,3.24.8Zm6.28,11.76v-12.72l.4-5.68-.16-5.68v-5.04h4.76v29.12h-5Zm20.58-7.48c-1.81,0-3.41-.33-4.8-1-1.39-.69-2.47-1.73-3.24-3.12-.77-1.41-1.16-3.19-1.16-5.32v-12.2h5v11.52c0,1.92.43,3.36,1.28,4.32.88.93,2.12,1.4,3.72,1.4,1.17,0,2.19-.24,3.04-.72.88-.48,1.56-1.2,2.04-2.16.51-.96.76-2.15.76-3.56v-10.8h5v21.36h-4.76v-5.76l.84,1.76c-.72,1.39-1.77,2.45-3.16,3.2-1.39.72-2.91,1.08-4.56,1.08Zm18.19-.28v-21.36h5v21.36h-5Zm-.84-24.28l5.4-5.48h5.88l-6.96,5.48h-4.32ZM60.76,209.45c-2.24,0-4.24-.47-6-1.4-1.73-.96-3.09-2.27-4.08-3.92-.99-1.65-1.48-3.53-1.48-5.64s.49-4.01,1.48-5.64c.99-1.65,2.35-2.95,4.08-3.88,1.76-.93,3.76-1.4,6-1.4,2.08,0,3.91.43,5.48,1.28,1.6.83,2.81,2.05,3.64,3.68l-3.84,2.24c-.64-1.01-1.43-1.76-2.36-2.24-.91-.48-1.89-.72-2.96-.72-1.23,0-2.33.27-3.32.8-.99.53-1.76,1.31-2.32,2.32-.56.99-.84,2.17-.84,3.56s.28,2.59.84,3.6c.56.99,1.33,1.75,2.32,2.28.99.53,2.09.8,3.32.8,1.07,0,2.05-.24,2.96-.72.93-.48,1.72-1.23,2.36-2.24l3.84,2.24c-.83,1.6-2.04,2.84-3.64,3.72-1.57.85-3.4,1.28-5.48,1.28Zm22.73,0c-2.19,0-4.13-.47-5.84-1.4-1.71-.96-3.05-2.27-4.04-3.92-.99-1.65-1.48-3.53-1.48-5.64s.49-4.01,1.48-5.64c.99-1.65,2.33-2.95,4.04-3.88,1.71-.93,3.65-1.4,5.84-1.4s4.17.47,5.88,1.4c1.73.93,3.08,2.21,4.04,3.84.99,1.63,1.48,3.52,1.48,5.68s-.49,3.99-1.48,5.64c-.96,1.65-2.31,2.96-4.04,3.92-1.71.93-3.67,1.4-5.88,1.4Zm0-4.28c1.23,0,2.32-.27,3.28-.8.96-.53,1.71-1.31,2.24-2.32.56-1.01.84-2.2.84-3.56s-.28-2.57-.84-3.56c-.53-1.01-1.28-1.79-2.24-2.32-.96-.53-2.04-.8-3.24-.8s-2.32.27-3.28.8c-.93.53-1.68,1.31-2.24,2.32-.56.99-.84,2.17-.84,3.56s.28,2.55.84,3.56c.56,1.01,1.31,1.79,2.24,2.32.96.53,2.04.8,3.24.8Zm28.3-17.6c1.71,0,3.23.33,4.56,1,1.36.67,2.43,1.69,3.2,3.08.77,1.36,1.16,3.12,1.16,5.28v12.24h-5v-11.6c0-1.89-.45-3.31-1.36-4.24-.88-.93-2.12-1.4-3.72-1.4-1.17,0-2.21.24-3.12.72-.91.48-1.61,1.2-2.12,2.16-.48.93-.72,2.12-.72,3.56v10.8h-5v-21.36h4.76v5.76l-.84-1.76c.75-1.36,1.83-2.4,3.24-3.12,1.44-.75,3.09-1.12,4.96-1.12Zm24.9,21.88c-2.19,0-4.13-.47-5.84-1.4-1.71-.96-3.05-2.27-4.04-3.92-.99-1.65-1.48-3.53-1.48-5.64s.49-4.01,1.48-5.64c.99-1.65,2.33-2.95,4.04-3.88,1.71-.93,3.65-1.4,5.84-1.4s4.17.47,5.88,1.4c1.73.93,3.08,2.21,4.04,3.84.99,1.63,1.48,3.52,1.48,5.68s-.49,3.99-1.48,5.64c-.96,1.65-2.31,2.96-4.04,3.92-1.71.93-3.67,1.4-5.88,1.4Zm0-4.28c1.23,0,2.32-.27,3.28-.8.96-.53,1.71-1.31,2.24-2.32.56-1.01.84-2.2.84-3.56s-.28-2.57-.84-3.56c-.53-1.01-1.28-1.79-2.24-2.32-.96-.53-2.04-.8-3.24-.8s-2.32.27-3.28.8c-.93.53-1.68,1.31-2.24,2.32-.56.99-.84,2.17-.84,3.56s.28,2.55.84,3.56c.56,1.01,1.31,1.79,2.24,2.32.96.53,2.04.8,3.24.8Zm25.98,4.28c-2.24,0-4.24-.47-6-1.4-1.73-.96-3.09-2.27-4.08-3.92-.99-1.65-1.48-3.53-1.48-5.64s.49-4.01,1.48-5.64c.99-1.65,2.35-2.95,4.08-3.88,1.76-.93,3.76-1.4,6-1.4,2.08,0,3.91.43,5.48,1.28,1.6.83,2.81,2.05,3.64,3.68l-3.84,2.24c-.64-1.01-1.43-1.76-2.36-2.24-.91-.48-1.89-.72-2.96-.72-1.23,0-2.33.27-3.32.8-.99.53-1.76,1.31-2.32,2.32-.56.99-.84,2.17-.84,3.56s.28,2.59.84,3.6c.56.99,1.33,1.75,2.32,2.28.99.53,2.09.8,3.32.8,1.07,0,2.05-.24,2.96-.72.93-.48,1.72-1.23,2.36-2.24l3.84,2.24c-.83,1.6-2.04,2.84-3.64,3.72-1.57.85-3.4,1.28-5.48,1.28Zm23.17,0c-2.37,0-4.45-.47-6.24-1.4-1.76-.96-3.13-2.27-4.12-3.92-.96-1.65-1.44-3.53-1.44-5.64s.47-4.01,1.4-5.64c.96-1.65,2.27-2.95,3.92-3.88,1.68-.93,3.59-1.4,5.72-1.4s3.93.45,5.56,1.36c1.63.91,2.91,2.19,3.84,3.84.93,1.65,1.4,3.6,1.4,5.84,0,.21-.01.45-.04.72,0,.27-.01.52-.04.76h-17.8v-3.32h15.16l-1.96,1.04c.03-1.23-.23-2.31-.76-3.24-.53-.93-1.27-1.67-2.2-2.2-.91-.53-1.96-.8-3.16-.8s-2.31.27-3.24.8c-.91.53-1.63,1.28-2.16,2.24-.51.93-.76,2.04-.76,3.32v.8c0,1.28.29,2.41.88,3.4.59.99,1.41,1.75,2.48,2.28,1.07.53,2.29.8,3.68.8,1.2,0,2.28-.19,3.24-.56.96-.37,1.81-.96,2.56-1.76l2.68,3.08c-.96,1.12-2.17,1.99-3.64,2.6-1.44.59-3.09.88-4.96.88Zm14.84-.28v-21.36h4.76v5.88l-.56-1.72c.64-1.44,1.64-2.53,3-3.28,1.39-.75,3.11-1.12,5.16-1.12v4.76c-.21-.05-.41-.08-.6-.08-.19-.03-.37-.04-.56-.04-1.89,0-3.4.56-4.52,1.68-1.12,1.09-1.68,2.73-1.68,4.92v10.36h-5Zm28.24,0v-4.32l-.28-.92v-7.56c0-1.47-.44-2.6-1.32-3.4-.88-.83-2.21-1.24-4-1.24-1.2,0-2.39.19-3.56.56-1.15.37-2.12.89-2.92,1.56l-1.96-3.64c1.15-.88,2.51-1.53,4.08-1.96,1.6-.45,3.25-.68,4.96-.68,3.09,0,5.48.75,7.16,2.24,1.71,1.47,2.56,3.75,2.56,6.84v12.52h-4.72Zm-6.72.28c-1.6,0-3-.27-4.2-.8-1.2-.56-2.13-1.32-2.8-2.28-.64-.99-.96-2.09-.96-3.32s.28-2.28.84-3.24c.59-.96,1.53-1.72,2.84-2.28,1.31-.56,3.04-.84,5.2-.84h6.2v3.32h-5.84c-1.71,0-2.85.28-3.44.84-.59.53-.88,1.2-.88,2,0,.91.36,1.63,1.08,2.16.72.53,1.72.8,3,.8s2.32-.28,3.28-.84c.99-.56,1.69-1.39,2.12-2.48l.84,3c-.48,1.25-1.35,2.23-2.6,2.92-1.23.69-2.79,1.04-4.68,1.04Zm24.46,0c-1.79,0-3.51-.23-5.16-.68-1.63-.48-2.92-1.05-3.88-1.72l1.92-3.8c.96.61,2.11,1.12,3.44,1.52,1.33.4,2.67.6,4,.6,1.57,0,2.71-.21,3.4-.64.72-.43,1.08-1,1.08-1.72,0-.59-.24-1.03-.72-1.32-.48-.32-1.11-.56-1.88-.72-.77-.16-1.64-.31-2.6-.44-.93-.13-1.88-.31-2.84-.52-.93-.24-1.79-.57-2.56-1-.77-.45-1.4-1.05-1.88-1.8-.48-.75-.72-1.73-.72-2.96,0-1.36.39-2.53,1.16-3.52.77-1.01,1.85-1.79,3.24-2.32,1.41-.56,3.08-.84,5-.84,1.44,0,2.89.16,4.36.48,1.47.32,2.68.77,3.64,1.36l-1.92,3.8c-1.01-.61-2.04-1.03-3.08-1.24-1.01-.24-2.03-.36-3.04-.36-1.52,0-2.65.23-3.4.68-.72.45-1.08,1.03-1.08,1.72,0,.64.24,1.12.72,1.44.48.32,1.11.57,1.88.76.77.19,1.63.35,2.56.48.96.11,1.91.28,2.84.52s1.79.57,2.56,1c.8.4,1.44.97,1.92,1.72.48.75.72,1.72.72,2.92,0,1.33-.4,2.49-1.2,3.48-.77.99-1.88,1.76-3.32,2.32-1.44.53-3.16.8-5.16.8Zm33.08,0c-2.35,0-4.16-.6-5.44-1.8-1.28-1.23-1.92-3.03-1.92-5.4v-19.16h5v19.04c0,1.01.25,1.8.76,2.36.53.56,1.27.84,2.2.84,1.12,0,2.05-.29,2.8-.88l1.4,3.56c-.59.48-1.31.84-2.16,1.08-.85.24-1.73.36-2.64.36Zm-10.88-17.48v-4h14.24v4h-14.24Zm28.69,17.48c-2.19,0-4.13-.47-5.84-1.4-1.71-.96-3.05-2.27-4.04-3.92-.99-1.65-1.48-3.53-1.48-5.64s.49-4.01,1.48-5.64c.99-1.65,2.33-2.95,4.04-3.88,1.71-.93,3.65-1.4,5.84-1.4s4.17.47,5.88,1.4c1.73.93,3.08,2.21,4.04,3.84.99,1.63,1.48,3.52,1.48,5.68s-.49,3.99-1.48,5.64c-.96,1.65-2.31,2.96-4.04,3.92-1.71.93-3.67,1.4-5.88,1.4Zm0-4.28c1.23,0,2.32-.27,3.28-.8.96-.53,1.71-1.31,2.24-2.32.56-1.01.84-2.2.84-3.56s-.28-2.57-.84-3.56c-.53-1.01-1.28-1.79-2.24-2.32-.96-.53-2.04-.8-3.24-.8s-2.32.27-3.28.8c-.93.53-1.68,1.31-2.24,2.32-.56.99-.84,2.17-.84,3.56s.28,2.55.84,3.56c.56,1.01,1.31,1.79,2.24,2.32.96.53,2.04.8,3.24.8Zm25.22,4.28c-2.05,0-3.91-.45-5.56-1.36-1.63-.93-2.91-2.21-3.84-3.84-.93-1.63-1.4-3.55-1.4-5.76s.47-4.13,1.4-5.76c.93-1.63,2.21-2.89,3.84-3.8,1.65-.91,3.51-1.36,5.56-1.36,1.79,0,3.39.4,4.8,1.2,1.41.77,2.53,1.96,3.36,3.56.83,1.6,1.24,3.65,1.24,6.16s-.4,4.53-1.2,6.16c-.8,1.6-1.91,2.8-3.32,3.6-1.41.8-3.04,1.2-4.88,1.2Zm.6-4.28c1.2,0,2.27-.27,3.2-.8.96-.53,1.72-1.31,2.28-2.32.59-1.01.88-2.2.88-3.56s-.29-2.57-.88-3.56c-.56-1.01-1.32-1.79-2.28-2.32-.93-.53-2-.8-3.2-.8s-2.28.27-3.24.8c-.93.53-1.69,1.31-2.28,2.32-.56.99-.84,2.17-.84,3.56s.28,2.55.84,3.56c.59,1.01,1.35,1.79,2.28,2.32.96.53,2.04.8,3.24.8Zm6.48,4v-5.04l.2-5.68-.4-5.68v-13.28h4.96v29.68h-4.76Zm20.94.28c-2.19,0-4.13-.47-5.84-1.4-1.71-.96-3.05-2.27-4.04-3.92-.99-1.65-1.48-3.53-1.48-5.64s.49-4.01,1.48-5.64c.99-1.65,2.33-2.95,4.04-3.88,1.71-.93,3.65-1.4,5.84-1.4s4.17.47,5.88,1.4c1.73.93,3.08,2.21,4.04,3.84.99,1.63,1.48,3.52,1.48,5.68s-.49,3.99-1.48,5.64c-.96,1.65-2.31,2.96-4.04,3.92-1.71.93-3.67,1.4-5.88,1.4Zm0-4.28c1.23,0,2.32-.27,3.28-.8.96-.53,1.71-1.31,2.24-2.32.56-1.01.84-2.2.84-3.56s-.28-2.57-.84-3.56c-.53-1.01-1.28-1.79-2.24-2.32-.96-.53-2.04-.8-3.24-.8s-2.32.27-3.28.8c-.93.53-1.68,1.31-2.24,2.32-.56.99-.84,2.17-.84,3.56s.28,2.55.84,3.56c.56,1.01,1.31,1.79,2.24,2.32.96.53,2.04.8,3.24.8Zm22.78,4.28c-1.79,0-3.51-.23-5.16-.68-1.63-.48-2.92-1.05-3.88-1.72l1.92-3.8c.96.61,2.11,1.12,3.44,1.52,1.33.4,2.67.6,4,.6,1.57,0,2.71-.21,3.4-.64.72-.43,1.08-1,1.08-1.72,0-.59-.24-1.03-.72-1.32-.48-.32-1.11-.56-1.88-.72-.77-.16-1.64-.31-2.6-.44-.93-.13-1.88-.31-2.84-.52-.93-.24-1.79-.57-2.56-1-.77-.45-1.4-1.05-1.88-1.8-.48-.75-.72-1.73-.72-2.96,0-1.36.39-2.53,1.16-3.52.77-1.01,1.85-1.79,3.24-2.32,1.41-.56,3.08-.84,5-.84,1.44,0,2.89.16,4.36.48,1.47.32,2.68.77,3.64,1.36l-1.92,3.8c-1.01-.61-2.04-1.03-3.08-1.24-1.01-.24-2.03-.36-3.04-.36-1.52,0-2.65.23-3.4.68-.72.45-1.08,1.03-1.08,1.72,0,.64.24,1.12.72,1.44.48.32,1.11.57,1.88.76.77.19,1.63.35,2.56.48.96.11,1.91.28,2.84.52.93.24,1.79.57,2.56,1,.8.4,1.44.97,1.92,1.72.48.75.72,1.72.72,2.92,0,1.33-.4,2.49-1.2,3.48-.77.99-1.88,1.76-3.32,2.32-1.44.53-3.16.8-5.16.8Zm52-21.88c1.71,0,3.21.33,4.52,1,1.33.67,2.37,1.69,3.12,3.08.75,1.36,1.12,3.12,1.12,5.28v12.24h-5v-11.6c0-1.89-.41-3.31-1.24-4.24-.83-.93-2.01-1.4-3.56-1.4-1.09,0-2.07.24-2.92.72-.83.48-1.48,1.19-1.96,2.12-.45.93-.68,2.12-.68,3.56v10.84h-5v-11.6c0-1.89-.41-3.31-1.24-4.24-.83-.93-2.01-1.4-3.56-1.4-1.09,0-2.07.24-2.92.72-.83.48-1.48,1.19-1.96,2.12-.45.93-.68,2.12-.68,3.56v10.84h-5v-21.36h4.76v5.68l-.84-1.68c.72-1.39,1.76-2.44,3.12-3.16,1.39-.72,2.96-1.08,4.72-1.08,2,0,3.73.49,5.2,1.48,1.49.99,2.48,2.48,2.96,4.48l-1.96-.68c.69-1.6,1.84-2.88,3.44-3.84,1.6-.96,3.45-1.44,5.56-1.44Zm15.15,21.6v-21.36h5v21.36h-5Zm2.52-24.88c-.93,0-1.71-.29-2.32-.88-.59-.59-.88-1.29-.88-2.12s.29-1.56.88-2.12c.61-.59,1.39-.88,2.32-.88s1.69.28,2.28.84c.61.53.92,1.21.92,2.04,0,.88-.29,1.63-.88,2.24-.59.59-1.36.88-2.32.88Zm15.64,25.16c-1.79,0-3.51-.23-5.16-.68-1.63-.48-2.92-1.05-3.88-1.72l1.92-3.8c.96.61,2.11,1.12,3.44,1.52,1.33.4,2.67.6,4,.6,1.57,0,2.71-.21,3.4-.64.72-.43,1.08-1,1.08-1.72,0-.59-.24-1.03-.72-1.32-.48-.32-1.11-.56-1.88-.72-.77-.16-1.64-.31-2.6-.44-.93-.13-1.88-.31-2.84-.52-.93-.24-1.79-.57-2.56-1-.77-.45-1.4-1.05-1.88-1.8-.48-.75-.72-1.73-.72-2.96,0-1.36.39-2.53,1.16-3.52.77-1.01,1.85-1.79,3.24-2.32,1.41-.56,3.08-.84,5-.84,1.44,0,2.89.16,4.36.48,1.47.32,2.68.77,3.64,1.36l-1.92,3.8c-1.01-.61-2.04-1.03-3.08-1.24-1.01-.24-2.03-.36-3.04-.36-1.52,0-2.65.23-3.4.68-.72.45-1.08,1.03-1.08,1.72,0,.64.24,1.12.72,1.44.48.32,1.11.57,1.88.76.77.19,1.63.35,2.56.48.96.11,1.91.28,2.84.52.93.24,1.79.57,2.56,1,.8.4,1.44.97,1.92,1.72.48.75.72,1.72.72,2.92,0,1.33-.4,2.49-1.2,3.48-.77.99-1.88,1.76-3.32,2.32-1.44.53-3.16.8-5.16.8Zm-396.09,60c-1.73,0-3.32-.4-4.76-1.2-1.41-.8-2.55-2-3.4-3.6-.83-1.63-1.24-3.68-1.24-6.16s.4-4.56,1.2-6.16c.83-1.6,1.95-2.79,3.36-3.56,1.41-.8,3.03-1.2,4.84-1.2,2.11,0,3.96.45,5.56,1.36,1.63.91,2.91,2.17,3.84,3.8.96,1.63,1.44,3.55,1.44,5.76s-.48,4.15-1.44,5.8c-.93,1.63-2.21,2.89-3.84,3.8-1.6.91-3.45,1.36-5.56,1.36Zm-11.84,7.48v-29.12h4.76v5.04l-.16,5.68.4,5.68v12.72h-5Zm11.28-11.76c1.2,0,2.27-.27,3.2-.8.96-.53,1.72-1.31,2.28-2.32.56-1.01.84-2.2.84-3.56s-.28-2.57-.84-3.56c-.56-1.01-1.32-1.79-2.28-2.32-.93-.53-2-.8-3.2-.8s-2.28.27-3.24.8c-.96.53-1.72,1.31-2.28,2.32-.56.99-.84,2.17-.84,3.56s.28,2.55.84,3.56c.56,1.01,1.32,1.79,2.28,2.32.96.53,2.04.8,3.24.8Zm16.14,4v-21.36h4.76v5.88l-.56-1.72c.64-1.44,1.64-2.53,3-3.28,1.39-.75,3.11-1.12,5.16-1.12v4.76c-.21-.05-.41-.08-.6-.08-.19-.03-.37-.04-.56-.04-1.89,0-3.4.56-4.52,1.68-1.12,1.09-1.68,2.73-1.68,4.92v10.36h-5Zm26.01.28c-2.19,0-4.13-.47-5.84-1.4-1.71-.96-3.05-2.27-4.04-3.92-.99-1.65-1.48-3.53-1.48-5.64s.49-4.01,1.48-5.64c.99-1.65,2.33-2.95,4.04-3.88,1.71-.93,3.65-1.4,5.84-1.4s4.17.47,5.88,1.4c1.73.93,3.08,2.21,4.04,3.84.99,1.63,1.48,3.52,1.48,5.68s-.49,3.99-1.48,5.64c-.96,1.65-2.31,2.96-4.04,3.92-1.71.93-3.67,1.4-5.88,1.4Zm0-4.28c1.23,0,2.32-.27,3.28-.8.96-.53,1.71-1.31,2.24-2.32.56-1.01.84-2.2.84-3.56s-.28-2.57-.84-3.56c-.53-1.01-1.28-1.79-2.24-2.32-.96-.53-2.04-.8-3.24-.8s-2.32.27-3.28.8c-.93.53-1.68,1.31-2.24,2.32-.56.99-.84,2.17-.84,3.56s.28,2.55.84,3.56c.56,1.01,1.31,1.79,2.24,2.32.96.53,2.04.8,3.24.8Zm17.36,12.04c-1.04,0-2.08-.17-3.12-.52-1.04-.35-1.91-.83-2.6-1.44l2-3.68c.51.45,1.08.81,1.72,1.08.64.27,1.29.4,1.96.4.91,0,1.64-.23,2.2-.68.56-.45,1.08-1.21,1.56-2.28l1.24-2.8.4-.6,8.08-18.88h4.8l-10,23.08c-.67,1.6-1.41,2.87-2.24,3.8-.8.93-1.71,1.59-2.72,1.96-.99.37-2.08.56-3.28.56Zm4.4-7.28l-9.64-22.12h5.2l7.84,18.44-3.4,3.68Zm26.42-.48c-2.37,0-4.45-.47-6.24-1.4-1.76-.96-3.13-2.27-4.12-3.92-.96-1.65-1.44-3.53-1.44-5.64s.47-4.01,1.4-5.64c.96-1.65,2.27-2.95,3.92-3.88,1.68-.93,3.59-1.4,5.72-1.4s3.93.45,5.56,1.36c1.63.91,2.91,2.19,3.84,3.84.93,1.65,1.4,3.6,1.4,5.84,0,.21-.01.45-.04.72,0,.27-.01.52-.04.76h-17.8v-3.32h15.16l-1.96,1.04c.03-1.23-.23-2.31-.76-3.24-.53-.93-1.27-1.67-2.2-2.2-.91-.53-1.96-.8-3.16-.8s-2.31.27-3.24.8c-.91.53-1.63,1.28-2.16,2.24-.51.93-.76,2.04-.76,3.32v.8c0,1.28.29,2.41.88,3.4.59.99,1.41,1.75,2.48,2.28,1.07.53,2.29.8,3.68.8,1.2,0,2.28-.19,3.24-.56.96-.37,1.81-.96,2.56-1.76l2.68,3.08c-.96,1.12-2.17,1.99-3.64,2.6-1.44.59-3.09.88-4.96.88Zm24.64,0c-2.24,0-4.24-.47-6-1.4-1.73-.96-3.09-2.27-4.08-3.92-.99-1.65-1.48-3.53-1.48-5.64s.49-4.01,1.48-5.64c.99-1.65,2.35-2.95,4.08-3.88,1.76-.93,3.76-1.4,6-1.4,2.08,0,3.91.43,5.48,1.28,1.6.83,2.81,2.05,3.64,3.68l-3.84,2.24c-.64-1.01-1.43-1.76-2.36-2.24-.91-.48-1.89-.72-2.96-.72-1.23,0-2.33.27-3.32.8-.99.53-1.76,1.31-2.32,2.32-.56.99-.84,2.17-.84,3.56s.28,2.59.84,3.6c.56.99,1.33,1.75,2.32,2.28.99.53,2.09.8,3.32.8,1.07,0,2.05-.24,2.96-.72.93-.48,1.72-1.23,2.36-2.24l3.84,2.24c-.83,1.6-2.04,2.84-3.64,3.72-1.57.85-3.4,1.28-5.48,1.28Zm21.76,0c-2.35,0-4.16-.6-5.44-1.8-1.28-1.23-1.92-3.03-1.92-5.4v-19.16h5v19.04c0,1.01.25,1.8.76,2.36.53.56,1.27.84,2.2.84,1.12,0,2.05-.29,2.8-.88l1.4,3.56c-.59.48-1.31.84-2.16,1.08-.85.24-1.73.36-2.64.36Zm-10.88-17.48v-4h14.24v4h-14.24Zm28.69,17.48c-2.19,0-4.13-.47-5.84-1.4-1.71-.96-3.05-2.27-4.04-3.92-.99-1.65-1.48-3.53-1.48-5.64s.49-4.01,1.48-5.64c.99-1.65,2.33-2.95,4.04-3.88,1.71-.93,3.65-1.4,5.84-1.4s4.17.47,5.88,1.4c1.73.93,3.08,2.21,4.04,3.84.99,1.63,1.48,3.52,1.48,5.68s-.49,3.99-1.48,5.64c-.96,1.65-2.31,2.96-4.04,3.92-1.71.93-3.67,1.4-5.88,1.4Zm0-4.28c1.23,0,2.32-.27,3.28-.8.96-.53,1.71-1.31,2.24-2.32.56-1.01.84-2.2.84-3.56s-.28-2.57-.84-3.56c-.53-1.01-1.28-1.79-2.24-2.32-.96-.53-2.04-.8-3.24-.8s-2.32.27-3.28.8c-.93.53-1.68,1.31-2.24,2.32-.56.99-.84,2.17-.84,3.56s.28,2.55.84,3.56c.56,1.01,1.31,1.79,2.24,2.32.96.53,2.04.8,3.24.8Zm22.78,4.28c-1.79,0-3.51-.23-5.16-.68-1.63-.48-2.92-1.05-3.88-1.72l1.92-3.8c.96.61,2.11,1.12,3.44,1.52,1.33.4,2.67.6,4,.6,1.57,0,2.71-.21,3.4-.64.72-.43,1.08-1,1.08-1.72,0-.59-.24-1.03-.72-1.32-.48-.32-1.11-.56-1.88-.72-.77-.16-1.64-.31-2.6-.44-.93-.13-1.88-.31-2.84-.52-.93-.24-1.79-.57-2.56-1-.77-.45-1.4-1.05-1.88-1.8-.48-.75-.72-1.73-.72-2.96,0-1.36.39-2.53,1.16-3.52.77-1.01,1.85-1.79,3.24-2.32,1.41-.56,3.08-.84,5-.84,1.44,0,2.89.16,4.36.48,1.47.32,2.68.77,3.64,1.36l-1.92,3.8c-1.01-.61-2.04-1.03-3.08-1.24-1.01-.24-2.03-.36-3.04-.36-1.52,0-2.65.23-3.4.68-.72.45-1.08,1.03-1.08,1.72,0,.64.24,1.12.72,1.44.48.32,1.11.57,1.88.76.77.19,1.63.35,2.56.48.96.11,1.91.28,2.84.52.93.24,1.79.57,2.56,1,.8.4,1.44.97,1.92,1.72.48.75.72,1.72.72,2.92,0,1.33-.4,2.49-1.2,3.48-.77.99-1.88,1.76-3.32,2.32-1.44.53-3.16.8-5.16.8Zm34.08,0c-2.05,0-3.91-.45-5.56-1.36-1.63-.93-2.91-2.21-3.84-3.84-.93-1.63-1.4-3.55-1.4-5.76s.47-4.13,1.4-5.76c.93-1.63,2.21-2.89,3.84-3.8,1.65-.91,3.51-1.36,5.56-1.36,1.79,0,3.39.4,4.8,1.2,1.41.77,2.53,1.96,3.36,3.56.83,1.6,1.24,3.65,1.24,6.16s-.4,4.53-1.2,6.16c-.8,1.6-1.91,2.8-3.32,3.6-1.41.8-3.04,1.2-4.88,1.2Zm.6-4.28c1.2,0,2.27-.27,3.2-.8.96-.53,1.72-1.31,2.28-2.32.59-1.01.88-2.2.88-3.56s-.29-2.57-.88-3.56c-.56-1.01-1.32-1.79-2.28-2.32-.93-.53-2-.8-3.2-.8s-2.28.27-3.24.8c-.93.53-1.69,1.31-2.28,2.32-.56.99-.84,2.17-.84,3.56s.28,2.55.84,3.56c.59,1.01,1.35,1.79,2.28,2.32.96.53,2.04.8,3.24.8Zm6.48,4v-5.04l.2-5.68-.4-5.68v-13.28h4.96v29.68h-4.76Zm21.38.28c-2.37,0-4.45-.47-6.24-1.4-1.76-.96-3.13-2.27-4.12-3.92-.96-1.65-1.44-3.53-1.44-5.64s.47-4.01,1.4-5.64c.96-1.65,2.27-2.95,3.92-3.88,1.68-.93,3.59-1.4,5.72-1.4s3.93.45,5.56,1.36c1.63.91,2.91,2.19,3.84,3.84.93,1.65,1.4,3.6,1.4,5.84,0,.21-.01.45-.04.72,0,.27-.01.52-.04.76h-17.8v-3.32h15.16l-1.96,1.04c.03-1.23-.23-2.31-.76-3.24-.53-.93-1.27-1.67-2.2-2.2-.91-.53-1.96-.8-3.16-.8s-2.31.27-3.24.8c-.91.53-1.63,1.28-2.16,2.24-.51.93-.76,2.04-.76,3.32v.8c0,1.28.29,2.41.88,3.4.59.99,1.41,1.75,2.48,2.28,1.07.53,2.29.8,3.68.8,1.2,0,2.28-.19,3.24-.56.96-.37,1.81-.96,2.56-1.76l2.68,3.08c-.96,1.12-2.17,1.99-3.64,2.6-1.44.59-3.09.88-4.96.88Zm-224.17,38.12c1.71,0,3.21.33,4.52,1,1.33.67,2.37,1.69,3.12,3.08.75,1.36,1.12,3.12,1.12,5.28v12.24h-5v-11.6c0-1.89-.41-3.31-1.24-4.24-.83-.93-2.01-1.4-3.56-1.4-1.09,0-2.07.24-2.92.72-.83.48-1.48,1.19-1.96,2.12-.45.93-.68,2.12-.68,3.56v10.84h-5v-11.6c0-1.89-.41-3.31-1.24-4.24-.83-.93-2.01-1.4-3.56-1.4-1.09,0-2.07.24-2.92.72-.83.48-1.48,1.19-1.96,2.12-.45.93-.68,2.12-.68,3.56v10.84h-5v-21.36h4.76v5.68l-.84-1.68c.72-1.39,1.76-2.44,3.12-3.16,1.39-.72,2.96-1.08,4.72-1.08,2,0,3.73.49,5.2,1.48,1.49.99,2.48,2.48,2.96,4.48l-1.96-.68c.69-1.6,1.84-2.88,3.44-3.84,1.6-.96,3.45-1.44,5.56-1.44Zm24.19,21.88c-1.81,0-3.41-.33-4.8-1-1.39-.69-2.47-1.73-3.24-3.12-.77-1.41-1.16-3.19-1.16-5.32v-12.2h5v11.52c0,1.92.43,3.36,1.28,4.32.88.93,2.12,1.4,3.72,1.4,1.17,0,2.19-.24,3.04-.72.88-.48,1.56-1.2,2.04-2.16.51-.96.76-2.15.76-3.56v-10.8h5v21.36h-4.76v-5.76l.84,1.76c-.72,1.39-1.77,2.45-3.16,3.2-1.39.72-2.91,1.08-4.56,1.08Zm18.19-.28v-29.68h5v29.68h-5Zm20.66.28c-2.35,0-4.16-.6-5.44-1.8-1.28-1.23-1.92-3.03-1.92-5.4v-19.16h5v19.04c0,1.01.25,1.8.76,2.36.53.56,1.27.84,2.2.84,1.12,0,2.05-.29,2.8-.88l1.4,3.56c-.59.48-1.31.84-2.16,1.08-.85.24-1.73.36-2.64.36Zm-10.88-17.48v-4h14.24v4h-14.24Zm19.79,17.2v-21.36h5v21.36h-5Zm2.52-24.88c-.93,0-1.71-.29-2.32-.88-.59-.59-.88-1.29-.88-2.12s.29-1.56.88-2.12c.61-.59,1.39-.88,2.32-.88s1.69.28,2.28.84c.61.53.92,1.21.92,2.04,0,.88-.29,1.63-.88,2.24-.59.59-1.36.88-2.32.88Zm36,3.28c1.71,0,3.21.33,4.52,1,1.33.67,2.37,1.69,3.12,3.08.75,1.36,1.12,3.12,1.12,5.28v12.24h-5v-11.6c0-1.89-.41-3.31-1.24-4.24-.83-.93-2.01-1.4-3.56-1.4-1.09,0-2.07.24-2.92.72-.83.48-1.48,1.19-1.96,2.12-.45.93-.68,2.12-.68,3.56v10.84h-5v-11.6c0-1.89-.41-3.31-1.24-4.24-.83-.93-2.01-1.4-3.56-1.4-1.09,0-2.07.24-2.92.72-.83.48-1.48,1.19-1.96,2.12-.45.93-.68,2.12-.68,3.56v10.84h-5v-21.36h4.76v5.68l-.84-1.68c.72-1.39,1.76-2.44,3.12-3.16,1.39-.72,2.96-1.08,4.72-1.08,2,0,3.73.49,5.2,1.48,1.49.99,2.48,2.48,2.96,4.48l-1.96-.68c.69-1.6,1.84-2.88,3.44-3.84s3.45-1.44,5.56-1.44Zm25.23,21.88c-2.37,0-4.45-.47-6.24-1.4-1.76-.96-3.13-2.27-4.12-3.92-.96-1.65-1.44-3.53-1.44-5.64s.47-4.01,1.4-5.64c.96-1.65,2.27-2.95,3.92-3.88,1.68-.93,3.59-1.4,5.72-1.4s3.93.45,5.56,1.36c1.63.91,2.91,2.19,3.84,3.84.93,1.65,1.4,3.6,1.4,5.84,0,.21-.01.45-.04.72,0,.27-.01.52-.04.76h-17.8v-3.32h15.16l-1.96,1.04c.03-1.23-.23-2.31-.76-3.24-.53-.93-1.27-1.67-2.2-2.2-.91-.53-1.96-.8-3.16-.8s-2.31.27-3.24.8c-.91.53-1.63,1.28-2.16,2.24-.51.93-.76,2.04-.76,3.32v.8c0,1.28.29,2.41.88,3.4.59.99,1.41,1.75,2.48,2.28,1.07.53,2.29.8,3.68.8,1.2,0,2.28-.19,3.24-.56.96-.37,1.81-.96,2.56-1.76l2.68,3.08c-.96,1.12-2.17,1.99-3.64,2.6-1.44.59-3.09.88-4.96.88Zm23.88,0c-2.05,0-3.91-.45-5.56-1.36-1.63-.93-2.91-2.21-3.84-3.84-.93-1.63-1.4-3.55-1.4-5.76s.47-4.13,1.4-5.76c.93-1.63,2.21-2.89,3.84-3.8,1.65-.91,3.51-1.36,5.56-1.36,1.79,0,3.39.4,4.8,1.2,1.41.77,2.53,1.96,3.36,3.56.83,1.6,1.24,3.65,1.24,6.16s-.4,4.53-1.2,6.16c-.8,1.6-1.91,2.8-3.32,3.6-1.41.8-3.04,1.2-4.88,1.2Zm.6-4.28c1.2,0,2.27-.27,3.2-.8.96-.53,1.72-1.31,2.28-2.32.59-1.01.88-2.2.88-3.56s-.29-2.57-.88-3.56c-.56-1.01-1.32-1.79-2.28-2.32-.93-.53-2-.8-3.2-.8s-2.28.27-3.24.8c-.93.53-1.69,1.31-2.28,2.32-.56.99-.84,2.17-.84,3.56s.28,2.55.84,3.56c.59,1.01,1.35,1.79,2.28,2.32.96.53,2.04.8,3.24.8Zm6.48,4v-5.04l.2-5.68-.4-5.68v-13.28h4.96v29.68h-4.76Zm11.34,0v-21.36h5v21.36h-5Zm2.52-24.88c-.93,0-1.71-.29-2.32-.88-.59-.59-.88-1.29-.88-2.12s.29-1.56.88-2.12c.61-.59,1.39-.88,2.32-.88s1.69.28,2.28.84c.61.53.92,1.21.92,2.04,0,.88-.29,1.63-.88,2.24-.59.59-1.36.88-2.32.88Zm22.2,24.88v-4.32l-.28-.92v-7.56c0-1.47-.44-2.6-1.32-3.4-.88-.83-2.21-1.24-4-1.24-1.2,0-2.39.19-3.56.56-1.15.37-2.12.89-2.92,1.56l-1.96-3.64c1.15-.88,2.51-1.53,4.08-1.96,1.6-.45,3.25-.68,4.96-.68,3.09,0,5.48.75,7.16,2.24,1.71,1.47,2.56,3.75,2.56,6.84v12.52h-4.72Zm-6.72.28c-1.6,0-3-.27-4.2-.8-1.2-.56-2.13-1.32-2.8-2.28-.64-.99-.96-2.09-.96-3.32s.28-2.28.84-3.24c.59-.96,1.53-1.72,2.84-2.28,1.31-.56,3.04-.84,5.2-.84h6.2v3.32h-5.84c-1.71,0-2.85.28-3.44.84-.59.53-.88,1.2-.88,2,0,.91.36,1.63,1.08,2.16.72.53,1.72.8,3,.8s2.32-.28,3.28-.84c.99-.56,1.69-1.39,2.12-2.48l.84,3c-.48,1.25-1.35,2.23-2.6,2.92-1.23.69-2.79,1.04-4.68,1.04Zm19.46,0c-.91,0-1.68-.31-2.32-.92-.64-.64-.96-1.44-.96-2.4,0-1.01.32-1.81.96-2.4.64-.61,1.41-.92,2.32-.92s1.68.31,2.32.92c.64.59.96,1.39.96,2.4,0,.96-.32,1.76-.96,2.4-.64.61-1.41.92-2.32.92Zm23.5-12.36l1,18.24h-5.92l.96-18.24h3.96Zm-1.96-9.52c.93,0,1.69.31,2.28.92.59.59.88,1.32.88,2.2,0,.83-.29,1.55-.88,2.16-.59.59-1.35.88-2.28.88s-1.71-.29-2.32-.88c-.61-.61-.92-1.33-.92-2.16,0-.88.31-1.61.92-2.2.61-.61,1.39-.92,2.32-.92Zm9.29,21.6v-28h12.24c3.04,0,5.71.59,8,1.76,2.29,1.17,4.08,2.8,5.36,4.88,1.28,2.08,1.92,4.53,1.92,7.36s-.64,5.25-1.92,7.36c-1.28,2.08-3.07,3.71-5.36,4.88-2.29,1.17-4.96,1.76-8,1.76h-12.24Zm5.2-4.4h6.8c2.11,0,3.92-.4,5.44-1.2,1.55-.8,2.73-1.92,3.56-3.36.85-1.44,1.28-3.12,1.28-5.04s-.43-3.63-1.28-5.04c-.83-1.44-2.01-2.56-3.56-3.36-1.52-.8-3.33-1.2-5.44-1.2h-6.8v19.2Zm27.37,4.4v-21.36h5v21.36h-5Zm2.52-24.88c-.93,0-1.71-.29-2.32-.88-.59-.59-.88-1.29-.88-2.12s.29-1.56.88-2.12c.61-.59,1.39-.88,2.32-.88s1.69.28,2.28.84c.61.53.92,1.21.92,2.04,0,.88-.29,1.63-.88,2.24-.59.59-1.36.88-2.32.88Zm15.64,25.16c-1.79,0-3.51-.23-5.16-.68-1.63-.48-2.92-1.05-3.88-1.72l1.92-3.8c.96.61,2.11,1.12,3.44,1.52,1.33.4,2.67.6,4,.6,1.57,0,2.71-.21,3.4-.64.72-.43,1.08-1,1.08-1.72,0-.59-.24-1.03-.72-1.32-.48-.32-1.11-.56-1.88-.72s-1.64-.31-2.6-.44c-.93-.13-1.88-.31-2.84-.52-.93-.24-1.79-.57-2.56-1-.77-.45-1.4-1.05-1.88-1.8-.48-.75-.72-1.73-.72-2.96,0-1.36.39-2.53,1.16-3.52.77-1.01,1.85-1.79,3.24-2.32,1.41-.56,3.08-.84,5-.84,1.44,0,2.89.16,4.36.48,1.47.32,2.68.77,3.64,1.36l-1.92,3.8c-1.01-.61-2.04-1.03-3.08-1.24-1.01-.24-2.03-.36-3.04-.36-1.52,0-2.65.23-3.4.68-.72.45-1.08,1.03-1.08,1.72,0,.64.24,1.12.72,1.44s1.11.57,1.88.76c.77.19,1.63.35,2.56.48.96.11,1.91.28,2.84.52.93.24,1.79.57,2.56,1,.8.4,1.44.97,1.92,1.72.48.75.72,1.72.72,2.92,0,1.33-.4,2.49-1.2,3.48-.77.99-1.88,1.76-3.32,2.32-1.44.53-3.16.8-5.16.8Zm14.67-.28v-22.56c0-2.24.65-4.03,1.96-5.36,1.33-1.36,3.23-2.04,5.68-2.04.88,0,1.71.09,2.48.28.8.19,1.47.48,2,.88l-1.36,3.76c-.37-.29-.8-.51-1.28-.64-.48-.16-.97-.24-1.48-.24-1.04,0-1.83.29-2.36.88-.53.56-.8,1.41-.8,2.56v2.4l.16,2.24v17.84h-5Zm-3.52-17.2v-4h14.24v4h-14.24Zm17.64,17.2v-21.36h4.76v5.88l-.56-1.72c.64-1.44,1.64-2.53,3-3.28,1.39-.75,3.11-1.12,5.16-1.12v4.76c-.21-.05-.41-.08-.6-.08-.19-.03-.37-.04-.56-.04-1.89,0-3.4.56-4.52,1.68-1.12,1.09-1.68,2.73-1.68,4.92v10.36h-5Zm25.84.28c-1.81,0-3.41-.33-4.8-1-1.39-.69-2.47-1.73-3.24-3.12-.77-1.41-1.16-3.19-1.16-5.32v-12.2h5v11.52c0,1.92.43,3.36,1.28,4.32.88.93,2.12,1.4,3.72,1.4,1.17,0,2.19-.24,3.04-.72.88-.48,1.56-1.2,2.04-2.16.51-.96.76-2.15.76-3.56v-10.8h5v21.36h-4.76v-5.76l.84,1.76c-.72,1.39-1.77,2.45-3.16,3.2-1.39.72-2.91,1.08-4.56,1.08Zm26.23,0c-2.35,0-4.16-.6-5.44-1.8-1.28-1.23-1.92-3.03-1.92-5.4v-19.16h5v19.04c0,1.01.25,1.8.76,2.36.53.56,1.27.84,2.2.84,1.12,0,2.05-.29,2.8-.88l1.4,3.56c-.59.48-1.31.84-2.16,1.08-.85.24-1.73.36-2.64.36Zm-10.88-17.48v-4h14.24v4h-14.24Zm32.95,17.2v-4.32l-.28-.92v-7.56c0-1.47-.44-2.6-1.32-3.4-.88-.83-2.21-1.24-4-1.24-1.2,0-2.39.19-3.56.56-1.15.37-2.12.89-2.92,1.56l-1.96-3.64c1.15-.88,2.51-1.53,4.08-1.96,1.6-.45,3.25-.68,4.96-.68,3.09,0,5.48.75,7.16,2.24,1.71,1.47,2.56,3.75,2.56,6.84v12.52h-4.72Zm-6.72.28c-1.6,0-3-.27-4.2-.8-1.2-.56-2.13-1.32-2.8-2.28-.64-.99-.96-2.09-.96-3.32s.28-2.28.84-3.24c.59-.96,1.53-1.72,2.84-2.28,1.31-.56,3.04-.84,5.2-.84h6.2v3.32h-5.84c-1.71,0-2.85.28-3.44.84-.59.53-.88,1.2-.88,2,0,.91.36,1.63,1.08,2.16.72.53,1.72.8,3,.8s2.32-.28,3.28-.84c.99-.56,1.69-1.39,2.12-2.48l.84,3c-.48,1.25-1.35,2.23-2.6,2.92-1.23.69-2.79,1.04-4.68,1.04Zm37.95,0c-2.05,0-3.91-.45-5.56-1.36-1.63-.93-2.91-2.21-3.84-3.84-.93-1.63-1.4-3.55-1.4-5.76s.47-4.13,1.4-5.76c.93-1.63,2.21-2.89,3.84-3.8,1.65-.91,3.51-1.36,5.56-1.36,1.79,0,3.39.4,4.8,1.2,1.41.77,2.53,1.96,3.36,3.56.83,1.6,1.24,3.65,1.24,6.16s-.4,4.53-1.2,6.16c-.8,1.6-1.91,2.8-3.32,3.6-1.41.8-3.04,1.2-4.88,1.2Zm.6-4.28c1.2,0,2.27-.27,3.2-.8.96-.53,1.72-1.31,2.28-2.32.59-1.01.88-2.2.88-3.56s-.29-2.57-.88-3.56c-.56-1.01-1.32-1.79-2.28-2.32-.93-.53-2-.8-3.2-.8s-2.28.27-3.24.8c-.93.53-1.69,1.31-2.28,2.32-.56.99-.84,2.17-.84,3.56s.28,2.55.84,3.56c.59,1.01,1.35,1.79,2.28,2.32.96.53,2.04.8,3.24.8Zm6.48,4v-5.04l.2-5.68-.4-5.68v-13.28h4.96v29.68h-4.76Zm21.38.28c-2.37,0-4.45-.47-6.24-1.4-1.76-.96-3.13-2.27-4.12-3.92-.96-1.65-1.44-3.53-1.44-5.64s.47-4.01,1.4-5.64c.96-1.65,2.27-2.95,3.92-3.88,1.68-.93,3.59-1.4,5.72-1.4s3.93.45,5.56,1.36c1.63.91,2.91,2.19,3.84,3.84.93,1.65,1.4,3.6,1.4,5.84,0,.21-.01.45-.04.72,0,.27-.01.52-.04.76h-17.8v-3.32h15.16l-1.96,1.04c.03-1.23-.23-2.31-.76-3.24-.53-.93-1.27-1.67-2.2-2.2-.91-.53-1.96-.8-3.16-.8s-2.31.27-3.24.8c-.91.53-1.63,1.28-2.16,2.24-.51.93-.76,2.04-.76,3.32v.8c0,1.28.29,2.41.88,3.4.59.99,1.41,1.75,2.48,2.28,1.07.53,2.29.8,3.68.8,1.2,0,2.28-.19,3.24-.56.96-.37,1.81-.96,2.56-1.76l2.68,3.08c-.96,1.12-2.17,1.99-3.64,2.6-1.44.59-3.09.88-4.96.88Zm-476.56,60c-2.37,0-4.45-.47-6.24-1.4-1.76-.96-3.13-2.27-4.12-3.92-.96-1.65-1.44-3.53-1.44-5.64s.47-4.01,1.4-5.64c.96-1.65,2.27-2.95,3.92-3.88,1.68-.93,3.59-1.4,5.72-1.4s3.93.45,5.56,1.36c1.63.91,2.91,2.19,3.84,3.84.93,1.65,1.4,3.6,1.4,5.84,0,.21-.01.45-.04.72,0,.27-.01.52-.04.76h-17.8v-3.32h15.16l-1.96,1.04c.03-1.23-.23-2.31-.76-3.24-.53-.93-1.27-1.67-2.2-2.2-.91-.53-1.96-.8-3.16-.8s-2.31.27-3.24.8c-.91.53-1.63,1.28-2.16,2.24-.51.93-.76,2.04-.76,3.32v.8c0,1.28.29,2.41.88,3.4.59.99,1.41,1.75,2.48,2.28,1.07.53,2.29.8,3.68.8,1.2,0,2.28-.19,3.24-.56.96-.37,1.81-.96,2.56-1.76l2.68,3.08c-.96,1.12-2.17,1.99-3.64,2.6-1.44.59-3.09.88-4.96.88Zm21.44,0c-1.79,0-3.51-.23-5.16-.68-1.63-.48-2.92-1.05-3.88-1.72l1.92-3.8c.96.61,2.11,1.12,3.44,1.52,1.33.4,2.67.6,4,.6,1.57,0,2.71-.21,3.4-.64.72-.43,1.08-1,1.08-1.72,0-.59-.24-1.03-.72-1.32-.48-.32-1.11-.56-1.88-.72-.77-.16-1.64-.31-2.6-.44-.93-.13-1.88-.31-2.84-.52-.93-.24-1.79-.57-2.56-1-.77-.45-1.4-1.05-1.88-1.8-.48-.75-.72-1.73-.72-2.96,0-1.36.39-2.53,1.16-3.52.77-1.01,1.85-1.79,3.24-2.32,1.41-.56,3.08-.84,5-.84,1.44,0,2.89.16,4.36.48,1.47.32,2.68.77,3.64,1.36l-1.92,3.8c-1.01-.61-2.04-1.03-3.08-1.24-1.01-.24-2.03-.36-3.04-.36-1.52,0-2.65.23-3.4.68-.72.45-1.08,1.03-1.08,1.72,0,.64.24,1.12.72,1.44.48.32,1.11.57,1.88.76.77.19,1.63.35,2.56.48.96.11,1.91.28,2.84.52.93.24,1.79.57,2.56,1,.8.4,1.44.97,1.92,1.72.48.75.72,1.72.72,2.92,0,1.33-.4,2.49-1.2,3.48-.77.99-1.88,1.76-3.32,2.32-1.44.53-3.16.8-5.16.8Zm22.03,0c-2.35,0-4.16-.6-5.44-1.8-1.28-1.23-1.92-3.03-1.92-5.4v-19.16h5v19.04c0,1.01.25,1.8.76,2.36.53.56,1.27.84,2.2.84,1.12,0,2.05-.29,2.8-.88l1.4,3.56c-.59.48-1.31.84-2.16,1.08-.85.24-1.73.36-2.64.36Zm-10.88-17.48v-4h14.24v4h-14.24Zm29.13,17.48c-2.37,0-4.45-.47-6.24-1.4-1.76-.96-3.13-2.27-4.12-3.92-.96-1.65-1.44-3.53-1.44-5.64s.47-4.01,1.4-5.64c.96-1.65,2.27-2.95,3.92-3.88,1.68-.93,3.59-1.4,5.72-1.4s3.93.45,5.56,1.36c1.63.91,2.91,2.19,3.84,3.84.93,1.65,1.4,3.6,1.4,5.84,0,.21-.01.45-.04.72,0,.27-.01.52-.04.76h-17.8v-3.32h15.16l-1.96,1.04c.03-1.23-.23-2.31-.76-3.24-.53-.93-1.27-1.67-2.2-2.2-.91-.53-1.96-.8-3.16-.8s-2.31.27-3.24.8c-.91.53-1.63,1.28-2.16,2.24-.51.93-.76,2.04-.76,3.32v.8c0,1.28.29,2.41.88,3.4.59.99,1.41,1.75,2.48,2.28,1.07.53,2.29.8,3.68.8,1.2,0,2.28-.19,3.24-.56.96-.37,1.81-.96,2.56-1.76l2.68,3.08c-.96,1.12-2.17,1.99-3.64,2.6-1.44.59-3.09.88-4.96.88Zm31.58-.28l-9.16-21.36h5.2l7.88,18.84h-2.56l8.16-18.84h4.8l-9.16,21.36h-5.16Zm17.44,0v-21.36h5v21.36h-5Zm2.52-24.88c-.93,0-1.71-.29-2.32-.88-.59-.59-.88-1.29-.88-2.12s.29-1.56.88-2.12c.61-.59,1.39-.88,2.32-.88s1.69.28,2.28.84c.61.53.92,1.21.92,2.04,0,.88-.29,1.63-.88,2.24-.59.59-1.36.88-2.32.88Zm22.2,24.88v-4.32l-.28-.92v-7.56c0-1.47-.44-2.6-1.32-3.4-.88-.83-2.21-1.24-4-1.24-1.2,0-2.39.19-3.56.56-1.15.37-2.12.89-2.92,1.56l-1.96-3.64c1.15-.88,2.51-1.53,4.08-1.96,1.6-.45,3.25-.68,4.96-.68,3.09,0,5.48.75,7.16,2.24,1.71,1.47,2.56,3.75,2.56,6.84v12.52h-4.72Zm-6.72.28c-1.6,0-3-.27-4.2-.8-1.2-.56-2.13-1.32-2.8-2.28-.64-.99-.96-2.09-.96-3.32s.28-2.28.84-3.24c.59-.96,1.53-1.72,2.84-2.28,1.31-.56,3.04-.84,5.2-.84h6.2v3.32h-5.84c-1.71,0-2.85.28-3.44.84-.59.53-.88,1.2-.88,2,0,.91.36,1.63,1.08,2.16.72.53,1.72.8,3,.8s2.32-.28,3.28-.84c.99-.56,1.69-1.39,2.12-2.48l.84,3c-.48,1.25-1.35,2.23-2.6,2.92-1.23.69-2.79,1.04-4.68,1.04Zm15.66,7.76c-.93,0-1.81-.11-2.64-.32-.85-.19-1.57-.49-2.16-.92l1.44-3.72c.77.56,1.75.84,2.92.84.91,0,1.61-.29,2.12-.88.51-.56.76-1.4.76-2.52v-21.88h5v21.76c0,2.35-.65,4.2-1.96,5.56-1.28,1.39-3.11,2.08-5.48,2.08Zm4.92-32.92c-.93,0-1.71-.29-2.32-.88-.59-.59-.88-1.29-.88-2.12s.29-1.56.88-2.12c.61-.59,1.39-.88,2.32-.88s1.69.28,2.28.84c.61.53.92,1.21.92,2.04,0,.88-.29,1.63-.88,2.24-.59.59-1.36.88-2.32.88Zm19.12,25.16c-2.37,0-4.45-.47-6.24-1.4-1.76-.96-3.13-2.27-4.12-3.92-.96-1.65-1.44-3.53-1.44-5.64s.47-4.01,1.4-5.64c.96-1.65,2.27-2.95,3.92-3.88,1.68-.93,3.59-1.4,5.72-1.4s3.93.45,5.56,1.36c1.63.91,2.91,2.19,3.84,3.84.93,1.65,1.4,3.6,1.4,5.84,0,.21-.01.45-.04.72,0,.27-.01.52-.04.76h-17.8v-3.32h15.16l-1.96,1.04c.03-1.23-.23-2.31-.76-3.24-.53-.93-1.27-1.67-2.2-2.2-.91-.53-1.96-.8-3.16-.8s-2.31.27-3.24.8c-.91.53-1.63,1.28-2.16,2.24-.51.93-.76,2.04-.76,3.32v.8c0,1.28.29,2.41.88,3.4.59.99,1.41,1.75,2.48,2.28,1.07.53,2.29.8,3.68.8,1.2,0,2.28-.19,3.24-.56.96-.37,1.81-.96,2.56-1.76l2.68,3.08c-.96,1.12-2.17,1.99-3.64,2.6-1.44.59-3.09.88-4.96.88Zm15.16-9.56l-.96-18.72h5.92l-1,18.72h-3.96Zm2,9.56c-.93,0-1.71-.31-2.32-.92-.61-.61-.92-1.35-.92-2.2s.31-1.57.92-2.16c.61-.61,1.39-.92,2.32-.92s1.69.31,2.28.92c.59.59.88,1.31.88,2.16s-.29,1.59-.88,2.2c-.59.61-1.35.92-2.28.92Z"/>
      </g>
    </g>
  </g>
</svg>