<?xml version="1.0" encoding="UTF-8"?>
<svg id="Capa_2" data-name="Capa 2" xmlns="http://www.w3.org/2000/svg" viewBox="0 0 1183.66 176">
  <defs>
    <style>
      .cls-1 {
        fill: #fff;
      }
    </style>
  </defs>
  <g id="Capa_1-2" data-name="Capa 1">
    <path class="cls-1" d="m2,32.32h9.52l2,38.08H0l2-38.08Zm11.68-13.36c0,2.45-.67,4.19-2,5.2-1.33.96-2.96,1.44-4.88,1.44-1.81,0-3.41-.48-4.8-1.44-1.33-1.01-2-2.75-2-5.2s.67-4.03,2-5.04c1.39-1.07,2.99-1.6,4.8-1.6,1.92,0,3.55.53,4.88,1.6,1.33,1.01,2,2.69,2,5.04ZM51.05,0c1.6,0,3.09.29,4.48.88,1.44.59,2.67,1.41,3.68,2.48,1.07,1.01,1.89,2.24,2.48,3.68.59,1.39.88,2.88.88,4.48v6.96c0,2.24-.61,4.24-1.84,6-1.17,1.76-2.69,2.93-4.56,3.52,1.87.59,3.39,1.76,4.56,3.52,1.23,1.76,1.84,3.76,1.84,6v6.96c0,1.6-.29,3.09-.88,4.48-.59,1.39-1.41,2.61-2.48,3.68-1.01,1.01-2.24,1.84-3.68,2.48-1.39.59-2.88.88-4.48.88h-26.88V0h26.88Zm-18.08,23.6h16.8c1.12,0,2.05-.37,2.8-1.12.8-.8,1.2-1.76,1.2-2.88v-6.8c0-1.12-.4-2.05-1.2-2.8-.75-.8-1.68-1.2-2.8-1.2h-16.8v14.8Zm0,23.6h16.8c1.12,0,2.05-.37,2.8-1.12.8-.8,1.2-1.76,1.2-2.88v-6.8c0-1.12-.4-2.05-1.2-2.8-.75-.8-1.68-1.2-2.8-1.2h-16.8v14.8Zm40.74,8.8V0h8.8v56h-8.8ZM127.36,0v8.8h-24v14.8h21.6v8.8h-21.6v14.8h24v8.8h-32.8V0h32.8Zm11.73,56V0h9.52l23.44,39.84V0h8.8v56h-9.52l-23.44-39.84v39.84h-8.8ZM188.21,0h9.28l13.76,42.72L225.01,0h9.28l-18.4,56h-9.28L188.21,0Zm86.26,0v8.8h-24v14.8h21.6v8.8h-21.6v14.8h24v8.8h-32.8V0h32.8Zm11.73,56V0h9.52l23.44,39.84V0h8.8v56h-9.52l-23.44-39.84v39.84h-8.8Zm53.84,0V0h8.8v56h-8.8ZM387.77,0c1.6,0,3.09.32,4.48.96,1.39.59,2.59,1.41,3.6,2.48,1.07,1.01,1.89,2.21,2.48,3.6.64,1.39.96,2.88.96,4.48v32.96c0,1.6-.32,3.09-.96,4.48-.59,1.39-1.41,2.61-2.48,3.68-1.01,1.01-2.21,1.84-3.6,2.48-1.39.59-2.88.88-4.48.88h-26.88V0h26.88Zm-18.08,47.2h16.8c1.12,0,2.05-.37,2.8-1.12.8-.8,1.2-1.76,1.2-2.88V12.8c0-1.12-.4-2.05-1.2-2.8-.75-.8-1.68-1.2-2.8-1.2h-16.8v38.4Zm39.7-35.68c0-1.6.29-3.09.88-4.48.64-1.44,1.47-2.67,2.48-3.68,1.07-1.07,2.29-1.89,3.68-2.48,1.39-.59,2.88-.88,4.48-.88h15.36c1.6,0,3.09.29,4.48.88,1.44.59,2.67,1.41,3.68,2.48,1.07,1.01,1.89,2.24,2.48,3.68.59,1.39.88,2.88.88,4.48v32.96c0,1.6-.29,3.09-.88,4.48-.59,1.39-1.41,2.61-2.48,3.68-1.01,1.01-2.24,1.84-3.68,2.48-1.39.59-2.88.88-4.48.88h-15.36c-1.6,0-3.09-.29-4.48-.88-1.39-.64-2.61-1.47-3.68-2.48-1.01-1.07-1.84-2.29-2.48-3.68-.59-1.39-.88-2.88-.88-4.48V11.52Zm12.8,35.68h12.8c1.12,0,2.05-.37,2.8-1.12.8-.8,1.2-1.76,1.2-2.88V12.8c0-1.12-.4-2.05-1.2-2.8-.75-.8-1.68-1.2-2.8-1.2h-12.8c-1.12,0-2.08.4-2.88,1.2-.75.75-1.12,1.68-1.12,2.8v30.4c0,1.12.37,2.08,1.12,2.88.8.75,1.76,1.12,2.88,1.12ZM493.42,0h9.2l18.64,56h-9.28l-3.84-11.6h-20.24l-3.84,11.6h-9.28L493.42,0Zm-2.56,35.6h14.32l-7.12-22-7.2,22ZM549.09,0h9.36l15.84,31.44,15.84-31.44h9.36v56h-8.8V18.48l-11.92,23.68h-8.96l-11.92-23.68v37.52h-8.8V0Zm62.51,56V0h8.8v56h-8.8ZM679.33,0c1.6,0,3.09.29,4.48.88,1.44.59,2.67,1.41,3.68,2.48,1.07,1.01,1.89,2.24,2.48,3.68.59,1.39.88,2.88.88,4.48v6.96c0,2.24-.61,4.24-1.84,6-1.17,1.76-2.69,2.93-4.56,3.52,1.87.59,3.39,1.76,4.56,3.52,1.23,1.76,1.84,3.76,1.84,6v6.96c0,1.6-.29,3.09-.88,4.48-.59,1.39-1.41,2.61-2.48,3.68-1.01,1.01-2.24,1.84-3.68,2.48-1.39.59-2.88.88-4.48.88h-26.88V0h26.88Zm-18.08,23.6h16.8c1.12,0,2.05-.37,2.8-1.12.8-.8,1.2-1.76,1.2-2.88v-6.8c0-1.12-.4-2.05-1.2-2.8-.75-.8-1.68-1.2-2.8-1.2h-16.8v14.8Zm0,23.6h16.8c1.12,0,2.05-.37,2.8-1.12.8-.8,1.2-1.76,1.2-2.88v-6.8c0-1.12-.4-2.05-1.2-2.8-.75-.8-1.68-1.2-2.8-1.2h-16.8v14.8Zm40.34,8.8V0h8.8v47.2h25.6v8.8h-34.4Zm41-44.48c0-1.6.29-3.09.88-4.48.64-1.44,1.47-2.67,2.48-3.68,1.07-1.07,2.29-1.89,3.68-2.48,1.39-.59,2.88-.88,4.48-.88h15.36c1.6,0,3.09.29,4.48.88,1.44.59,2.67,1.41,3.68,2.48,1.07,1.01,1.89,2.24,2.48,3.68.59,1.39.88,2.88.88,4.48v32.96c0,1.6-.29,3.09-.88,4.48-.59,1.39-1.41,2.61-2.48,3.68-1.01,1.01-2.24,1.84-3.68,2.48-1.39.59-2.88.88-4.48.88h-15.36c-1.6,0-3.09-.29-4.48-.88-1.39-.64-2.61-1.47-3.68-2.48-1.01-1.07-1.84-2.29-2.48-3.68-.59-1.39-.88-2.88-.88-4.48V11.52Zm12.8,35.68h12.8c1.12,0,2.05-.37,2.8-1.12.8-.8,1.2-1.76,1.2-2.88V12.8c0-1.12-.4-2.05-1.2-2.8-.75-.8-1.68-1.2-2.8-1.2h-12.8c-1.12,0-2.08.4-2.88,1.2-.75.75-1.12,1.68-1.12,2.8v30.4c0,1.12.37,2.08,1.12,2.88.8.75,1.76,1.12,2.88,1.12Zm35.64-2.72V11.52c0-1.6.29-3.09.88-4.48.64-1.44,1.47-2.67,2.48-3.68,1.07-1.07,2.29-1.89,3.68-2.48,1.39-.59,2.88-.88,4.48-.88h15.36c1.6,0,3.09.29,4.48.88,1.44.59,2.67,1.41,3.68,2.48,1.07,1.01,1.89,2.24,2.48,3.68.59,1.39.88,2.88.88,4.48v7.68h-8.8v-6.4c0-1.12-.4-2.05-1.2-2.8-.75-.8-1.68-1.2-2.8-1.2h-12.8c-1.12,0-2.08.4-2.88,1.2-.75.75-1.12,1.68-1.12,2.8v30.4c0,1.12.37,2.08,1.12,2.88.8.75,1.76,1.12,2.88,1.12h12.8c1.12,0,2.05-.37,2.8-1.12.8-.8,1.2-1.76,1.2-2.88v-10.64h-10v-7.2h18.8v19.12c0,1.6-.29,3.09-.88,4.48-.59,1.39-1.41,2.61-2.48,3.68-1.01,1.01-2.24,1.84-3.68,2.48-1.39.59-2.88.88-4.48.88h-15.36c-1.6,0-3.09-.29-4.48-.88-1.39-.64-2.61-1.47-3.68-2.48-1.01-1.07-1.84-2.29-2.48-3.68-.59-1.39-.88-2.88-.88-4.48Zm43.95,20.32l3.52-17.6h10.24l-7.28,17.6h-6.48ZM911.35,0v8.8h-24v14.8h21.6v8.8h-21.6v14.8h24v8.8h-32.8V0h32.8Zm10.93,44.48V11.52c0-1.6.29-3.09.88-4.48.64-1.44,1.47-2.67,2.48-3.68,1.07-1.07,2.29-1.89,3.68-2.48,1.39-.59,2.88-.88,4.48-.88h15.36c1.6,0,3.09.29,4.48.88,1.44.59,2.67,1.41,3.68,2.48,1.07,1.01,1.89,2.24,2.48,3.68.58,1.39.88,2.88.88,4.48v7.68h-8.8v-6.4c0-1.12-.4-2.05-1.2-2.8-.75-.8-1.68-1.2-2.8-1.2h-12.8c-1.12,0-2.08.4-2.88,1.2-.75.75-1.12,1.68-1.12,2.8v30.4c0,1.12.37,2.08,1.12,2.88.8.75,1.76,1.12,2.88,1.12h12.8c1.12,0,2.05-.37,2.8-1.12.8-.8,1.2-1.76,1.2-2.88v-6.4h8.8v7.68c0,1.6-.3,3.09-.88,4.48-.59,1.39-1.41,2.61-2.48,3.68-1.01,1.01-2.24,1.84-3.68,2.48-1.39.59-2.88.88-4.48.88h-15.36c-1.6,0-3.09-.29-4.48-.88-1.39-.64-2.61-1.47-3.68-2.48-1.01-1.07-1.84-2.29-2.48-3.68-.59-1.39-.88-2.88-.88-4.48ZM970.58,0h8.8v23.6h21.6V0h8.8v56h-8.8v-23.6h-21.6v23.6h-8.8V0Zm65.66,0h9.2l18.64,56h-9.28l-3.84-11.6h-20.24l-3.84,11.6h-9.28l18.64-56Zm-2.56,35.6h14.32l-7.12-22-7.2,22ZM1100.3,0v43.2c0,1.12.38,2.08,1.12,2.88.8.75,1.76,1.12,2.88,1.12h13.6c1.12,0,2.06-.37,2.8-1.12.8-.8,1.2-1.76,1.2-2.88V0h8.8v44.48c0,1.6-.29,3.09-.88,4.48-.58,1.39-1.41,2.61-2.48,3.68-1.01,1.01-2.24,1.84-3.68,2.48-1.38.59-2.88.88-4.48.88h-16.16c-1.6,0-3.09-.29-4.48-.88-1.38-.64-2.61-1.47-3.68-2.48-1.01-1.07-1.84-2.29-2.48-3.68-.58-1.39-.88-2.88-.88-4.48V0h8.8Zm41.6,56V0h9.52l23.44,39.84V0h8.8v56h-9.52l-23.44-39.84v39.84h-8.8ZM15.36,120h9.28l13.76,42.72,13.76-42.72h9.28l-18.4,56h-9.28l-18.4-56Zm53.86,56v-56h8.8v56h-8.8Zm19.89-36.8v-7.68c0-1.6.29-3.09.88-4.48.64-1.44,1.47-2.67,2.48-3.68,1.07-1.07,2.29-1.89,3.68-2.48,1.39-.59,2.88-.88,4.48-.88h16.96c1.6,0,3.09.29,4.48.88,1.44.59,2.67,1.41,3.68,2.48,1.07,1.01,1.89,2.24,2.48,3.68.59,1.39.88,2.88.88,4.48v7.68h-8.8v-6.4c0-1.12-.4-2.05-1.2-2.8-.75-.8-1.68-1.2-2.8-1.2h-14.4c-1.12,0-2.08.4-2.88,1.2-.75.75-1.12,1.68-1.12,2.8v5.84c0,1.17.59,1.95,1.76,2.32l22.24,6.24c2.13.59,3.87,1.79,5.2,3.6,1.33,1.76,2,3.76,2,6v7.68c0,1.6-.29,3.09-.88,4.48-.59,1.39-1.41,2.61-2.48,3.68-1.01,1.01-2.24,1.84-3.68,2.48-1.39.59-2.88.88-4.48.88h-16.96c-1.6,0-3.09-.29-4.48-.88-1.39-.64-2.61-1.47-3.68-2.48-1.01-1.07-1.84-2.29-2.48-3.68-.59-1.39-.88-2.88-.88-4.48v-7.68h8.8v6.4c0,1.12.37,2.08,1.12,2.88.8.75,1.76,1.12,2.88,1.12h14.4c1.12,0,2.05-.37,2.8-1.12.8-.8,1.2-1.76,1.2-2.88v-5.84c0-1.17-.59-1.95-1.76-2.32l-22.24-6.24c-2.13-.64-3.87-1.84-5.2-3.6-1.33-1.76-2-3.76-2-6Zm85.28-19.2v8.8h-15.2v47.2h-8.8v-47.2h-15.2v-8.8h39.2Zm18.6,0h9.2l18.64,56h-9.28l-3.84-11.6h-20.24l-3.84,11.6h-9.28l18.64-56Zm-2.56,35.6h14.32l-7.12-22-7.2,22Zm36.07,20.4v-8.8l26.72-38.4h-26.72v-8.8h37.44v8.8l-26.72,38.4h26.72v8.8h-37.44Zm46.12-44.48c0-1.6.29-3.09.88-4.48.64-1.44,1.47-2.67,2.48-3.68,1.07-1.07,2.29-1.89,3.68-2.48,1.39-.59,2.88-.88,4.48-.88h15.36c1.6,0,3.09.29,4.48.88,1.44.59,2.67,1.41,3.68,2.48,1.07,1.01,1.89,2.24,2.48,3.68.59,1.39.88,2.88.88,4.48v32.96c0,1.6-.29,3.09-.88,4.48-.59,1.39-1.41,2.61-2.48,3.68-1.01,1.01-2.24,1.84-3.68,2.48-1.39.59-2.88.88-4.48.88h-15.36c-1.6,0-3.09-.29-4.48-.88-1.39-.64-2.61-1.47-3.68-2.48-1.01-1.07-1.84-2.29-2.48-3.68-.59-1.39-.88-2.88-.88-4.48v-32.96Zm12.8,35.68h12.8c1.12,0,2.05-.37,2.8-1.12.8-.8,1.2-1.76,1.2-2.88v-30.4c0-1.12-.4-2.05-1.2-2.8-.75-.8-1.68-1.2-2.8-1.2h-12.8c-1.12,0-2.08.4-2.88,1.2-.75.75-1.12,1.68-1.12,2.8v30.4c0,1.12.37,2.08,1.12,2.88.8.75,1.76,1.12,2.88,1.12Zm71.24-47.2h9.2l18.64,56h-9.28l-3.84-11.6h-20.24l-3.84,11.6h-9.28l18.64-56Zm-2.56,35.6h14.32l-7.12-22-7.2,22Zm58.23-35.6h9.36l15.84,31.44,15.84-31.44h9.36v56h-8.8v-37.52l-11.92,23.68h-8.96l-11.92-23.68v37.52h-8.8v-56Zm62.51,56v-56h8.8v56h-8.8Zm19.89-36.8v-7.68c0-1.6.29-3.09.88-4.48.64-1.44,1.47-2.67,2.48-3.68,1.07-1.07,2.29-1.89,3.68-2.48,1.39-.59,2.88-.88,4.48-.88h16.96c1.6,0,3.09.29,4.48.88,1.44.59,2.67,1.41,3.68,2.48,1.07,1.01,1.89,2.24,2.48,3.68.59,1.39.88,2.88.88,4.48v7.68h-8.8v-6.4c0-1.12-.4-2.05-1.2-2.8-.75-.8-1.68-1.2-2.8-1.2h-14.4c-1.12,0-2.08.4-2.88,1.2-.75.75-1.12,1.68-1.12,2.8v5.84c0,1.17.59,1.95,1.76,2.32l22.24,6.24c2.13.59,3.87,1.79,5.2,3.6,1.33,1.76,2,3.76,2,6v7.68c0,1.6-.29,3.09-.88,4.48-.59,1.39-1.41,2.61-2.48,3.68-1.01,1.01-2.24,1.84-3.68,2.48-1.39.59-2.88.88-4.48.88h-16.96c-1.6,0-3.09-.29-4.48-.88-1.39-.64-2.61-1.47-3.68-2.48-1.01-1.07-1.84-2.29-2.48-3.68-.59-1.39-.88-2.88-.88-4.48v-7.68h8.8v6.4c0,1.12.37,2.08,1.12,2.88.8.75,1.76,1.12,2.88,1.12h14.4c1.12,0,2.05-.37,2.8-1.12.8-.8,1.2-1.76,1.2-2.88v-5.84c0-1.17-.59-1.95-1.76-2.32l-22.24-6.24c-2.13-.64-3.87-1.84-5.2-3.6-1.33-1.76-2-3.76-2-6Zm70.8-19.2h26.88c1.6,0,3.09.29,4.48.88,1.44.59,2.67,1.41,3.68,2.48,1.07,1.01,1.89,2.24,2.48,3.68.59,1.39.88,2.88.88,4.48v12.56c0,1.6-.29,3.09-.88,4.48-.59,1.39-1.41,2.61-2.48,3.68-1.01,1.01-2.24,1.84-3.68,2.48-1.39.59-2.88.88-4.48.88h-18.08v20.4h-8.8v-56Zm8.8,8.8v18h16.8c1.12,0,2.05-.37,2.8-1.12.8-.8,1.2-1.76,1.2-2.88v-10c0-1.12-.4-2.05-1.2-2.8-.75-.8-1.68-1.2-2.8-1.2h-16.8Zm47.41-8.8v43.2c0,1.12.37,2.08,1.12,2.88.8.75,1.76,1.12,2.88,1.12h13.6c1.12,0,2.05-.37,2.8-1.12.8-.8,1.2-1.76,1.2-2.88v-43.2h8.8v44.48c0,1.6-.29,3.09-.88,4.48-.59,1.39-1.41,2.61-2.48,3.68-1.01,1.01-2.24,1.84-3.68,2.48-1.39.59-2.88.88-4.48.88h-16.16c-1.6,0-3.09-.29-4.48-.88-1.39-.64-2.61-1.47-3.68-2.48-1.01-1.07-1.84-2.29-2.48-3.68-.59-1.39-.88-2.88-.88-4.48v-44.48h8.8Zm68.48,0c1.6,0,3.09.29,4.48.88,1.44.59,2.67,1.41,3.68,2.48,1.07,1.01,1.89,2.24,2.48,3.68.59,1.39.88,2.88.88,4.48v6.96c0,2.24-.61,4.24-1.84,6-1.17,1.76-2.69,2.93-4.56,3.52,1.87.59,3.39,1.76,4.56,3.52,1.23,1.76,1.84,3.76,1.84,6v6.96c0,1.6-.29,3.09-.88,4.48-.59,1.39-1.41,2.61-2.48,3.68-1.01,1.01-2.24,1.84-3.68,2.48-1.39.59-2.88.88-4.48.88h-26.88v-56h26.88Zm-18.08,23.6h16.8c1.12,0,2.05-.37,2.8-1.12.8-.8,1.2-1.76,1.2-2.88v-6.8c0-1.12-.4-2.05-1.2-2.8-.75-.8-1.68-1.2-2.8-1.2h-16.8v14.8Zm0,23.6h16.8c1.12,0,2.05-.37,2.8-1.12.8-.8,1.2-1.76,1.2-2.88v-6.8c0-1.12-.4-2.05-1.2-2.8-.75-.8-1.68-1.2-2.8-1.2h-16.8v14.8Zm40.34,8.8v-56h8.8v47.2h25.6v8.8h-34.4Zm42.2,0v-56h8.8v56h-8.8Zm20.05-11.52v-32.96c0-1.6.29-3.09.88-4.48.64-1.44,1.47-2.67,2.48-3.68,1.07-1.07,2.29-1.89,3.68-2.48,1.39-.59,2.88-.88,4.48-.88h15.36c1.6,0,3.09.29,4.48.88,1.44.59,2.67,1.41,3.68,2.48,1.07,1.01,1.89,2.24,2.48,3.68.59,1.39.88,2.88.88,4.48v7.68h-8.8v-6.4c0-1.12-.4-2.05-1.2-2.8-.75-.8-1.68-1.2-2.8-1.2h-12.8c-1.12,0-2.08.4-2.88,1.2-.75.75-1.12,1.68-1.12,2.8v30.4c0,1.12.37,2.08,1.12,2.88.8.75,1.76,1.12,2.88,1.12h12.8c1.12,0,2.05-.37,2.8-1.12.8-.8,1.2-1.76,1.2-2.88v-6.4h8.8v7.68c0,1.6-.29,3.09-.88,4.48-.59,1.39-1.41,2.61-2.48,3.68-1.01,1.01-2.24,1.84-3.68,2.48-1.39.59-2.88.88-4.48.88h-15.36c-1.6,0-3.09-.29-4.48-.88-1.39-.64-2.61-1.47-3.68-2.48-1.01-1.07-1.84-2.29-2.48-3.68-.59-1.39-.88-2.88-.88-4.48Zm63.1-44.48h9.2l18.64,56h-9.28l-3.84-11.6h-20.24l-3.84,11.6h-9.28l18.64-56Zm-2.56,35.6h14.32l-7.12-22-7.2,22Zm37.43,8.88v-32.96c0-1.6.29-3.09.88-4.48.64-1.44,1.47-2.67,2.48-3.68,1.07-1.07,2.29-1.89,3.68-2.48,1.39-.59,2.88-.88,4.48-.88h15.36c1.6,0,3.09.29,4.48.88,1.44.59,2.67,1.41,3.68,2.48,1.07,1.01,1.89,2.24,2.48,3.68.59,1.39.88,2.88.88,4.48v7.68h-8.8v-6.4c0-1.12-.4-2.05-1.2-2.8-.75-.8-1.68-1.2-2.8-1.2h-12.8c-1.12,0-2.08.4-2.88,1.2-.75.75-1.12,1.68-1.12,2.8v30.4c0,1.12.37,2.08,1.12,2.88.8.75,1.76,1.12,2.88,1.12h12.8c1.12,0,2.05-.37,2.8-1.12.8-.8,1.2-1.76,1.2-2.88v-6.4h8.8v7.68c0,1.6-.29,3.09-.88,4.48-.59,1.39-1.41,2.61-2.48,3.68-1.01,1.01-2.24,1.84-3.68,2.48-1.39.59-2.88.88-4.48.88h-15.36c-1.6,0-3.09-.29-4.48-.88-1.39-.64-2.61-1.47-3.68-2.48-1.01-1.07-1.84-2.29-2.48-3.68-.59-1.39-.88-2.88-.88-4.48Zm48.7,11.52v-56h8.8v56h-8.8Zm20.05-44.48c0-1.6.29-3.09.88-4.48.64-1.44,1.47-2.67,2.48-3.68,1.07-1.07,2.29-1.89,3.68-2.48,1.39-.59,2.88-.88,4.48-.88h15.36c1.6,0,3.09.29,4.48.88,1.44.59,2.66,1.41,3.68,2.48,1.06,1.01,1.89,2.24,2.48,3.68.58,1.39.88,2.88.88,4.48v32.96c0,1.6-.3,3.09-.88,4.48-.59,1.39-1.42,2.61-2.48,3.68-1.02,1.01-2.24,1.84-3.68,2.48-1.39.59-2.88.88-4.48.88h-15.36c-1.6,0-3.09-.29-4.48-.88-1.39-.64-2.61-1.47-3.68-2.48-1.01-1.07-1.84-2.29-2.48-3.68-.59-1.39-.88-2.88-.88-4.48v-32.96Zm12.8,35.68h12.81c1.12,0,2.05-.37,2.8-1.12.8-.8,1.2-1.76,1.2-2.88v-30.4c0-1.12-.4-2.05-1.2-2.8-.75-.8-1.68-1.2-2.8-1.2h-12.81c-1.12,0-2.08.4-2.88,1.2-.75.75-1.12,1.68-1.12,2.8v30.4c0,1.12.37,2.08,1.12,2.88.8.75,1.76,1.12,2.88,1.12Zm36.43,8.8v-56h9.52l23.44,39.84v-39.84h8.8v56h-9.52l-23.44-39.84v39.84h-8.8Zm86.24-56v8.8h-24v14.8h21.6v8.8h-21.6v14.8h24v8.8h-32.8v-56h32.8Zm10.77,19.2v-7.68c0-1.6.29-3.09.88-4.48.64-1.44,1.47-2.67,2.48-3.68,1.07-1.07,2.29-1.89,3.68-2.48,1.39-.59,2.88-.88,4.48-.88h16.96c1.6,0,3.09.29,4.48.88,1.44.59,2.67,1.41,3.68,2.48,1.07,1.01,1.89,2.24,2.48,3.68.59,1.39.88,2.88.88,4.48v7.68h-8.8v-6.4c0-1.12-.4-2.05-1.2-2.8-.75-.8-1.68-1.2-2.8-1.2h-14.4c-1.12,0-2.08.4-2.88,1.2-.75.75-1.12,1.68-1.12,2.8v5.84c0,1.17.59,1.95,1.76,2.32l22.24,6.24c2.13.59,3.87,1.79,5.2,3.6,1.33,1.76,2,3.76,2,6v7.68c0,1.6-.29,3.09-.88,4.48-.59,1.39-1.41,2.61-2.48,3.68-1.01,1.01-2.24,1.84-3.68,2.48-1.39.59-2.88.88-4.48.88h-16.96c-1.6,0-3.09-.29-4.48-.88-1.39-.64-2.61-1.47-3.68-2.48-1.01-1.07-1.84-2.29-2.48-3.68-.59-1.39-.88-2.88-.88-4.48v-7.68h8.8v6.4c0,1.12.37,2.08,1.12,2.88.8.75,1.76,1.12,2.88,1.12h14.4c1.12,0,2.05-.37,2.8-1.12.8-.8,1.2-1.76,1.2-2.88v-5.84c0-1.17-.59-1.95-1.76-2.32l-22.24-6.24c-2.13-.64-3.87-1.84-5.2-3.6-1.33-1.76-2-3.76-2-6Zm71.05,20.8l-1.28-44h8.8l-1.28,44h-6.24Zm-1.28,16v-8.8h8.8v8.8h-8.8Z"/>
  </g>
</svg>