<?xml version="1.0" encoding="UTF-8"?>
<svg id="Capa_2" data-name="Capa 2" xmlns="http://www.w3.org/2000/svg" viewBox="0 0 464.86 464.84">
  <defs>
    <style>
      .cls-1 {
        fill: #fff;
      }

      .cls-2 {
        fill: #007f18;
        stroke: #00c129;
        stroke-miterlimit: 10;
        stroke-width: 4px;
      }
    </style>
  </defs>
  <g id="Capa_1-2" data-name="Capa 1">
    <g>
      <path class="cls-2" d="m2,2.01v460.83h460.86V2.01h-71.68l-17,18H91.18L73.18,2.45,2,2.01Z"/>
      <path class="cls-1" d="m31.19,114.16v-33.6h14.54c3.01,0,5.6.5,7.78,1.49,2.18.96,3.86,2.35,5.04,4.18,1.18,1.82,1.78,4,1.78,6.53s-.59,4.66-1.78,6.48c-1.18,1.82-2.86,3.23-5.04,4.22-2.18.96-4.77,1.44-7.78,1.44h-10.22l3.46-3.5v12.77h-7.78Zm7.78-11.9l-3.46-3.7h9.79c2.4,0,4.19-.51,5.38-1.54,1.18-1.02,1.78-2.45,1.78-4.27s-.59-3.3-1.78-4.32c-1.18-1.02-2.98-1.54-5.38-1.54h-9.79l3.46-3.7v19.06Zm26.34,11.9v-25.82h7.15v7.3l-1.01-2.11c.77-1.82,2-3.2,3.7-4.13,1.7-.96,3.76-1.44,6.19-1.44v6.91c-.32-.03-.61-.05-.86-.05-.26-.03-.53-.05-.82-.05-2.05,0-3.71.59-4.99,1.78-1.25,1.15-1.87,2.96-1.87,5.42v12.19h-7.49Zm32.58.38c-2.75,0-5.2-.58-7.34-1.73-2.11-1.15-3.79-2.72-5.04-4.7-1.22-2.02-1.82-4.3-1.82-6.86s.61-4.88,1.82-6.86c1.25-2.02,2.93-3.58,5.04-4.7,2.14-1.15,4.59-1.73,7.34-1.73s5.15.58,7.3,1.73c2.14,1.12,3.82,2.67,5.04,4.66,1.22,1.98,1.82,4.29,1.82,6.91s-.61,4.85-1.82,6.86c-1.22,1.98-2.9,3.55-5.04,4.7-2.14,1.15-4.58,1.73-7.3,1.73Zm0-6.14c1.25,0,2.37-.29,3.36-.86.99-.58,1.78-1.39,2.35-2.45.58-1.09.86-2.37.86-3.84s-.29-2.78-.86-3.84c-.58-1.06-1.36-1.87-2.35-2.45-.99-.58-2.11-.86-3.36-.86s-2.37.29-3.36.86c-.99.58-1.79,1.39-2.4,2.45-.58,1.06-.86,2.34-.86,3.84s.29,2.75.86,3.84c.61,1.06,1.41,1.87,2.4,2.45.99.58,2.11.86,3.36.86Zm-4.46-23.38l6.48-6.91h8.06l-8.69,6.91h-5.86Zm19.57,29.14l11.57-15.17-.14,4.13-11.09-14.78h8.4l7.01,9.65-3.17.1,7.25-9.74h7.97l-11.14,14.64v-4.03l11.52,15.22h-8.5l-7.34-10.27,3.12.43-7.3,9.84h-8.16Zm31.81,0v-25.82h7.49v25.82h-7.49Zm3.74-29.42c-1.38,0-2.5-.4-3.36-1.2s-1.3-1.79-1.3-2.98.43-2.18,1.3-2.98c.86-.8,1.98-1.2,3.36-1.2s2.5.38,3.36,1.15c.86.74,1.3,1.7,1.3,2.88,0,1.25-.43,2.29-1.3,3.12-.83.8-1.95,1.2-3.36,1.2Zm43.76,3.22c2.05,0,3.86.42,5.42,1.25,1.6.8,2.85,2.05,3.74,3.74.93,1.66,1.39,3.81,1.39,6.43v14.78h-7.49v-13.63c0-2.08-.43-3.62-1.3-4.61-.86-.99-2.08-1.49-3.65-1.49-1.09,0-2.06.26-2.93.77-.86.48-1.54,1.22-2.02,2.21-.48.99-.72,2.26-.72,3.79v12.96h-7.49v-13.63c0-2.08-.43-3.62-1.3-4.61-.83-.99-2.03-1.49-3.6-1.49-1.09,0-2.06.26-2.93.77-.86.48-1.54,1.22-2.02,2.21s-.72,2.26-.72,3.79v12.96h-7.49v-25.82h7.15v7.06l-1.34-2.06c.9-1.76,2.16-3.09,3.79-3.98,1.66-.93,3.55-1.39,5.66-1.39,2.37,0,4.43.61,6.19,1.82,1.79,1.18,2.98,3.01,3.55,5.47l-2.64-.72c.86-2.02,2.24-3.62,4.13-4.8,1.92-1.18,4.11-1.78,6.58-1.78Zm33.11,26.21v-5.04l-.48-1.1v-9.02c0-1.6-.5-2.85-1.49-3.74-.96-.9-2.45-1.34-4.46-1.34-1.38,0-2.74.22-4.08.67-1.31.42-2.43.99-3.36,1.73l-2.69-5.23c1.41-.99,3.1-1.76,5.09-2.3s4-.82,6.05-.82c3.94,0,6.99.93,9.17,2.78,2.18,1.86,3.26,4.75,3.26,8.69v14.74h-7.01Zm-7.87.38c-2.02,0-3.74-.34-5.18-1.01-1.44-.7-2.54-1.65-3.31-2.83-.77-1.18-1.15-2.51-1.15-3.98s.37-2.88,1.1-4.03c.77-1.15,1.97-2.05,3.6-2.69,1.63-.67,3.76-1.01,6.38-1.01h6.86v4.37h-6.05c-1.76,0-2.98.29-3.65.86-.64.58-.96,1.3-.96,2.16,0,.96.37,1.73,1.1,2.3.77.54,1.81.82,3.12.82s2.37-.29,3.36-.86c.99-.61,1.71-1.49,2.16-2.64l1.15,3.46c-.54,1.66-1.54,2.93-2.98,3.79s-3.3,1.3-5.57,1.3Zm54.73-26.59c2.05,0,3.86.42,5.42,1.25,1.6.8,2.85,2.05,3.74,3.74.93,1.66,1.39,3.81,1.39,6.43v14.78h-7.49v-13.63c0-2.08-.43-3.62-1.3-4.61-.86-.99-2.08-1.49-3.65-1.49-1.09,0-2.06.26-2.93.77-.86.48-1.54,1.22-2.02,2.21s-.72,2.26-.72,3.79v12.96h-7.49v-13.63c0-2.08-.43-3.62-1.3-4.61-.83-.99-2.03-1.49-3.6-1.49-1.09,0-2.06.26-2.93.77-.86.48-1.54,1.22-2.02,2.21s-.72,2.26-.72,3.79v12.96h-7.49v-25.82h7.15v7.06l-1.34-2.06c.9-1.76,2.16-3.09,3.79-3.98,1.66-.93,3.55-1.39,5.66-1.39,2.37,0,4.43.61,6.19,1.82,1.79,1.18,2.98,3.01,3.55,5.47l-2.64-.72c.86-2.02,2.24-3.62,4.13-4.8,1.92-1.18,4.11-1.78,6.58-1.78Zm30.27,26.59c-2.94,0-5.54-.58-7.78-1.73-2.21-1.15-3.92-2.72-5.14-4.7-1.22-2.02-1.82-4.3-1.82-6.86s.59-4.88,1.78-6.86c1.22-2.02,2.86-3.58,4.94-4.7,2.08-1.15,4.43-1.73,7.06-1.73s4.8.54,6.82,1.63c2.05,1.06,3.66,2.59,4.85,4.61,1.18,1.98,1.78,4.37,1.78,7.15,0,.29-.02.62-.05,1.01-.03.35-.06.69-.1,1.01h-20.98v-4.37h17.04l-2.88,1.3c0-1.34-.27-2.51-.82-3.5-.54-.99-1.3-1.76-2.26-2.3-.96-.58-2.08-.86-3.36-.86s-2.42.29-3.41.86c-.96.54-1.71,1.33-2.26,2.35-.54.99-.82,2.18-.82,3.55v1.15c0,1.41.3,2.66.91,3.74.64,1.06,1.52,1.87,2.64,2.45,1.15.54,2.5.82,4.03.82,1.38,0,2.58-.21,3.6-.62,1.06-.42,2.02-1.04,2.88-1.87l3.98,4.32c-1.18,1.34-2.67,2.38-4.46,3.12-1.79.7-3.86,1.06-6.19,1.06Zm33.16-26.59c2.05,0,3.87.42,5.47,1.25,1.63.8,2.91,2.05,3.84,3.74.93,1.66,1.39,3.81,1.39,6.43v14.78h-7.49v-13.63c0-2.08-.46-3.62-1.39-4.61-.9-.99-2.18-1.49-3.84-1.49-1.18,0-2.26.26-3.22.77-.93.48-1.66,1.23-2.21,2.26-.51,1.02-.77,2.34-.77,3.94v12.77h-7.49v-25.82h7.15v7.15l-1.34-2.16c.93-1.73,2.26-3.06,3.98-3.98s3.7-1.39,5.9-1.39Zm28.05,26.59c-3.04,0-5.41-.77-7.1-2.3-1.7-1.57-2.54-3.89-2.54-6.96v-22.66h7.49v22.56c0,1.09.29,1.94.86,2.54.58.58,1.36.86,2.35.86,1.18,0,2.19-.32,3.02-.96l2.02,5.28c-.77.54-1.7.96-2.78,1.25-1.06.26-2.16.38-3.31.38Zm-13.63-19.87v-5.76h17.9v5.76h-17.9Zm35.95,19.87c-2.94,0-5.54-.58-7.78-1.73-2.21-1.15-3.92-2.72-5.14-4.7-1.22-2.02-1.82-4.3-1.82-6.86s.59-4.88,1.78-6.86c1.22-2.02,2.86-3.58,4.94-4.7,2.08-1.15,4.43-1.73,7.06-1.73s4.8.54,6.82,1.63c2.05,1.06,3.66,2.59,4.85,4.61,1.18,1.98,1.78,4.37,1.78,7.15,0,.29-.02.62-.05,1.01-.03.35-.06.69-.1,1.01h-20.98v-4.37h17.04l-2.88,1.3c0-1.34-.27-2.51-.82-3.5-.54-.99-1.3-1.76-2.26-2.3-.96-.58-2.08-.86-3.36-.86s-2.42.29-3.41.86c-.96.54-1.71,1.33-2.26,2.35-.54.99-.82,2.18-.82,3.55v1.15c0,1.41.3,2.66.91,3.74.64,1.06,1.52,1.87,2.64,2.45,1.15.54,2.5.82,4.03.82,1.38,0,2.58-.21,3.6-.62,1.06-.42,2.02-1.04,2.88-1.87l3.98,4.32c-1.18,1.34-2.67,2.38-4.46,3.12-1.79.7-3.86,1.06-6.19,1.06Zm20.3,0c-1.28,0-2.38-.43-3.31-1.3-.9-.9-1.34-2.03-1.34-3.41s.45-2.48,1.34-3.31c.93-.86,2.03-1.3,3.31-1.3s2.42.43,3.31,1.3c.9.83,1.34,1.94,1.34,3.31s-.45,2.51-1.34,3.41c-.9.86-2,1.3-3.31,1.3Zm12.56,0c-1.28,0-2.38-.43-3.31-1.3-.9-.9-1.34-2.03-1.34-3.41s.45-2.48,1.34-3.31c.93-.86,2.03-1.3,3.31-1.3s2.42.43,3.31,1.3c.9.83,1.34,1.94,1.34,3.31s-.45,2.51-1.34,3.41c-.9.86-2,1.3-3.31,1.3Zm12.56,0c-1.28,0-2.38-.43-3.31-1.3-.9-.9-1.34-2.03-1.34-3.41s.45-2.48,1.34-3.31c.93-.86,2.03-1.3,3.31-1.3s2.42.43,3.31,1.3c.9.83,1.34,1.94,1.34,3.31s-.45,2.51-1.34,3.41c-.9.86-2,1.3-3.31,1.3Z"/>
    </g>
    <g>
      <path class="cls-1" d="m227.78,188.9c0,7.51-3.18,10.77-10.64,11.91-7.35,1.12-14.65,2.63-21.88,4.37-6.66,1.6-11.19-.32-13.63-6.67-.85-2.21-1.69-4.59-1.76-6.92-.12-4.29,2.85-7.79,7.2-9.17,9.59-3.04,19.39-5.04,29.42-5.82,5.89-.46,10.27,3.09,11.06,8.95.15,1.11.15,2.24.22,3.36Z"/>
      <path class="cls-1" d="m217.69,423.43c-4.6-.62-9.22-1.15-13.8-1.88-9.07-1.45-17.84-4-26.27-7.64-1.6-.69-2.59-.49-3.73.78-1.83,2.03-3.78,3.94-5.78,5.81-4.02,3.76-9.44,2.48-11.09-2.74-5.27-16.59-10.41-33.21-15.61-49.82-.84-2.67-.53-5.11,1.54-7.1,2.08-2,4.56-2.07,7.18-1.24,13.31,4.18,26.63,8.35,39.95,12.52,3.06.96,6.14,1.87,9.18,2.88,5.85,1.95,7.08,7.16,2.76,11.6-2.41,2.48-4.87,4.9-7.3,7.36-.05.05-.06.15-.21.53,1.17.36,2.32.74,3.49,1.08,47.48,13.68,98.39-10.47,117.57-55.98,2.63-6.24,4.44-12.87,6.19-19.44,1.74-6.49,4.77-9.22,11.53-9.21,1.84,0,3.74-.06,5.5.37,5.25,1.28,8.09,6.27,7.04,11.98-9.12,49.72-49.78,89.83-99.64,98.19-5.13.86-10.33,1.31-15.49,1.94-4.34,0-8.68,0-13.02,0Z"/>
      <path class="cls-1" d="m345.2,272.1c-.18,4.88-2.8,8.45-7,9.61-2.38.66-4.86,1.19-7.32,1.27-4.09.13-7.88-2.58-9.04-6.67-2.45-8.58-5.56-16.88-9.6-24.84-1.39-2.74-1.28-5.75.33-8.32,2.84-4.53,7.16-7.21,12.45-7.58,3.76-.26,6.8,1.75,8.64,5.14,5,9.2,8.68,18.92,11.24,29.07.23.92.25,1.9.3,2.31Z"/>
      <path class="cls-1" d="m268.27,184.11c2.42.98,6.06,2.06,9.31,3.84,6.74,3.69,13.41,7.55,19.86,11.71,5.24,3.38,6.01,9.49,2.32,14.48-.67.9-1.39,1.76-2.11,2.63-4.09,4.92-9.04,5.5-14.51,2.27-6.82-4.03-13.76-7.85-20.8-11.46-5.58-2.86-7.73-7.26-5.83-13.26.46-1.45.93-2.91,1.55-4.29,1.73-3.82,4.83-5.61,10.2-5.91Z"/>
      <path class="cls-1" d="m118.81,239.91c.71-1.83,1.16-3.83,2.18-5.48,5.26-8.59,11.57-16.36,18.77-23.4,4.46-4.36,10.38-4.16,14.73.27,6.32,6.43,7.42,11.95,0,19.35-4.68,4.65-8.52,10.19-12.4,15.58-4.34,6.05-8.8,7.25-15.48,3.83-4.19-2.14-7.36-4.85-7.8-10.15Z"/>
    </g>
  </g>
</svg>