<?xml version="1.0" encoding="UTF-8"?>
<svg id="Capa_2" data-name="Capa 2" xmlns="http://www.w3.org/2000/svg" viewBox="0 0 289.46 80.9">
  <defs>
    <style>
      .cls-1, .cls-2 {
        fill: #fff;
      }

      .cls-2, .cls-3 {
        stroke: #00c129;
        stroke-width: 4px;
      }

      .cls-3 {
        fill: none;
        stroke-linecap: round;
        stroke-linejoin: round;
      }
    </style>
  </defs>
  <g id="Capa_1-2" data-name="Capa 1">
    <path class="cls-1" d="m9.05,76.24c-1.31,0-2.52-.21-3.62-.62-1.09-.43-2.04-1.03-2.86-1.8-.82-.78-1.45-1.7-1.9-2.76s-.67-2.21-.67-3.46.22-2.4.67-3.46c.45-1.06,1.08-1.97,1.9-2.74.83-.78,1.8-1.38,2.9-1.8,1.1-.43,2.31-.65,3.62-.65,1.42,0,2.7.23,3.84.7,1.15.46,2.12,1.14,2.9,2.04l-1.97,1.92c-.66-.66-1.37-1.14-2.14-1.44-.75-.32-1.58-.48-2.5-.48s-1.7.14-2.45.43c-.75.29-1.4.7-1.94,1.22-.54.53-.97,1.15-1.27,1.87-.29.72-.43,1.51-.43,2.38s.14,1.63.43,2.35c.3.72.73,1.35,1.27,1.9.54.53,1.18.94,1.92,1.22.74.29,1.55.43,2.45.43.83,0,1.63-.13,2.4-.38.78-.27,1.53-.72,2.23-1.34l1.78,2.33c-.88.7-1.9,1.24-3.07,1.61-1.15.35-2.32.53-3.5.53Zm3.62-2.54v-6.29h2.95v6.7l-2.95-.41Zm12.54,2.47c-1.31,0-2.48-.28-3.5-.84-1.02-.58-1.83-1.36-2.42-2.35-.59-.99-.89-2.12-.89-3.38s.3-2.41.89-3.38c.59-.99,1.4-1.77,2.42-2.33,1.02-.56,2.19-.84,3.5-.84s2.5.28,3.53.84c1.04.56,1.85,1.33,2.42,2.3.59.98.89,2.11.89,3.41s-.3,2.39-.89,3.38c-.58.99-1.38,1.78-2.42,2.35-1.02.56-2.2.84-3.53.84Zm0-2.57c.74,0,1.39-.16,1.97-.48s1.02-.78,1.34-1.39c.34-.61.5-1.32.5-2.14s-.17-1.54-.5-2.14c-.32-.61-.77-1.07-1.34-1.39s-1.22-.48-1.94-.48-1.39.16-1.97.48c-.56.32-1.01.78-1.34,1.39-.34.59-.5,1.3-.5,2.14s.17,1.53.5,2.14c.34.61.78,1.07,1.34,1.39.58.32,1.22.48,1.94.48Zm10.41,7.22c-.62,0-1.25-.1-1.87-.31-.62-.21-1.14-.5-1.56-.86l1.2-2.21c.3.27.65.49,1.03.65.38.16.78.24,1.18.24.54,0,.98-.14,1.32-.41.34-.27.65-.73.94-1.37l.74-1.68.24-.36,4.85-11.33h2.88l-6,13.85c-.4.96-.85,1.72-1.34,2.28-.48.56-1.02.95-1.63,1.18-.59.22-1.25.34-1.97.34Zm2.64-4.37l-5.78-13.27h3.12l4.7,11.06-2.04,2.21Zm15.85-.29c-1.42,0-2.67-.28-3.74-.84-1.06-.58-1.88-1.36-2.47-2.35-.58-.99-.86-2.12-.86-3.38s.28-2.41.84-3.38c.58-.99,1.36-1.77,2.35-2.33,1.01-.56,2.15-.84,3.43-.84s2.36.27,3.34.82c.98.54,1.74,1.31,2.3,2.3.56.99.84,2.16.84,3.5,0,.13,0,.27-.02.43,0,.16,0,.31-.02.46h-10.68v-1.99h9.1l-1.18.62c.02-.74-.14-1.38-.46-1.94-.32-.56-.76-1-1.32-1.32-.54-.32-1.18-.48-1.9-.48s-1.38.16-1.94.48c-.54.32-.98.77-1.3,1.34-.3.56-.46,1.22-.46,1.99v.48c0,.77.18,1.45.53,2.04.35.59.85,1.05,1.49,1.37s1.38.48,2.21.48c.72,0,1.37-.11,1.94-.34.58-.22,1.09-.58,1.54-1.06l1.61,1.85c-.58.67-1.3,1.19-2.18,1.56-.86.35-1.86.53-2.98.53Zm10.07-.17v-15.6l1.37,1.42h-4.92v-2.62h6.67v16.8h-3.12Zm6.21-3.82v-2.16l8.28-10.82h3.34l-8.16,10.82-1.56-.48h13.32v2.64h-15.22Zm9.22,3.82v-3.82l.1-2.64v-3.38h2.93v9.84h-3.02Zm9.39,0v-15.6l1.37,1.42h-4.92v-2.62h6.67v16.8h-3.12Zm13.46.24c-1.33,0-2.53-.34-3.6-1.01-1.06-.67-1.89-1.65-2.5-2.93-.61-1.3-.91-2.86-.91-4.7s.3-3.4.91-4.68c.61-1.3,1.44-2.28,2.5-2.95,1.07-.67,2.27-1.01,3.6-1.01s2.54.34,3.6,1.01c1.06.67,1.89,1.66,2.5,2.95.62,1.28.94,2.84.94,4.68s-.31,3.41-.94,4.7c-.61,1.28-1.44,2.26-2.5,2.93-1.06.67-2.26,1.01-3.6,1.01Zm0-2.71c.78,0,1.46-.21,2.04-.62.58-.43,1.02-1.09,1.34-1.97.34-.88.5-1.99.5-3.34s-.17-2.47-.5-3.34c-.32-.88-.77-1.53-1.34-1.94-.58-.43-1.26-.65-2.04-.65s-1.42.22-2.02.65c-.58.42-1.03,1.06-1.37,1.94-.32.86-.48,1.98-.48,3.34s.16,2.46.48,3.34c.34.88.79,1.54,1.37,1.97.59.42,1.26.62,2.02.62Zm20.52,7.37c-1.7,0-3.24-.27-4.63-.82-1.39-.54-2.59-1.31-3.6-2.3-1.01-.99-1.78-2.15-2.33-3.48-.54-1.34-.82-2.81-.82-4.39s.27-3.04.82-4.37c.54-1.33,1.32-2.48,2.33-3.46,1.02-.98,2.24-1.74,3.65-2.28,1.41-.54,2.97-.82,4.68-.82s3.16.26,4.54.79c1.38.51,2.56,1.24,3.55,2.18,1.01.93,1.78,2.03,2.33,3.31.56,1.28.84,2.69.84,4.22,0,1.38-.18,2.57-.55,3.58-.37.99-.9,1.75-1.58,2.28-.67.53-1.5.79-2.47.79s-1.78-.3-2.38-.89c-.58-.59-.86-1.45-.86-2.57v-1.37l.1-1.37-.22-3.12v-2.74h2.66v8.16c0,.61.12,1.04.36,1.3.26.24.55.36.89.36.43,0,.8-.17,1.1-.5.3-.34.53-.83.67-1.49.16-.66.24-1.45.24-2.38,0-1.28-.22-2.45-.67-3.5-.43-1.06-1.06-1.96-1.9-2.71-.82-.77-1.79-1.35-2.93-1.75-1.12-.42-2.36-.62-3.72-.62s-2.66.22-3.79.67c-1.14.43-2.11,1.05-2.93,1.85-.82.8-1.45,1.75-1.9,2.86-.43,1.09-.65,2.28-.65,3.58s.22,2.54.65,3.65c.43,1.1,1.05,2.05,1.85,2.83.82.8,1.78,1.42,2.9,1.85,1.12.45,2.38.67,3.77.67.74,0,1.51-.09,2.33-.26.82-.16,1.59-.42,2.33-.79l.65,1.92c-.74.37-1.58.65-2.54.84s-1.88.29-2.76.29Zm-.62-4.75c-1.1,0-2.09-.26-2.95-.77-.86-.53-1.55-1.25-2.06-2.16-.5-.93-.74-1.99-.74-3.19s.25-2.23.74-3.14c.5-.93,1.18-1.65,2.04-2.16.88-.51,1.87-.77,2.98-.77s2.01.24,2.81.72c.8.46,1.42,1.14,1.87,2.04.45.9.67,2,.67,3.31s-.22,2.42-.65,3.34c-.43.91-1.05,1.61-1.85,2.09-.8.46-1.75.7-2.86.7Zm.5-2.33c.69,0,1.3-.14,1.82-.43.53-.3.94-.74,1.25-1.32.32-.58.48-1.26.48-2.04s-.16-1.47-.48-2.02c-.3-.56-.72-.98-1.25-1.27-.53-.3-1.14-.46-1.82-.46s-1.33.15-1.87.46c-.53.3-.94.74-1.25,1.3-.29.56-.43,1.22-.43,1.99s.14,1.46.43,2.02c.3.56.72,1,1.25,1.32.54.3,1.17.46,1.87.46Zm21.75-10.78c1.02,0,1.94.2,2.74.6.82.4,1.46,1.02,1.92,1.85.46.82.7,1.87.7,3.17v7.34h-3v-6.96c0-1.14-.27-1.98-.82-2.54-.53-.56-1.27-.84-2.23-.84-.7,0-1.33.14-1.87.43-.54.29-.97.72-1.27,1.3-.29.56-.43,1.27-.43,2.14v6.48h-3v-17.81h3v8.45l-.65-1.06c.45-.82,1.1-1.44,1.94-1.87.86-.45,1.86-.67,2.98-.67Zm14.94,13.13c-1.31,0-2.48-.28-3.5-.84-1.02-.58-1.83-1.36-2.42-2.35-.59-.99-.89-2.12-.89-3.38s.3-2.41.89-3.38c.59-.99,1.4-1.77,2.42-2.33,1.02-.56,2.19-.84,3.5-.84s2.5.28,3.53.84c1.04.56,1.85,1.33,2.42,2.3.59.98.89,2.11.89,3.41s-.3,2.39-.89,3.38c-.58.99-1.38,1.78-2.42,2.35-1.02.56-2.2.84-3.53.84Zm0-2.57c.74,0,1.39-.16,1.97-.48.58-.32,1.02-.78,1.34-1.39.34-.61.5-1.32.5-2.14s-.17-1.54-.5-2.14c-.32-.61-.77-1.07-1.34-1.39-.58-.32-1.22-.48-1.94-.48s-1.39.16-1.97.48c-.56.32-1.01.78-1.34,1.39-.34.59-.5,1.3-.5,2.14s.17,1.53.5,2.14c.34.61.78,1.07,1.34,1.39.58.32,1.22.48,1.94.48Zm14.53,2.57c-1.41,0-2.5-.36-3.26-1.08-.77-.74-1.15-1.82-1.15-3.24v-11.5h3v11.42c0,.61.15,1.08.46,1.42.32.34.76.5,1.32.5.67,0,1.23-.18,1.68-.53l.84,2.14c-.35.29-.78.5-1.3.65-.51.14-1.04.22-1.58.22Zm-6.53-10.49v-2.4h8.54v2.4h-8.54Zm28.05-2.64c1.02,0,1.93.2,2.71.6.8.4,1.42,1.02,1.87,1.85.45.82.67,1.87.67,3.17v7.34h-3v-6.96c0-1.14-.25-1.98-.74-2.54-.5-.56-1.21-.84-2.14-.84-.66,0-1.24.14-1.75.43-.5.29-.89.71-1.18,1.27-.27.56-.41,1.27-.41,2.14v6.5h-3v-6.96c0-1.14-.25-1.98-.74-2.54-.5-.56-1.21-.84-2.14-.84-.66,0-1.24.14-1.75.43-.5.29-.89.71-1.18,1.27-.27.56-.41,1.27-.41,2.14v6.5h-3v-12.82h2.86v3.41l-.5-1.01c.43-.83,1.06-1.46,1.87-1.9.83-.43,1.78-.65,2.83-.65,1.2,0,2.24.3,3.12.89.9.59,1.49,1.49,1.78,2.69l-1.18-.41c.42-.96,1.1-1.73,2.06-2.3.96-.58,2.07-.86,3.34-.86Zm16.99,12.96v-2.59l-.17-.55v-4.54c0-.88-.26-1.56-.79-2.04-.53-.5-1.33-.74-2.4-.74-.72,0-1.43.11-2.14.34-.69.22-1.27.54-1.75.94l-1.18-2.18c.69-.53,1.5-.92,2.45-1.18.96-.27,1.95-.41,2.98-.41,1.86,0,3.29.45,4.3,1.34,1.02.88,1.54,2.25,1.54,4.1v7.51h-2.83Zm-4.03.17c-.96,0-1.8-.16-2.52-.48-.72-.34-1.28-.79-1.68-1.37-.38-.59-.58-1.26-.58-1.99s.17-1.37.5-1.94c.35-.58.92-1.03,1.7-1.37s1.82-.5,3.12-.5h3.72v1.99h-3.5c-1.02,0-1.71.17-2.06.5-.35.32-.53.72-.53,1.2,0,.54.22.98.65,1.3.43.32,1.03.48,1.8.48s1.39-.17,1.97-.5c.59-.34,1.02-.83,1.27-1.49l.5,1.8c-.29.75-.81,1.34-1.56,1.75-.74.42-1.67.62-2.81.62Zm10.71-.17v-12.82h3v12.82h-3Zm1.51-14.93c-.56,0-1.02-.18-1.39-.53-.35-.35-.53-.78-.53-1.27s.18-.94.53-1.27c.37-.35.83-.53,1.39-.53s1.02.17,1.37.5c.37.32.55.73.55,1.22,0,.53-.18.98-.53,1.34-.35.35-.82.53-1.39.53Zm5.42,14.93v-17.81h3v17.81h-3Zm7.9.17c-.54,0-1.01-.18-1.39-.55-.38-.38-.58-.86-.58-1.44,0-.61.19-1.09.58-1.44.38-.37.85-.55,1.39-.55s1.01.18,1.39.55c.38.35.58.83.58,1.44,0,.58-.19,1.06-.58,1.44-.38.37-.85.55-1.39.55Zm10.57,0c-1.34,0-2.54-.28-3.6-.84-1.04-.58-1.86-1.36-2.45-2.35-.59-.99-.89-2.12-.89-3.38s.3-2.41.89-3.38c.59-.99,1.41-1.77,2.45-2.33,1.06-.56,2.26-.84,3.6-.84,1.25,0,2.34.26,3.29.77.96.5,1.69,1.23,2.18,2.21l-2.3,1.34c-.38-.61-.86-1.06-1.42-1.34-.54-.29-1.14-.43-1.78-.43-.74,0-1.4.16-1.99.48-.59.32-1.06.78-1.39,1.39-.34.59-.5,1.3-.5,2.14s.17,1.55.5,2.16c.34.59.8,1.05,1.39,1.37.59.32,1.26.48,1.99.48.64,0,1.23-.14,1.78-.43.56-.29,1.03-.74,1.42-1.34l2.3,1.34c-.5.96-1.22,1.7-2.18,2.23-.94.51-2.04.77-3.29.77Zm13.64,0c-1.31,0-2.48-.28-3.5-.84-1.02-.58-1.83-1.36-2.42-2.35-.59-.99-.89-2.12-.89-3.38s.3-2.41.89-3.38c.59-.99,1.4-1.77,2.42-2.33s2.19-.84,3.5-.84,2.5.28,3.53.84c1.04.56,1.85,1.33,2.42,2.3.59.98.89,2.11.89,3.41s-.3,2.39-.89,3.38c-.58.99-1.38,1.78-2.42,2.35-1.02.56-2.2.84-3.53.84Zm0-2.57c.74,0,1.39-.16,1.97-.48.58-.32,1.02-.78,1.34-1.39.34-.61.5-1.32.5-2.14s-.17-1.54-.5-2.14c-.32-.61-.77-1.07-1.34-1.39-.58-.32-1.22-.48-1.94-.48s-1.39.16-1.97.48c-.56.32-1.01.78-1.34,1.39-.34.59-.5,1.3-.5,2.14s.17,1.53.5,2.14c.34.61.78,1.07,1.34,1.39.58.32,1.22.48,1.94.48Zm25.89-10.56c1.02,0,1.93.2,2.71.6.8.4,1.42,1.02,1.87,1.85.45.82.67,1.87.67,3.17v7.34h-3v-6.96c0-1.14-.25-1.98-.74-2.54-.5-.56-1.21-.84-2.14-.84-.66,0-1.24.14-1.75.43-.5.29-.89.71-1.18,1.27-.27.56-.41,1.27-.41,2.14v6.5h-3v-6.96c0-1.14-.25-1.98-.74-2.54-.5-.56-1.21-.84-2.14-.84-.66,0-1.24.14-1.75.43-.5.29-.89.71-1.18,1.27-.27.56-.41,1.27-.41,2.14v6.5h-3v-12.82h2.86v3.41l-.5-1.01c.43-.83,1.06-1.46,1.87-1.9.83-.43,1.78-.65,2.83-.65,1.2,0,2.24.3,3.12.89.9.59,1.49,1.49,1.78,2.69l-1.18-.41c.42-.96,1.1-1.73,2.06-2.3.96-.58,2.07-.86,3.34-.86Z"/>
    <path class="cls-2" d="m120.14,31.68V6.95c0-2.73,2.21-4.95,4.95-4.95h39.57c2.73,0,4.95,2.21,4.95,4.95v24.73c0,2.73-2.21,4.95-4.95,4.95h-39.57c-2.73,0-4.95-2.21-4.95-4.95Z"/>
    <path class="cls-3" d="m121.32,4.36l23.33,18.31,23.33-18.31"/>
  </g>
</svg>