<?xml version="1.0" encoding="UTF-8"?>
<svg id="Capa_2" data-name="Capa 2" xmlns="http://www.w3.org/2000/svg" viewBox="0 0 51.9 52.01">
  <defs>
    <style>
      .cls-1 {
        fill: #fff;
      }

      .cls-2 {
        fill: #00c129;
      }
    </style>
  </defs>
  <g id="Capa_1-2" data-name="Capa 1">
    <g>
      <path class="cls-2" d="m0,52.01c.64-1.91,1.21-3.61,1.78-5.32.75-2.24,1.46-4.49,2.28-6.7.37-1.03.29-1.87-.22-2.84C-1.37,27.06.48,14.94,8.67,7.28,16,.42,24.72-1.73,34.28,1.42c9.56,3.14,15.45,9.94,17.25,19.91,2.49,13.83-7.56,27.3-21.49,29.12-5.22.68-10.19-.04-14.9-2.38-.76-.37-1.44-.4-2.23-.14-3.91,1.27-7.82,2.5-11.73,3.74-.31.1-.62.18-1.17.34h0Zm6.46-6.34c.53-.14.86-.21,1.19-.31,1.94-.61,3.89-1.2,5.82-1.85.77-.26,1.41-.17,2.12.23,4.55,2.6,9.4,3.44,14.59,2.59,11.17-1.84,19.17-12.84,17.4-23.99-1.84-11.59-12.26-19.39-23.96-17.95C8.91,6.19.44,22.39,7.58,35.31c1.14,2.07,1.41,3.75.43,5.83-.65,1.38-1.01,2.9-1.56,4.53h0Z"/>
      <path class="cls-1" d="m6.46,45.67c.55-1.64.91-3.15,1.56-4.53.98-2.08.71-3.76-.43-5.83C.44,22.39,8.91,6.18,23.61,4.38c11.71-1.44,22.12,6.36,23.96,17.95,1.78,11.15-6.23,22.15-17.4,23.99-5.19.86-10.04,0-14.59-2.59-.7-.4-1.35-.48-2.12-.23-1.93.65-3.88,1.24-5.82,1.85-.33.1-.66.18-1.19.31Zm26.45-8.41c3.62.02,5.93-1.82,6.39-4.66.15-.91-.07-1.56-.97-1.96-1.45-.64-2.87-1.33-4.28-2.04-.82-.42-1.39-.23-1.91.5-.45.63-1,1.19-1.46,1.81-.49.66-1.04.73-1.78.41-3.08-1.31-5.59-3.32-7.52-6.07-1.31-1.87-1.04-1.93.09-3.24.21-.24.37-.53.57-.78.49-.62.53-1.26.2-1.99-.58-1.26-1.07-2.56-1.63-3.83-.72-1.65-1.2-1.96-2.91-1.47-.76.22-1.55.72-2.06,1.32-2.16,2.55-2.16,5.42-.71,8.25,2.44,4.75,5.85,8.67,10.6,11.28,2.45,1.35,5.05,2.32,7.4,2.48h-.01Z"/>
      <path class="cls-2" d="m32.91,37.26c-2.35-.16-4.94-1.13-7.4-2.48-4.75-2.6-8.16-6.52-10.6-11.28-1.45-2.83-1.45-5.7.71-8.25.51-.6,1.3-1.1,2.06-1.32,1.72-.49,2.2-.18,2.91,1.47.56,1.27,1.06,2.57,1.63,3.83.33.73.29,1.37-.2,1.99-.2.25-.36.54-.57.78-1.13,1.31-1.4,1.37-.09,3.24,1.92,2.74,4.43,4.75,7.52,6.07.73.31,1.28.25,1.78-.41.46-.62,1.01-1.18,1.46-1.81.51-.72,1.09-.91,1.91-.5,1.41.72,2.84,1.4,4.28,2.04.9.4,1.12,1.04.97,1.96-.46,2.83-2.77,4.67-6.39,4.66h.01Z"/>
    </g>
  </g>
</svg>