<?xml version="1.0" encoding="UTF-8"?>
<svg id="Capa_2" data-name="Capa 2" xmlns="http://www.w3.org/2000/svg" viewBox="0 0 130.05 86.25">
  <defs>
    <style>
      .cls-1 {
        fill: #fff;
      }

      .cls-2 {
        fill: #00c129;
      }
    </style>
  </defs>
  <g id="Capa_1-2" data-name="Capa 1">
    <path class="cls-1" d="m6.31,86.25c-1.18,0-2.34-.17-3.48-.5-1.12-.35-2.06-.83-2.83-1.44l1.34-2.42c.61.5,1.34.9,2.21,1.2s1.77.46,2.71.46c1.12,0,1.99-.22,2.62-.67.62-.46.94-1.09.94-1.87s-.29-1.38-.86-1.82-1.5-.67-2.78-.67h-1.54v-2.14l4.8-5.71.41,1.18H.82v-2.62h11.45v2.09l-4.8,5.71-1.63-.96h.94c2.06,0,3.61.46,4.63,1.39,1.04.91,1.56,2.09,1.56,3.53,0,.94-.24,1.82-.72,2.62-.48.8-1.22,1.45-2.21,1.94-.98.48-2.22.72-3.72.72Zm8.36-.24v-2.09l6.67-6.34c.56-.53.98-.99,1.25-1.39.27-.4.45-.77.53-1.1.1-.35.14-.68.14-.98,0-.77-.26-1.36-.79-1.78-.53-.43-1.3-.65-2.33-.65-.82,0-1.56.14-2.23.43-.66.29-1.22.73-1.7,1.32l-2.18-1.68c.66-.88,1.54-1.56,2.64-2.04,1.12-.5,2.37-.74,3.74-.74,1.22,0,2.27.2,3.17.6.91.38,1.61.94,2.09,1.66.5.72.74,1.58.74,2.57,0,.54-.07,1.09-.22,1.63-.14.53-.42,1.09-.82,1.68-.4.59-.98,1.26-1.75,1.99l-5.74,5.45-.65-1.18h9.82v2.64h-12.38Zm16.87,0v-15.6l1.37,1.42h-4.92v-2.62h6.67v16.8h-3.12Zm9.26,0l6.94-15.55.82,1.39h-9.53l1.49-1.51v4.37h-2.9v-5.5h13.06v2.09l-6.53,14.71h-3.34Zm14.72,0v-15.6l1.37,1.42h-4.92v-2.62h6.67v16.8h-3.12Zm11.73.24c-1.18,0-2.34-.17-3.48-.5-1.12-.35-2.06-.83-2.83-1.44l1.34-2.42c.61.5,1.34.9,2.21,1.2s1.77.46,2.71.46c1.12,0,1.99-.22,2.62-.67.62-.46.94-1.09.94-1.87s-.29-1.38-.86-1.82c-.58-.45-1.5-.67-2.78-.67h-1.54v-2.14l4.8-5.71.41,1.18h-9.02v-2.62h11.45v2.09l-4.8,5.71-1.63-.96h.94c2.06,0,3.61.46,4.63,1.39,1.04.91,1.56,2.09,1.56,3.53,0,.94-.24,1.82-.72,2.62-.48.8-1.22,1.45-2.21,1.94-.98.48-2.22.72-3.72.72Zm8.45-4.06v-2.16l8.28-10.82h3.34l-8.16,10.82-1.56-.48h13.32v2.64h-15.22Zm9.22,3.82v-3.82l.1-2.64v-3.38h2.93v9.84h-3.02Zm14.29.24c-1.39,0-2.6-.21-3.62-.62s-1.82-1-2.38-1.75c-.56-.77-.84-1.66-.84-2.69s.27-1.89.82-2.59c.54-.7,1.33-1.24,2.35-1.61,1.02-.37,2.25-.55,3.67-.55s2.65.18,3.67.55c1.04.37,1.83.91,2.38,1.63.56.7.84,1.56.84,2.57s-.29,1.92-.86,2.69c-.56.75-1.36,1.34-2.4,1.75-1.02.42-2.23.62-3.62.62Zm0-2.45c1.15,0,2.06-.24,2.74-.72.67-.48,1.01-1.14,1.01-1.99s-.34-1.49-1.01-1.97c-.67-.48-1.58-.72-2.74-.72s-2.06.24-2.71.72c-.66.48-.98,1.14-.98,1.97s.33,1.51.98,1.99c.66.48,1.56.72,2.71.72Zm0-5.74c-1.3,0-2.41-.17-3.34-.5-.93-.35-1.65-.86-2.16-1.51-.5-.67-.74-1.47-.74-2.4s.26-1.78.77-2.47c.53-.7,1.26-1.25,2.21-1.63.94-.38,2.03-.58,3.26-.58s2.34.19,3.29.58c.94.38,1.68.93,2.21,1.63.53.69.79,1.51.79,2.47s-.26,1.73-.77,2.4c-.5.66-1.22,1.16-2.16,1.51-.94.34-2.06.5-3.36.5Zm0-1.92c.99,0,1.78-.21,2.35-.62.58-.43.86-1.01.86-1.73s-.3-1.34-.89-1.75c-.59-.42-1.37-.62-2.33-.62s-1.73.21-2.3.62-.86,1-.86,1.75.28,1.3.84,1.73c.58.42,1.35.62,2.33.62Zm15.92,10.1c-1.33,0-2.53-.34-3.6-1.01-1.06-.67-1.89-1.65-2.5-2.93-.61-1.3-.91-2.86-.91-4.7s.3-3.4.91-4.68c.61-1.3,1.44-2.28,2.5-2.95,1.07-.67,2.27-1.01,3.6-1.01s2.54.34,3.6,1.01c1.06.67,1.89,1.66,2.5,2.95.62,1.28.94,2.84.94,4.68s-.31,3.41-.94,4.7c-.61,1.28-1.44,2.26-2.5,2.93-1.06.67-2.26,1.01-3.6,1.01Zm0-2.71c.78,0,1.46-.21,2.04-.62.58-.43,1.02-1.09,1.34-1.97.34-.88.5-1.99.5-3.34s-.17-2.47-.5-3.34c-.32-.88-.77-1.53-1.34-1.94-.58-.43-1.26-.65-2.04-.65s-1.42.22-2.02.65c-.58.42-1.03,1.06-1.37,1.94-.32.86-.48,1.98-.48,3.34s.16,2.46.48,3.34c.34.88.79,1.54,1.37,1.97.59.42,1.26.62,2.02.62Zm11.81,2.47v-15.6l1.37,1.42h-4.92v-2.62h6.67v16.8h-3.12Z"/>
    <path class="cls-2" d="m40.66,52.01c.64-1.91,1.21-3.61,1.78-5.32.75-2.24,1.46-4.49,2.28-6.7.37-1.03.29-1.87-.22-2.84-5.22-10.09-3.36-22.22,4.82-29.88C56.65.42,65.37-1.73,74.93,1.42c9.56,3.14,15.45,9.94,17.25,19.91,2.49,13.83-7.56,27.3-21.49,29.12-5.22.68-10.19-.04-14.9-2.38-.76-.37-1.44-.4-2.23-.14-3.91,1.27-7.82,2.5-11.73,3.74-.31.1-.62.18-1.17.34h0Zm6.46-6.34c.53-.14.86-.21,1.19-.31,1.94-.61,3.89-1.2,5.82-1.85.77-.26,1.41-.17,2.12.23,4.55,2.6,9.4,3.44,14.59,2.59,11.17-1.84,19.17-12.84,17.4-23.99-1.84-11.59-12.26-19.39-23.96-17.95-14.7,1.8-23.17,18-16.03,30.93,1.14,2.07,1.41,3.75.43,5.83-.65,1.38-1.01,2.9-1.56,4.53h0Z"/>
    <path class="cls-1" d="m47.11,45.67c.55-1.64.91-3.15,1.56-4.53.98-2.08.71-3.76-.43-5.83-7.15-12.92,1.32-29.12,16.02-30.93,11.71-1.44,22.12,6.36,23.96,17.95,1.78,11.15-6.23,22.15-17.4,23.99-5.19.86-10.04,0-14.59-2.59-.7-.4-1.35-.48-2.12-.23-1.93.65-3.88,1.24-5.82,1.85-.33.1-.66.18-1.19.31Zm26.45-8.41c3.62.02,5.93-1.82,6.39-4.66.15-.91-.07-1.56-.97-1.96-1.45-.64-2.87-1.33-4.28-2.04-.82-.42-1.39-.23-1.91.5-.45.63-1,1.19-1.46,1.81-.49.66-1.04.73-1.78.41-3.08-1.31-5.59-3.32-7.52-6.07-1.31-1.87-1.04-1.93.09-3.24.21-.24.37-.53.57-.78.49-.62.53-1.26.2-1.99-.58-1.26-1.07-2.56-1.63-3.83-.72-1.65-1.2-1.96-2.91-1.47-.76.22-1.55.72-2.06,1.32-2.16,2.55-2.16,5.42-.71,8.25,2.44,4.75,5.85,8.67,10.6,11.28,2.45,1.35,5.05,2.32,7.4,2.48h-.01Z"/>
    <path class="cls-2" d="m73.56,37.26c-2.35-.16-4.94-1.13-7.4-2.48-4.75-2.6-8.16-6.52-10.6-11.28-1.45-2.83-1.45-5.7.71-8.25.51-.6,1.3-1.1,2.06-1.32,1.72-.49,2.2-.18,2.91,1.47.56,1.27,1.06,2.57,1.63,3.83.33.73.29,1.37-.2,1.99-.2.25-.36.54-.57.78-1.13,1.31-1.4,1.37-.09,3.24,1.92,2.74,4.43,4.75,7.52,6.07.73.31,1.28.25,1.78-.41.46-.62,1.01-1.18,1.46-1.81.51-.72,1.09-.91,1.91-.5,1.41.72,2.84,1.4,4.28,2.04.9.4,1.12,1.04.97,1.96-.46,2.83-2.77,4.67-6.39,4.66h.01Z"/>
  </g>
</svg>