<?xml version="1.0" encoding="UTF-8"?>
<svg id="Capa_2" data-name="Capa 2" xmlns="http://www.w3.org/2000/svg" viewBox="0 0 405.32 176">
  <defs>
    <style>
      .cls-1 {
        fill: #fff;
      }
    </style>
  </defs>
  <g id="Capa_1-2" data-name="Capa 1">
    <path class="cls-1" d="m2,32.32h9.52l2,38.08H0l2-38.08Zm11.68-13.36c0,2.45-.67,4.19-2,5.2-1.33.96-2.96,1.44-4.88,1.44-1.81,0-3.41-.48-4.8-1.44-1.33-1.01-2-2.75-2-5.2s.67-4.03,2-5.04c1.39-1.07,2.99-1.6,4.8-1.6,1.92,0,3.55.53,4.88,1.6,1.33,1.01,2,2.69,2,5.04Zm9.69,25.52V11.52c0-1.6.29-3.09.88-4.48.64-1.44,1.47-2.67,2.48-3.68,1.07-1.07,2.29-1.89,3.68-2.48,1.39-.59,2.88-.88,4.48-.88h15.36c1.6,0,3.09.29,4.48.88,1.44.59,2.67,1.41,3.68,2.48,1.07,1.01,1.89,2.24,2.48,3.68.59,1.39.88,2.88.88,4.48v7.68h-8.8v-6.4c0-1.12-.4-2.05-1.2-2.8-.75-.8-1.68-1.2-2.8-1.2h-12.8c-1.12,0-2.08.4-2.88,1.2-.75.75-1.12,1.68-1.12,2.8v30.4c0,1.12.37,2.08,1.12,2.88.8.75,1.76,1.12,2.88,1.12h12.8c1.12,0,2.05-.37,2.8-1.12.8-.8,1.2-1.76,1.2-2.88v-6.4h8.8v7.68c0,1.6-.29,3.09-.88,4.48-.59,1.39-1.41,2.61-2.48,3.68-1.01,1.01-2.24,1.84-3.68,2.48-1.39.59-2.88.88-4.48.88h-15.36c-1.6,0-3.09-.29-4.48-.88-1.39-.64-2.61-1.47-3.68-2.48-1.01-1.07-1.84-2.29-2.48-3.68-.59-1.39-.88-2.88-.88-4.48ZM70.87,11.52c0-1.6.29-3.09.88-4.48.64-1.44,1.47-2.67,2.48-3.68,1.07-1.07,2.29-1.89,3.68-2.48,1.39-.59,2.88-.88,4.48-.88h15.36c1.6,0,3.09.29,4.48.88,1.44.59,2.67,1.41,3.68,2.48,1.07,1.01,1.89,2.24,2.48,3.68.59,1.39.88,2.88.88,4.48v32.96c0,1.6-.29,3.09-.88,4.48-.59,1.39-1.41,2.61-2.48,3.68-1.01,1.01-2.24,1.84-3.68,2.48-1.39.59-2.88.88-4.48.88h-15.36c-1.6,0-3.09-.29-4.48-.88-1.39-.64-2.61-1.47-3.68-2.48-1.01-1.07-1.84-2.29-2.48-3.68-.59-1.39-.88-2.88-.88-4.48V11.52Zm12.8,35.68h12.8c1.12,0,2.05-.37,2.8-1.12.8-.8,1.2-1.76,1.2-2.88V12.8c0-1.12-.4-2.05-1.2-2.8-.75-.8-1.68-1.2-2.8-1.2h-12.8c-1.12,0-2.08.4-2.88,1.2-.75.75-1.12,1.68-1.12,2.8v30.4c0,1.12.37,2.08,1.12,2.88.8.75,1.76,1.12,2.88,1.12Zm36.44,8.8V0h9.52l23.44,39.84V0h8.8v56h-9.52l-23.44-39.84v39.84h-8.8Zm52.64-44.48c0-1.6.29-3.09.88-4.48.64-1.44,1.47-2.67,2.48-3.68,1.07-1.07,2.29-1.89,3.68-2.48,1.39-.59,2.88-.88,4.48-.88h15.36c1.6,0,3.09.29,4.48.88,1.44.59,2.67,1.41,3.68,2.48,1.07,1.01,1.89,2.24,2.48,3.68.59,1.39.88,2.88.88,4.48v32.96c0,1.6-.29,3.09-.88,4.48-.59,1.39-1.41,2.61-2.48,3.68-1.01,1.01-2.24,1.84-3.68,2.48-1.39.59-2.88.88-4.48.88h-15.36c-1.6,0-3.09-.29-4.48-.88-1.39-.64-2.61-1.47-3.68-2.48-1.01-1.07-1.84-2.29-2.48-3.68-.59-1.39-.88-2.88-.88-4.48V11.52Zm12.8,35.68h12.8c1.12,0,2.05-.37,2.8-1.12.8-.8,1.2-1.76,1.2-2.88V12.8c0-1.12-.4-2.05-1.2-2.8-.75-.8-1.68-1.2-2.8-1.2h-12.8c-1.12,0-2.08.4-2.88,1.2-.75.75-1.12,1.68-1.12,2.8v30.4c0,1.12.37,2.08,1.12,2.88.8.75,1.76,1.12,2.88,1.12Zm35.64-2.72V11.52c0-1.6.29-3.09.88-4.48.64-1.44,1.47-2.67,2.48-3.68,1.07-1.07,2.29-1.89,3.68-2.48,1.39-.59,2.88-.88,4.48-.88h15.36c1.6,0,3.09.29,4.48.88,1.44.59,2.67,1.41,3.68,2.48,1.07,1.01,1.89,2.24,2.48,3.68.59,1.39.88,2.88.88,4.48v7.68h-8.8v-6.4c0-1.12-.4-2.05-1.2-2.8-.75-.8-1.68-1.2-2.8-1.2h-12.8c-1.12,0-2.08.4-2.88,1.2-.75.75-1.12,1.68-1.12,2.8v30.4c0,1.12.37,2.08,1.12,2.88.8.75,1.76,1.12,2.88,1.12h12.8c1.12,0,2.05-.37,2.8-1.12.8-.8,1.2-1.76,1.2-2.88v-6.4h8.8v7.68c0,1.6-.29,3.09-.88,4.48-.59,1.39-1.41,2.61-2.48,3.68-1.01,1.01-2.24,1.84-3.68,2.48-1.39.59-2.88.88-4.48.88h-15.36c-1.6,0-3.09-.29-4.48-.88-1.39-.64-2.61-1.47-3.68-2.48-1.01-1.07-1.84-2.29-2.48-3.68-.59-1.39-.88-2.88-.88-4.48ZM302.28,0v8.8h-24v14.8h21.6v8.8h-21.6v14.8h24v8.8h-32.8V0h32.8Zm31.73,0h9.36l15.84,31.44,15.84-31.44h9.36v56h-8.8V18.48l-11.92,23.68h-8.96l-11.92-23.68v37.52h-8.8V0Zm62.51,56V0h8.8v56h-8.8ZM66.93,120v8.8h-15.2v47.2h-8.8v-47.2h-15.2v-8.8h39.2Zm33.73,0c1.6,0,3.09.32,4.48.96,1.39.59,2.59,1.41,3.6,2.48,1.07,1.01,1.89,2.21,2.48,3.6.64,1.39.96,2.88.96,4.48v10.96c0,2.88-.91,5.36-2.72,7.44-1.76,2.08-4,3.39-6.72,3.92l10.72,22.16h-9.76l-10.64-22h-10.48v22h-8.8v-56h26.88Zm-18.08,25.2h16.8c1.12,0,2.05-.37,2.8-1.12.8-.8,1.2-1.76,1.2-2.88v-8.4c0-1.12-.4-2.05-1.2-2.8-.75-.8-1.68-1.2-2.8-1.2h-16.8v16.4Zm54.91-25.2h9.2l18.64,56h-9.28l-3.84-11.6h-20.24l-3.84,11.6h-9.28l18.64-56Zm-2.56,35.6h14.32l-7.12-22-7.2,22Zm65.11-35.6c1.6,0,3.09.29,4.48.88,1.44.59,2.67,1.41,3.68,2.48,1.07,1.01,1.89,2.24,2.48,3.68.59,1.39.88,2.88.88,4.48v6.96c0,2.24-.61,4.24-1.84,6-1.17,1.76-2.69,2.93-4.56,3.52,1.87.59,3.39,1.76,4.56,3.52,1.23,1.76,1.84,3.76,1.84,6v6.96c0,1.6-.29,3.09-.88,4.48-.59,1.39-1.41,2.61-2.48,3.68-1.01,1.01-2.24,1.84-3.68,2.48-1.39.59-2.88.88-4.48.88h-26.88v-56h26.88Zm-18.08,23.6h16.8c1.12,0,2.05-.37,2.8-1.12.8-.8,1.2-1.76,1.2-2.88v-6.8c0-1.12-.4-2.05-1.2-2.8-.75-.8-1.68-1.2-2.8-1.2h-16.8v14.8Zm0,23.6h16.8c1.12,0,2.05-.37,2.8-1.12.8-.8,1.2-1.76,1.2-2.88v-6.8c0-1.12-.4-2.05-1.2-2.8-.75-.8-1.68-1.2-2.8-1.2h-16.8v14.8Zm55.14-47.2h9.2l18.64,56h-9.28l-3.84-11.6h-20.24l-3.84,11.6h-9.28l18.64-56Zm-2.56,35.6h14.32l-7.12-22-7.2,22Zm35.11,8.88v-7.68h8.8v6.4c0,1.12.37,2.08,1.12,2.88.8.75,1.76,1.12,2.88,1.12h12.8c1.12,0,2.05-.37,2.8-1.12.8-.8,1.2-1.76,1.2-2.88v-43.2h8.8v44.48c0,1.6-.29,3.09-.88,4.48-.59,1.39-1.41,2.61-2.48,3.68-1.01,1.01-2.24,1.84-3.68,2.48-1.39.59-2.88.88-4.48.88h-15.36c-1.6,0-3.09-.29-4.48-.88-1.39-.64-2.61-1.47-3.68-2.48-1.01-1.07-1.84-2.29-2.48-3.68-.59-1.39-.88-2.88-.88-4.48Zm48.88-32.96c0-1.6.29-3.09.88-4.48.64-1.44,1.47-2.67,2.48-3.68,1.07-1.07,2.29-1.89,3.68-2.48,1.39-.59,2.88-.88,4.48-.88h15.36c1.6,0,3.09.29,4.48.88,1.44.59,2.67,1.41,3.68,2.48,1.07,1.01,1.89,2.24,2.48,3.68.59,1.39.88,2.88.88,4.48v32.96c0,1.6-.29,3.09-.88,4.48-.59,1.39-1.41,2.61-2.48,3.68-1.01,1.01-2.24,1.84-3.68,2.48-1.39.59-2.88.88-4.48.88h-15.36c-1.6,0-3.09-.29-4.48-.88-1.39-.64-2.61-1.47-3.68-2.48-1.01-1.07-1.84-2.29-2.48-3.68-.59-1.39-.88-2.88-.88-4.48v-32.96Zm12.8,35.68h12.8c1.12,0,2.05-.37,2.8-1.12.8-.8,1.2-1.76,1.2-2.88v-30.4c0-1.12-.4-2.05-1.2-2.8-.75-.8-1.68-1.2-2.8-1.2h-12.8c-1.12,0-2.08.4-2.88,1.2-.75.75-1.12,1.68-1.12,2.8v30.4c0,1.12.37,2.08,1.12,2.88.8.75,1.76,1.12,2.88,1.12Zm36.68-7.2l-1.28-44h8.8l-1.28,44h-6.24Zm-1.28,16v-8.8h8.8v8.8h-8.8Z"/>
  </g>
</svg>