<?xml version="1.0" encoding="UTF-8"?>
<svg id="Capa_2" data-name="Capa 2" xmlns="http://www.w3.org/2000/svg" xmlns:xlink="http://www.w3.org/1999/xlink" viewBox="0 0 1990.32 1866.98">
  <defs>
    <style>
      .cls-1 {
        clip-path: url(#clippath-1);
      }

      .cls-2 {
        isolation: isolate;
        opacity: .05;
        stroke: rgba(255, 255, 255, .5);
        stroke-miterlimit: 10;
        stroke-width: 4px;
      }

      .cls-2, .cls-3 {
        fill: none;
      }

      .cls-4 {
        fill: url(#Degradado_sin_nombre_2);
      }

      .cls-5 {
        clip-path: url(#clippath);
      }

      .cls-6 {
        fill: url(#Degradado_sin_nombre_8);
      }
    </style>
    <linearGradient id="Degradado_sin_nombre_8" data-name="Degradado sin nombre 8" x1="995.16" y1="1866.98" x2="995.16" y2="0" gradientUnits="userSpaceOnUse">
      <stop offset="0" stop-color="#676767"/>
      <stop offset=".03" stop-color="#585858"/>
      <stop offset=".11" stop-color="#3d3d3d"/>
      <stop offset=".2" stop-color="#262626"/>
      <stop offset=".3" stop-color="#151515"/>
      <stop offset=".42" stop-color="#090909"/>
      <stop offset=".58" stop-color="#010101"/>
      <stop offset="1" stop-color="#000"/>
    </linearGradient>
    <clipPath id="clippath">
      <rect class="cls-3" y="718.53" width="1990.32" height="1148.45"/>
    </clipPath>
    <linearGradient id="Degradado_sin_nombre_2" data-name="Degradado sin nombre 2" x1="995.16" y1="1633.99" x2="995.16" y2="485.54" gradientTransform="translate(0 2352.52) scale(1 -1)" gradientUnits="userSpaceOnUse">
      <stop offset=".5" stop-color="#1f2b31"/>
      <stop offset="1" stop-color="#608596"/>
    </linearGradient>
    <clipPath id="clippath-1">
      <rect class="cls-3" width="1990.32" height="1866.98"/>
    </clipPath>
  </defs>
  <g id="Capa_1-2" data-name="Capa 1">
    <rect class="cls-6" width="1990.32" height="1866.98"/>
    <g class="cls-5">
      <path class="cls-4" d="m1990.32,753.83h-477.69l-49.01-35.3h-944.94l-40.45,29.15H0v1119.3h1990.32V753.83Z"/>
    </g>
    <g class="cls-1">
      <g>
        <path class="cls-2" d="m126.42,2H43.68L2.31,73.65l41.37,71.66h82.74l41.36-71.66L126.42,2Z"/>
        <path class="cls-2" d="m291.89,2h-82.74l-41.37,71.65,41.37,71.66h82.74l41.37-71.66L291.89,2Z"/>
        <path class="cls-2" d="m457.37,2h-82.74l-41.37,71.65,41.37,71.66h82.74l41.37-71.66L457.37,2Z"/>
        <path class="cls-2" d="m622.84,2h-82.74l-41.36,71.65,41.36,71.66h82.74l41.37-71.66L622.84,2Z"/>
        <path class="cls-2" d="m788.32,2h-82.74l-41.37,71.65,41.37,71.66h82.74l41.37-71.66L788.32,2Z"/>
        <path class="cls-2" d="m953.79,2h-82.73l-41.37,71.65,41.37,71.66h82.73l41.37-71.66L953.79,2Z"/>
        <path class="cls-2" d="m1119.27,2h-82.74l-41.37,71.65,41.37,71.66h82.74l41.37-71.66-41.37-71.65Z"/>
        <path class="cls-2" d="m1284.74,2h-82.73l-41.37,71.65,41.37,71.66h82.73l41.37-71.66-41.37-71.65Z"/>
        <path class="cls-2" d="m1450.22,2h-82.74l-41.37,71.65,41.37,71.66h82.74l41.37-71.66-41.37-71.65Z"/>
        <path class="cls-2" d="m1615.7,2h-82.74l-41.37,71.65,41.37,71.66h82.74l41.36-71.66-41.36-71.65Z"/>
        <path class="cls-2" d="m1781.17,2h-82.74l-41.37,71.65,41.37,71.66h82.74l41.37-71.66-41.37-71.65Z"/>
        <path class="cls-2" d="m1946.65,2h-82.74l-41.37,71.65,41.37,71.66h82.74l41.37-71.66-41.37-71.65Z"/>
        <path class="cls-2" d="m126.42,145.31H43.68L2.31,216.96l41.37,71.65h82.74l41.36-71.65-41.36-71.65Z"/>
        <path class="cls-2" d="m291.89,145.31h-82.74l-41.37,71.65,41.37,71.65h82.74l41.37-71.65-41.37-71.65Z"/>
        <path class="cls-2" d="m457.37,145.31h-82.74l-41.37,71.65,41.37,71.65h82.74l41.37-71.65-41.37-71.65Z"/>
        <path class="cls-2" d="m622.84,145.31h-82.74l-41.36,71.65,41.36,71.65h82.74l41.37-71.65-41.37-71.65Z"/>
        <path class="cls-2" d="m788.32,145.31h-82.74l-41.37,71.65,41.37,71.65h82.74l41.37-71.65-41.37-71.65Z"/>
        <path class="cls-2" d="m953.79,145.31h-82.73l-41.37,71.65,41.37,71.65h82.73l41.37-71.65-41.37-71.65Z"/>
        <path class="cls-2" d="m1119.27,145.31h-82.74l-41.37,71.65,41.37,71.65h82.74l41.37-71.65-41.37-71.65Z"/>
        <path class="cls-2" d="m1284.74,145.31h-82.73l-41.37,71.65,41.37,71.65h82.73l41.37-71.65-41.37-71.65Z"/>
        <path class="cls-2" d="m1450.22,145.31h-82.74l-41.37,71.65,41.37,71.65h82.74l41.37-71.65-41.37-71.65Z"/>
        <path class="cls-2" d="m1615.7,145.31h-82.74l-41.37,71.65,41.37,71.65h82.74l41.36-71.65-41.36-71.65Z"/>
        <path class="cls-2" d="m1781.17,145.31h-82.74l-41.37,71.65,41.37,71.65h82.74l41.37-71.65-41.37-71.65Z"/>
        <path class="cls-2" d="m1946.65,145.31h-82.74l-41.37,71.65,41.37,71.65h82.74l41.37-71.65-41.37-71.65Z"/>
        <path class="cls-2" d="m126.42,288.61H43.68L2.31,360.26l41.37,71.66h82.74l41.36-71.66-41.36-71.65Z"/>
        <path class="cls-2" d="m291.89,288.61h-82.74l-41.37,71.65,41.37,71.66h82.74l41.37-71.66-41.37-71.65Z"/>
        <path class="cls-2" d="m457.37,288.61h-82.74l-41.37,71.65,41.37,71.66h82.74l41.37-71.66-41.37-71.65Z"/>
        <path class="cls-2" d="m622.84,288.61h-82.74l-41.36,71.65,41.36,71.66h82.74l41.37-71.66-41.37-71.65Z"/>
        <path class="cls-2" d="m788.32,288.61h-82.74l-41.37,71.65,41.37,71.66h82.74l41.37-71.66-41.37-71.65Z"/>
        <path class="cls-2" d="m953.79,288.61h-82.73l-41.37,71.65,41.37,71.66h82.73l41.37-71.66-41.37-71.65Z"/>
        <path class="cls-2" d="m1119.27,288.61h-82.74l-41.37,71.65,41.37,71.66h82.74l41.37-71.66-41.37-71.65Z"/>
        <path class="cls-2" d="m1284.74,288.61h-82.73l-41.37,71.65,41.37,71.66h82.73l41.37-71.66-41.37-71.65Z"/>
        <path class="cls-2" d="m1450.22,288.61h-82.74l-41.37,71.65,41.37,71.66h82.74l41.37-71.66-41.37-71.65Z"/>
        <path class="cls-2" d="m1615.7,288.61h-82.74l-41.37,71.65,41.37,71.66h82.74l41.36-71.66-41.36-71.65Z"/>
        <path class="cls-2" d="m1781.17,288.61h-82.74l-41.37,71.65,41.37,71.66h82.74l41.37-71.66-41.37-71.65Z"/>
        <path class="cls-2" d="m1946.65,288.61h-82.74l-41.37,71.65,41.37,71.66h82.74l41.37-71.66-41.37-71.65Z"/>
        <path class="cls-2" d="m126.42,431.92H43.68L2.31,503.57l41.37,71.65h82.74l41.36-71.65-41.36-71.65Z"/>
        <path class="cls-2" d="m291.89,431.92h-82.74l-41.37,71.65,41.37,71.65h82.74l41.37-71.65-41.37-71.65Z"/>
        <path class="cls-2" d="m457.37,431.92h-82.74l-41.37,71.65,41.37,71.65h82.74l41.37-71.65-41.37-71.65Z"/>
        <path class="cls-2" d="m622.84,431.92h-82.74l-41.36,71.65,41.36,71.65h82.74l41.37-71.65-41.37-71.65Z"/>
        <path class="cls-2" d="m788.32,431.92h-82.74l-41.37,71.65,41.37,71.65h82.74l41.37-71.65-41.37-71.65Z"/>
        <path class="cls-2" d="m953.79,431.92h-82.73l-41.37,71.65,41.37,71.65h82.73l41.37-71.65-41.37-71.65Z"/>
        <path class="cls-2" d="m1119.27,431.92h-82.74l-41.37,71.65,41.37,71.65h82.74l41.37-71.65-41.37-71.65Z"/>
        <path class="cls-2" d="m1284.74,431.92h-82.73l-41.37,71.65,41.37,71.65h82.73l41.37-71.65-41.37-71.65Z"/>
        <path class="cls-2" d="m1450.22,431.92h-82.74l-41.37,71.65,41.37,71.65h82.74l41.37-71.65-41.37-71.65Z"/>
        <path class="cls-2" d="m1615.7,431.92h-82.74l-41.37,71.65,41.37,71.65h82.74l41.36-71.65-41.36-71.65Z"/>
        <path class="cls-2" d="m1781.17,431.92h-82.74l-41.37,71.65,41.37,71.65h82.74l41.37-71.65-41.37-71.65Z"/>
        <path class="cls-2" d="m1946.65,431.92h-82.74l-41.37,71.65,41.37,71.65h82.74l41.37-71.65-41.37-71.65Z"/>
        <path class="cls-2" d="m126.42,575.22H43.68L2.31,646.88l41.37,71.65h82.74l41.36-71.65-41.36-71.66Z"/>
        <path class="cls-2" d="m291.89,575.22h-82.74l-41.37,71.66,41.37,71.65h82.74l41.37-71.65-41.37-71.66Z"/>
        <path class="cls-2" d="m457.37,575.22h-82.74l-41.37,71.66,41.37,71.65h82.74l41.37-71.65-41.37-71.66Z"/>
        <path class="cls-2" d="m622.84,575.22h-82.74l-41.36,71.66,41.36,71.65h82.74l41.37-71.65-41.37-71.66Z"/>
        <path class="cls-2" d="m788.32,575.22h-82.74l-41.37,71.66,41.37,71.65h82.74l41.37-71.65-41.37-71.66Z"/>
        <path class="cls-2" d="m953.79,575.22h-82.73l-41.37,71.66,41.37,71.65h82.73l41.37-71.65-41.37-71.66Z"/>
        <path class="cls-2" d="m1119.27,575.22h-82.74l-41.37,71.66,41.37,71.65h82.74l41.37-71.65-41.37-71.66Z"/>
        <path class="cls-2" d="m1284.74,575.22h-82.73l-41.37,71.66,41.37,71.65h82.73l41.37-71.65-41.37-71.66Z"/>
        <path class="cls-2" d="m1450.22,575.22h-82.74l-41.37,71.66,41.37,71.65h82.74l41.37-71.65-41.37-71.66Z"/>
        <path class="cls-2" d="m1615.7,575.22h-82.74l-41.37,71.66,41.37,71.65h82.74l41.36-71.65-41.36-71.66Z"/>
        <path class="cls-2" d="m1781.17,575.22h-82.74l-41.37,71.66,41.37,71.65h82.74l41.37-71.65-41.37-71.66Z"/>
        <path class="cls-2" d="m1946.65,575.22h-82.74l-41.37,71.66,41.37,71.65h82.74l41.37-71.65-41.37-71.66Z"/>
        <path class="cls-2" d="m126.42,718.53H43.68L2.31,790.18l41.37,71.66h82.74l41.36-71.66-41.36-71.65Z"/>
        <path class="cls-2" d="m291.89,718.53h-82.74l-41.37,71.65,41.37,71.66h82.74l41.37-71.66-41.37-71.65Z"/>
        <path class="cls-2" d="m457.37,718.53h-82.74l-41.37,71.65,41.37,71.66h82.74l41.37-71.66-41.37-71.65Z"/>
        <path class="cls-2" d="m622.84,718.53h-82.74l-41.36,71.65,41.36,71.66h82.74l41.37-71.66-41.37-71.65Z"/>
        <path class="cls-2" d="m788.32,718.53h-82.74l-41.37,71.65,41.37,71.66h82.74l41.37-71.66-41.37-71.65Z"/>
        <path class="cls-2" d="m953.79,718.53h-82.73l-41.37,71.65,41.37,71.66h82.73l41.37-71.66-41.37-71.65Z"/>
        <path class="cls-2" d="m1119.27,718.53h-82.74l-41.37,71.65,41.37,71.66h82.74l41.37-71.66-41.37-71.65Z"/>
        <path class="cls-2" d="m1284.74,718.53h-82.73l-41.37,71.65,41.37,71.66h82.73l41.37-71.66-41.37-71.65Z"/>
        <path class="cls-2" d="m1450.22,718.53h-82.74l-41.37,71.65,41.37,71.66h82.74l41.37-71.66-41.37-71.65Z"/>
        <path class="cls-2" d="m1615.7,718.53h-82.74l-41.37,71.65,41.37,71.66h82.74l41.36-71.66-41.36-71.65Z"/>
        <path class="cls-2" d="m1781.17,718.53h-82.74l-41.37,71.65,41.37,71.66h82.74l41.37-71.66-41.37-71.65Z"/>
        <path class="cls-2" d="m1946.65,718.53h-82.74l-41.37,71.65,41.37,71.66h82.74l41.37-71.66-41.37-71.65Z"/>
        <path class="cls-2" d="m126.42,861.84H43.68L2.31,933.49l41.37,71.65h82.74l41.36-71.65-41.36-71.65Z"/>
        <path class="cls-2" d="m291.89,861.84h-82.74l-41.37,71.65,41.37,71.65h82.74l41.37-71.65-41.37-71.65Z"/>
        <path class="cls-2" d="m457.37,861.84h-82.74l-41.37,71.65,41.37,71.65h82.74l41.37-71.65-41.37-71.65Z"/>
        <path class="cls-2" d="m622.84,861.84h-82.74l-41.36,71.65,41.36,71.65h82.74l41.37-71.65-41.37-71.65Z"/>
        <path class="cls-2" d="m788.32,861.84h-82.74l-41.37,71.65,41.37,71.65h82.74l41.37-71.65-41.37-71.65Z"/>
        <path class="cls-2" d="m953.79,861.84h-82.73l-41.37,71.65,41.37,71.65h82.73l41.37-71.65-41.37-71.65Z"/>
        <path class="cls-2" d="m1119.27,861.84h-82.74l-41.37,71.65,41.37,71.65h82.74l41.37-71.65-41.37-71.65Z"/>
        <path class="cls-2" d="m1284.74,861.84h-82.73l-41.37,71.65,41.37,71.65h82.73l41.37-71.65-41.37-71.65Z"/>
        <path class="cls-2" d="m1450.22,861.84h-82.74l-41.37,71.65,41.37,71.65h82.74l41.37-71.65-41.37-71.65Z"/>
        <path class="cls-2" d="m1615.7,861.84h-82.74l-41.37,71.65,41.37,71.65h82.74l41.36-71.65-41.36-71.65Z"/>
        <path class="cls-2" d="m1781.17,861.84h-82.74l-41.37,71.65,41.37,71.65h82.74l41.37-71.65-41.37-71.65Z"/>
        <path class="cls-2" d="m1946.65,861.84h-82.74l-41.37,71.65,41.37,71.65h82.74l41.37-71.65-41.37-71.65Z"/>
        <path class="cls-2" d="m126.42,1005.14H43.68l-41.37,71.65,41.37,71.66h82.74l41.36-71.66-41.36-71.65Z"/>
        <path class="cls-2" d="m291.89,1005.14h-82.74l-41.37,71.65,41.37,71.66h82.74l41.37-71.66-41.37-71.65Z"/>
        <path class="cls-2" d="m457.37,1005.14h-82.74l-41.37,71.65,41.37,71.66h82.74l41.37-71.66-41.37-71.65Z"/>
        <path class="cls-2" d="m622.84,1005.14h-82.74l-41.36,71.65,41.36,71.66h82.74l41.37-71.66-41.37-71.65Z"/>
        <path class="cls-2" d="m788.32,1005.14h-82.74l-41.37,71.65,41.37,71.66h82.74l41.37-71.66-41.37-71.65Z"/>
        <path class="cls-2" d="m953.79,1005.14h-82.73l-41.37,71.65,41.37,71.66h82.73l41.37-71.66-41.37-71.65Z"/>
        <path class="cls-2" d="m1119.27,1005.14h-82.74l-41.37,71.65,41.37,71.66h82.74l41.37-71.66-41.37-71.65Z"/>
        <path class="cls-2" d="m1284.74,1005.14h-82.73l-41.37,71.65,41.37,71.66h82.73l41.37-71.66-41.37-71.65Z"/>
        <path class="cls-2" d="m1450.22,1005.14h-82.74l-41.37,71.65,41.37,71.66h82.74l41.37-71.66-41.37-71.65Z"/>
        <path class="cls-2" d="m1615.7,1005.14h-82.74l-41.37,71.65,41.37,71.66h82.74l41.36-71.66-41.36-71.65Z"/>
        <path class="cls-2" d="m1781.17,1005.14h-82.74l-41.37,71.65,41.37,71.66h82.74l41.37-71.66-41.37-71.65Z"/>
        <path class="cls-2" d="m1946.65,1005.14h-82.74l-41.37,71.65,41.37,71.66h82.74l41.37-71.66-41.37-71.65Z"/>
        <path class="cls-2" d="m126.42,1148.45H43.68l-41.37,71.65,41.37,71.65h82.74l41.36-71.65-41.36-71.65Z"/>
        <path class="cls-2" d="m291.89,1148.45h-82.74l-41.37,71.65,41.37,71.65h82.74l41.37-71.65-41.37-71.65Z"/>
        <path class="cls-2" d="m457.37,1148.45h-82.74l-41.37,71.65,41.37,71.65h82.74l41.37-71.65-41.37-71.65Z"/>
        <path class="cls-2" d="m622.84,1148.45h-82.74l-41.36,71.65,41.36,71.65h82.74l41.37-71.65-41.37-71.65Z"/>
        <path class="cls-2" d="m788.32,1148.45h-82.74l-41.37,71.65,41.37,71.65h82.74l41.37-71.65-41.37-71.65Z"/>
        <path class="cls-2" d="m953.79,1148.45h-82.73l-41.37,71.65,41.37,71.65h82.73l41.37-71.65-41.37-71.65Z"/>
        <path class="cls-2" d="m1119.27,1148.45h-82.74l-41.37,71.65,41.37,71.65h82.74l41.37-71.65-41.37-71.65Z"/>
        <path class="cls-2" d="m1284.74,1148.45h-82.73l-41.37,71.65,41.37,71.65h82.73l41.37-71.65-41.37-71.65Z"/>
        <path class="cls-2" d="m1450.22,1148.45h-82.74l-41.37,71.65,41.37,71.65h82.74l41.37-71.65-41.37-71.65Z"/>
        <path class="cls-2" d="m1615.7,1148.45h-82.74l-41.37,71.65,41.37,71.65h82.74l41.36-71.65-41.36-71.65Z"/>
        <path class="cls-2" d="m1781.17,1148.45h-82.74l-41.37,71.65,41.37,71.65h82.74l41.37-71.65-41.37-71.65Z"/>
        <path class="cls-2" d="m1946.65,1148.45h-82.74l-41.37,71.65,41.37,71.65h82.74l41.37-71.65-41.37-71.65Z"/>
        <path class="cls-2" d="m126.42,1291.75H43.68l-41.37,71.66,41.37,71.65h82.74l41.36-71.65-41.36-71.66Z"/>
        <path class="cls-2" d="m291.89,1291.75h-82.74l-41.37,71.66,41.37,71.65h82.74l41.37-71.65-41.37-71.66Z"/>
        <path class="cls-2" d="m457.37,1291.75h-82.74l-41.37,71.66,41.37,71.65h82.74l41.37-71.65-41.37-71.66Z"/>
        <path class="cls-2" d="m622.84,1291.75h-82.74l-41.36,71.66,41.36,71.65h82.74l41.37-71.65-41.37-71.66Z"/>
        <path class="cls-2" d="m788.32,1291.75h-82.74l-41.37,71.66,41.37,71.65h82.74l41.37-71.65-41.37-71.66Z"/>
        <path class="cls-2" d="m953.79,1291.75h-82.73l-41.37,71.66,41.37,71.65h82.73l41.37-71.65-41.37-71.66Z"/>
        <path class="cls-2" d="m1119.27,1291.75h-82.74l-41.37,71.66,41.37,71.65h82.74l41.37-71.65-41.37-71.66Z"/>
        <path class="cls-2" d="m1284.74,1291.75h-82.73l-41.37,71.66,41.37,71.65h82.73l41.37-71.65-41.37-71.66Z"/>
        <path class="cls-2" d="m1450.22,1291.75h-82.74l-41.37,71.66,41.37,71.65h82.74l41.37-71.65-41.37-71.66Z"/>
        <path class="cls-2" d="m1615.7,1291.75h-82.74l-41.37,71.66,41.37,71.65h82.74l41.36-71.65-41.36-71.66Z"/>
        <path class="cls-2" d="m1781.17,1291.75h-82.74l-41.37,71.66,41.37,71.65h82.74l41.37-71.65-41.37-71.66Z"/>
        <path class="cls-2" d="m1946.65,1291.75h-82.74l-41.37,71.66,41.37,71.65h82.74l41.37-71.65-41.37-71.66Z"/>
        <path class="cls-2" d="m126.42,1435.06H43.68l-41.37,71.65,41.37,71.66h82.74l41.36-71.66-41.36-71.65Z"/>
        <path class="cls-2" d="m291.89,1435.06h-82.74l-41.37,71.65,41.37,71.66h82.74l41.37-71.66-41.37-71.65Z"/>
        <path class="cls-2" d="m457.37,1435.06h-82.74l-41.37,71.65,41.37,71.66h82.74l41.37-71.66-41.37-71.65Z"/>
        <path class="cls-2" d="m622.84,1435.06h-82.74l-41.36,71.65,41.36,71.66h82.74l41.37-71.66-41.37-71.65Z"/>
        <path class="cls-2" d="m788.32,1435.06h-82.74l-41.37,71.65,41.37,71.66h82.74l41.37-71.66-41.37-71.65Z"/>
        <path class="cls-2" d="m953.79,1435.06h-82.73l-41.37,71.65,41.37,71.66h82.73l41.37-71.66-41.37-71.65Z"/>
        <path class="cls-2" d="m1119.27,1435.06h-82.74l-41.37,71.65,41.37,71.66h82.74l41.37-71.66-41.37-71.65Z"/>
        <path class="cls-2" d="m1284.74,1435.06h-82.73l-41.37,71.65,41.37,71.66h82.73l41.37-71.66-41.37-71.65Z"/>
        <path class="cls-2" d="m1450.22,1435.06h-82.74l-41.37,71.65,41.37,71.66h82.74l41.37-71.66-41.37-71.65Z"/>
        <path class="cls-2" d="m1615.7,1435.06h-82.74l-41.37,71.65,41.37,71.66h82.74l41.36-71.66-41.36-71.65Z"/>
        <path class="cls-2" d="m1781.17,1435.06h-82.74l-41.37,71.65,41.37,71.66h82.74l41.37-71.66-41.37-71.65Z"/>
        <path class="cls-2" d="m1946.65,1435.06h-82.74l-41.37,71.65,41.37,71.66h82.74l41.37-71.66-41.37-71.65Z"/>
        <path class="cls-2" d="m126.42,1578.37H43.68l-41.37,71.65,41.37,71.65h82.74l41.36-71.65-41.36-71.65Z"/>
        <path class="cls-2" d="m291.89,1578.37h-82.74l-41.37,71.65,41.37,71.65h82.74l41.37-71.65-41.37-71.65Z"/>
        <path class="cls-2" d="m457.37,1578.37h-82.74l-41.37,71.65,41.37,71.65h82.74l41.37-71.65-41.37-71.65Z"/>
        <path class="cls-2" d="m622.84,1578.37h-82.74l-41.36,71.65,41.36,71.65h82.74l41.37-71.65-41.37-71.65Z"/>
        <path class="cls-2" d="m788.32,1578.37h-82.74l-41.37,71.65,41.37,71.65h82.74l41.37-71.65-41.37-71.65Z"/>
        <path class="cls-2" d="m953.79,1578.37h-82.73l-41.37,71.65,41.37,71.65h82.73l41.37-71.65-41.37-71.65Z"/>
        <path class="cls-2" d="m1119.27,1578.37h-82.74l-41.37,71.65,41.37,71.65h82.74l41.37-71.65-41.37-71.65Z"/>
        <path class="cls-2" d="m1284.74,1578.37h-82.73l-41.37,71.65,41.37,71.65h82.73l41.37-71.65-41.37-71.65Z"/>
        <path class="cls-2" d="m1450.22,1578.37h-82.74l-41.37,71.65,41.37,71.65h82.74l41.37-71.65-41.37-71.65Z"/>
        <path class="cls-2" d="m1615.7,1578.37h-82.74l-41.37,71.65,41.37,71.65h82.74l41.36-71.65-41.36-71.65Z"/>
        <path class="cls-2" d="m1781.17,1578.37h-82.74l-41.37,71.65,41.37,71.65h82.74l41.37-71.65-41.37-71.65Z"/>
        <path class="cls-2" d="m1946.65,1578.37h-82.74l-41.37,71.65,41.37,71.65h82.74l41.37-71.65-41.37-71.65Z"/>
        <path class="cls-2" d="m126.42,1721.67H43.68l-41.37,71.65,41.37,71.66h82.74l41.36-71.66-41.36-71.65Z"/>
        <path class="cls-2" d="m291.89,1721.67h-82.74l-41.37,71.65,41.37,71.66h82.74l41.37-71.66-41.37-71.65Z"/>
        <path class="cls-2" d="m457.37,1721.67h-82.74l-41.37,71.65,41.37,71.66h82.74l41.37-71.66-41.37-71.65Z"/>
        <path class="cls-2" d="m622.84,1721.67h-82.74l-41.36,71.65,41.36,71.66h82.74l41.37-71.66-41.37-71.65Z"/>
        <path class="cls-2" d="m788.32,1721.67h-82.74l-41.37,71.65,41.37,71.66h82.74l41.37-71.66-41.37-71.65Z"/>
        <path class="cls-2" d="m953.79,1721.67h-82.73l-41.37,71.65,41.37,71.66h82.73l41.37-71.66-41.37-71.65Z"/>
        <path class="cls-2" d="m1119.27,1721.67h-82.74l-41.37,71.65,41.37,71.66h82.74l41.37-71.66-41.37-71.65Z"/>
        <path class="cls-2" d="m1284.74,1721.67h-82.73l-41.37,71.65,41.37,71.66h82.73l41.37-71.66-41.37-71.65Z"/>
        <path class="cls-2" d="m1450.22,1721.67h-82.74l-41.37,71.65,41.37,71.66h82.74l41.37-71.66-41.37-71.65Z"/>
        <path class="cls-2" d="m1615.7,1721.67h-82.74l-41.37,71.65,41.37,71.66h82.74l41.36-71.66-41.36-71.65Z"/>
        <path class="cls-2" d="m1781.17,1721.67h-82.74l-41.37,71.65,41.37,71.66h82.74l41.37-71.66-41.37-71.65Z"/>
        <path class="cls-2" d="m1946.65,1721.67h-82.74l-41.37,71.65,41.37,71.66h82.74l41.37-71.66-41.37-71.65Z"/>
      </g>
    </g>
  </g>
</svg>