<?xml version="1.0" encoding="UTF-8"?>
<svg id="Capa_2" data-name="Capa 2" xmlns="http://www.w3.org/2000/svg" viewBox="0 0 67.4 109.2">
  <defs>
    <style>
      .cls-1 {
        fill: #007f18;
        stroke: #00c129;
        stroke-miterlimit: 10;
        stroke-width: 2px;
      }
    </style>
  </defs>
  <g id="Capa_1-2" data-name="Capa 1">
    <path class="cls-1" d="m33.7,69.8c-8.9,0-16.1-7.3-16.1-16.2V17.2c0-9,7.2-16.2,16.1-16.2s16.1,7.3,16.1,16.2v36.3c0,9-7.2,16.3-16.1,16.3h0Zm21.9-26.5h10.8v13.8c0,15.4-12.1,28.1-27.3,29v11.3h16.2v10.8H12.1v-10.8h16.2v-11.3c-15.2-.9-27.3-13.6-27.3-29v-13.8h10.8v13.8c0,10.1,8.2,18.2,18.2,18.2h7.3c10.1,0,18.2-8.2,18.2-18.2v-13.8h.1Z"/>
  </g>
</svg>